<?xml version="1.0" encoding="UTF-8"?>
<svg width="3000px" height="900px" viewBox="0 0 3000 900" version="1.1" xmlns="http://www.w3.org/2000/svg" xmlns:xlink="http://www.w3.org/1999/xlink">
    <!-- Generator: Sketch 52 (66869) - http://www.bohemiancoding.com/sketch -->
    <title>Combined Shape</title>
    <desc>Created with Sketch.</desc>
    <g id="Page-1" stroke="none" stroke-width="1" fill="none" fill-rule="evenodd">
        <path d="M0,0 L3000,0 L3000,900 L0,900 L0,0 Z M2334,758 C2504.1037,758 2642,620.103703 2642,450 C2642,279.896297 2504.1037,142 2334,142 C2163.8963,142 2026,279.896297 2026,450 C2026,620.103703 2163.8963,758 2334,758 Z M2210,258 L2543,450.5 L2210,643 L2210,258 Z M358.7,274.1 L358.6,274.1 L358.6,558.7 L421.2,558.7 L421.2,456.7 L487,456.7 C557.9,456.7 585.4,411.6 585.4,365.4 C585.4,319.1 557.9,274.1 487,274.1 L358.7,274.1 Z M421.3,408 L421.3,322.8 L469.9,322.8 C499,322.8 524.9,329.2 524.9,365.4 C524.9,401.6 499,408 469.9,408 L421.3,408 Z M604.2,274.1 L604.2,558.7 L660.8,558.7 L660.8,274.1 L604.2,274.1 Z M687.1,415.9 L743.7,415.9 C745.7,393.6 759.7,384.8 781.2,384.8 C801.2,384.8 817.9,388.4 817.9,412.7 C817.9,435.8 785.6,434.6 750.9,439.8 C715.9,444.6 680.8,455.8 680.8,502.4 C680.8,544.7 711.8,564.2 750.9,564.2 C776,564.2 802.3,557.4 820.2,538.7 C820.6,545.4 822.2,552.2 824.2,558.6 L881.6,558.6 C876.4,550.3 874.4,531.5 874.4,512.8 L874.4,405.6 C874.4,356.2 824.9,347 783.9,347 C737.7,347 690.3,362.9 687.1,415.9 Z M817.8,457.8 L817.8,479 C817.8,491.3 816.2,526.4 772,526.4 C753.6,526.4 737.3,521.2 737.3,500.1 C737.3,479.4 753.3,473.4 770.8,469.8 C788.3,466.6 808.2,466.2 817.8,457.8 Z M1003.9,584.5 L1090,352.5 L1031.4,352.5 L986.4,493.6 L985.6,493.6 L939,352.5 L878.4,352.5 L950.9,545.8 C957.3,562.2 950.9,582.5 931.4,584.5 C920.2,584.9 909.1,583.3 898.3,582.5 L898.3,629.1 C909.9,630.3 921.4,631.1 933,631.1 C972,631.1 991.5,617.6 1003.9,584.5 Z M1156.2,352.6 L1156.3,352.6 L1156.3,558.8 L1212.9,558.8 L1212.9,465.9 C1212.9,429.6 1227.3,399.7 1268.7,399.7 C1275.5,399.7 1283.8,400.5 1289,401.7 L1289,349.1 C1285.4,347.9 1280.6,347.1 1276.6,347.1 C1249.1,347.1 1221.2,365 1210.8,390.9 L1210,390.9 L1210,352.6 L1156.2,352.6 Z M1350.7,469.3 L1499.3,469.3 C1503.3,405.9 1469.4,346.9 1399.3,346.9 C1336.7,346.9 1294.1,393.9 1294.1,455.7 C1294.1,519.5 1334.3,564.1 1399.3,564.1 C1445.9,564.1 1479.8,543.4 1495.7,494.8 L1445.9,494.8 C1442.3,507.6 1424,521.5 1401.3,521.5 C1369.8,521.5 1352.3,505.2 1350.7,469.3 Z M1442.7,433.5 L1350.7,433.5 C1351.5,417.6 1361.8,389.7 1397.7,389.7 C1425.2,389.7 1437.5,404.8 1442.7,433.5 Z M1571.4,469.3 L1720,469.3 C1724,405.9 1690.1,346.9 1620,346.9 C1557.4,346.9 1514.8,393.9 1514.8,455.7 C1514.8,519.5 1555,564.1 1620,564.1 C1666.6,564.1 1700.5,543.4 1716.4,494.8 L1666.6,494.8 C1663,507.6 1644.7,521.5 1622,521.5 C1590.5,521.5 1573,505.2 1571.4,469.3 Z M1663.5,433.5 L1571.5,433.5 C1572.3,417.6 1582.6,389.7 1618.5,389.7 C1646,389.7 1658.3,404.8 1663.5,433.5 Z M1739.2,274.1 L1739.2,558.7 L1795.8,558.7 L1795.8,274.1 L1739.2,274.1 Z" id="Combined-Shape" fill="#FFFFFF"></path>
    </g>
</svg>