<?xml version="1.0" encoding="UTF-8"?>
<svg width="466px" height="490px" viewBox="0 0 466 490" version="1.1" xmlns="http://www.w3.org/2000/svg" xmlns:xlink="http://www.w3.org/1999/xlink">
    <!-- Generator: Sketch 43.2 (39069) - http://www.bohemiancoding.com/sketch -->
    <title>Group 2</title>
    <desc>Created with Sketch.</desc>
    <defs></defs>
    <g id="Icons" stroke="none" stroke-width="1" fill="none" fill-rule="evenodd">
        <g id="Group-2" fill="#3C92CA">
            <g id="cloud-computing">
                <g id="Layer_1">
                    <g id="Group">
                        <path d="M273.2,263.8 C319.5,260.5 355.7,220.9 355.7,173.5 C355.7,132.3 327.7,95.8 289.4,85.7 C281.2,36.4 238.8,0 187.9,0 C151,0 116.8,20 98.6,51.6 C95.1,50.9 91.4,50.6 87.8,50.6 C56.7,50.6 31.4,75.9 31.4,107 C31.4,111 31.8,114.9 32.6,118.7 C12.5,133.3 0.3,156.9 0.3,181.9 C0.3,224.1 34.2,261.7 74.3,263.9 L74.9,263.9 L272.6,263.9 C272.7,263.9 273,263.9 273.2,263.8 Z M75.1,244.1 C45.2,242.3 20.1,213.9 20.1,181.9 C20.1,161.2 31.2,141.9 49.1,131.5 C53.3,129.1 55.1,124 53.4,119.5 C51.9,115.6 51.2,111.4 51.2,107 C51.2,86.8 67.6,70.4 87.8,70.4 C92.1,70.4 96.3,71.1 100.3,72.6 C105.1,74.4 110.5,72.2 112.7,67.5 C126.3,38.5 155.9,19.8 188,19.8 C231.1,19.8 266.7,52.1 270.8,94.9 C271.2,99.4 274.6,103 279,103.7 C311.5,109.3 336,139.3 336,173.5 C336,209.8 307.4,241.4 272.2,244.1 L75.1,244.1 L75.1,244.1 Z" id="Shape"></path>
                        <path d="M178,297.3 C172.5,297.3 168.1,301.7 168.1,307.2 L168.1,423.2 C154.4,427.4 144.2,440.1 143.9,455 C143.7,464.1 147,472.8 153.3,479.4 C159.6,486 168.1,489.8 177.2,490 L178,490 L178,490 C196.4,490 211.7,475 212.1,456.7 C212.3,447.6 209,438.9 202.7,432.3 C198.6,428 193.5,424.9 187.9,423.2 L187.9,307.2 C187.9,301.7 183.5,297.3 178,297.3 Z M188.4,446 C191,448.8 192.5,452.4 192.4,456.2 C192.2,463.9 185.8,470.2 178.1,470.2 L177.7,470.2 C173.9,470.1 170.3,468.5 167.7,465.8 C165.1,463 163.6,459.4 163.7,455.6 C163.9,447.9 170.3,441.6 178,441.6 L178.4,441.6 C182.2,441.6 185.7,443.2 188.4,446 Z" id="Shape"></path>
                        <path d="M114.4,307.2 L114.4,362.7 C114.4,372.3 106.6,380 97.1,380 L67.9,380 C63.6,366 50.6,355.7 35.2,355.7 C16.4,355.7 1,371 1,389.9 C1,408.8 16.3,424.1 35.2,424.1 C50.6,424.1 63.6,413.9 67.9,399.8 L97.1,399.8 C117.6,399.8 134.2,383.1 134.2,362.7 L134.2,307.2 C134.2,301.7 129.8,297.3 124.3,297.3 C118.9,297.3 114.4,301.7 114.4,307.2 Z M35.2,404.3 C27.3,404.3 20.8,397.9 20.8,389.9 C20.8,381.9 27.2,375.5 35.2,375.5 C43.1,375.5 49.6,381.9 49.6,389.9 C49.6,397.9 43.2,404.3 35.2,404.3 Z" id="Shape"></path>
                        <path d="M258.9,399.9 L398.996094,399.9 C403.296094,413.9 416.296094,424.2 431.696094,424.2 C450.496094,424.2 465.896094,408.9 465.896094,390 C465.896094,371.1 450.596094,355.8 431.696094,355.8 C416.296094,355.8 403.296094,366 398.996094,380.1 L258.9,380.1 C249.3,380.1 241.6,372.3 241.6,362.8 L241.6,307.3 C241.6,301.8 237.2,297.4 231.7,297.4 C226.2,297.4 221.8,301.8 221.8,307.3 L221.8,362.8 C221.8,383.2 238.4,399.9 258.9,399.9 Z M433.996094,375.2 C441.896094,375.2 447.396094,381.6 447.396094,389.6 C447.396094,397.6 440.996094,404 432.996094,404 C424.996094,404 418.596094,397.6 418.596094,389.6 C418.596094,381.6 425.996094,375.2 433.996094,375.2 Z" id="Shape"></path>
                    </g>
                </g>
            </g>
            <text id="API" font-family="Whitney-BoldSC, Whitney" font-size="90" font-weight="bold">
                <tspan x="109.71" y="182">API</tspan>
            </text>
        </g>
    </g>
</svg>