<?xml version="1.0" encoding="UTF-8"?>
<svg width="1412px" height="893px" viewBox="0 0 1412 893" version="1.1" xmlns="http://www.w3.org/2000/svg" xmlns:xlink="http://www.w3.org/1999/xlink">
    <!-- Generator: Sketch 48.2 (47327) - http://www.bohemiancoding.com/sketch -->
    <title>branding</title>
    <desc>Created with Sketch.</desc>
    <defs>
        <linearGradient x1="50%" y1="0%" x2="50%" y2="100%" id="linearGradient-1">
            <stop stop-color="#FFFFFF" offset="0%"></stop>
            <stop stop-color="#FFFFFF" offset="97.9571907%"></stop>
        </linearGradient>
        <path d="M33.9862846,0.806825672 L67.947821,0.807669913 C70.6646385,0.807737995 72.8842525,2.97720458 72.9463944,5.69331132 C73.2675149,19.7288881 80.2894267,26.9102586 94.0121297,27.2374228 C116.862619,27.7822035 218.77776,27.2460152 238.845411,27.2460152 C250.947584,27.2460152 257.281914,20.0344925 257.8484,5.61144706 L257.848403,5.61144718 C257.953781,2.92848652 260.159395,0.807747747 262.844424,0.807681089 L297.613396,0.805993701 C315.94925,0.805538495 330.813766,15.6693161 330.814221,34.0051702 C330.814221,34.005445 330.814221,34.0057197 330.814221,34.0059945 L330.813397,685.393848 C330.813397,703.729702 315.94925,718.593849 297.613396,718.593849 L33.9862847,718.593849 C15.6504305,718.593849 0.786283892,703.729702 0.786283892,685.393848 L0.785451921,34.0059945 C0.785451921,15.6701403 15.6495986,0.805993691 33.9854527,0.805993691 C33.98573,0.805993691 33.9860073,0.805993694 33.9862847,0.805993701 Z" id="path-2"></path>
    </defs>
    <g id="Icons" stroke="none" stroke-width="1" fill="none" fill-rule="evenodd">
        <g id="branding">
            <g id="Group-11">
                <g id="Macbook" fill="#6C84FA">
                    <path d="M766.768362,759.470588 L765.536723,758.235294 L765.536723,767.5 C765.536723,771.946015 761.963517,775.529412 757.507018,775.529412 L560.492982,775.529412 C556.044502,775.529412 552.463277,771.956414 552.463277,767.5 L552.463277,758.235294 L551.231638,759.470588 L766.768362,759.470588 Z M550,757 L550,758.235294 L550,767.5 C550,773.323802 554.686966,778 560.492982,778 L757.507018,778 C763.323883,778 768,773.310547 768,767.5 L768,758.235294 L768,757 L766.768362,757 L551.231638,757 L550,757 Z" id="Rectangle-13" fill-rule="nonzero"></path>
                    <path d="M1167.65859,6.16260163 C1193.16177,6.16260163 1213.84211,26.873679 1213.84211,52.4114524 L1213.84211,705.588548 C1213.84211,731.131957 1193.15916,751.837398 1167.6432,751.837398 C1165.907,751.837398 1164.52851,753.216944 1164.52851,754.918699 C1164.52851,756.620455 1165.907,758 1167.60746,758 C1196.56052,758 1220,734.535022 1220,705.588548 L1220,52.4114524 C1220,23.4711631 1196.56368,0 1167.65859,0 L1106.07895,0 C1104.37849,0 1103,1.37954536 1103,3.08130081 C1103,4.78305626 1104.37849,6.16260163 1106.07895,6.16260163 L1167.65859,6.16260163 Z" id="Rectangle-11" fill-rule="nonzero"></path>
                    <path d="M151.341407,0 C122.436319,0 99,23.4711631 99,52.4114524 L99,705.588548 C99,734.535022 122.43948,758 151.356798,758 C153.092995,758 154.471487,756.620455 154.471487,754.918699 C154.471487,753.216944 153.092995,751.837398 151.39254,751.837398 C125.840837,751.837398 105.157895,731.131957 105.157895,705.588548 L105.157895,52.4114524 C105.157895,26.873679 125.838226,6.16260163 151.341407,6.16260163 L212.921053,6.16260163 C214.621508,6.16260163 216,4.78305626 216,3.08130081 C216,1.37954536 214.621508,0 212.921053,0 L151.341407,0 Z" id="Rectangle-11" fill-rule="nonzero"></path>
                    <polygon id="Rectangle-14" points="145 752 1168 752 1168 758 145 758"></polygon>
                    <path d="M1167.76764,59.4648437 L1166.53528,686.767578 L157.23236,685.535156 L158.46472,58.2324219 L1167.76764,59.4648437 Z M156,686.767578 L1167.76764,688 L1169,58.2324219 L157.23236,57 L156,686.767578 Z" id="Rectangle-12" fill-rule="nonzero"></path>
                    <path d="M11.8596637,752 C-2.57944034,752 -4.26393879,759.96689 9.18130902,765.306565 C9.46495713,765.42432 10.0849024,765.67796 10.978067,766.03879 C12.4621941,766.638363 14.1756829,767.321103 16.0966522,768.075014 C21.5811824,770.227496 27.6324577,772.520475 34.075706,774.858048 C48.8311722,780.211246 63.4468203,784.969502 77.1520243,788.692037 C82.9539619,790.267929 89.2281625,791.635812 95.9058149,792.810311 C108.828995,795.083305 122.649393,796.541786 136.465988,797.35183 C141.299063,797.635185 145.787902,797.817382 149.818868,797.918666 C152.24429,797.979608 153.983361,798 154.9222,798 C156.622022,798 158,796.627007 158,794.933333 C158,793.23966 156.622022,791.866667 154.9222,791.866667 C154.033496,791.866667 152.345926,791.846879 149.974049,791.787282 C146.009518,791.687667 141.589089,791.508247 136.827566,791.229087 C123.231028,790.431944 109.638292,788.997489 96.9758796,786.77036 C90.4740708,785.626789 84.3809962,784.298395 78.7709709,782.774629 C65.2489898,779.10186 50.7889581,774.394266 36.181766,769.094861 C29.791229,766.776412 23.7894632,764.502193 18.352581,762.368412 C16.451056,761.622131 14.7565393,760.946951 13.2910104,760.354892 C12.4143814,760.000742 11.8106037,759.753716 11.5016434,759.625831 C9.16725334,758.698402 7.48175376,757.83719 6.49993646,757.115401 C6.17791176,756.878663 6.27563812,757.024232 6.0977314,757.865647 C5.92836255,758.666683 5.83337975,758.729343 6.26602207,758.618813 C7.47266592,758.310541 9.37809585,758.133333 11.8596637,758.133333 L147.689703,758.133333 C149.389525,758.133333 150.767503,756.76034 150.767503,755.066667 C150.767503,753.372993 149.389525,752 147.689703,752 L11.8596637,752 Z" id="Path-9" fill-rule="nonzero"></path>
                    <path d="M1305.21236,758.133333 C1307.67804,758.133333 1309.5682,758.310243 1310.76001,758.617296 C1311.17173,758.723369 1311.05653,758.646337 1310.89437,757.826697 C1310.72998,756.995807 1310.81725,756.867531 1310.48372,757.111748 C1309.49515,757.835588 1307.80578,758.697718 1305.5113,759.609131 C1305.16122,759.753716 1304.55756,760.000742 1303.6811,760.354892 C1302.21585,760.946951 1300.52166,761.622131 1298.6205,762.368412 C1293.18467,764.502193 1287.18406,766.776412 1280.79476,769.094861 C1266.19038,774.394266 1251.73313,779.10186 1238.21376,782.774629 C1232.60482,784.298395 1226.51291,785.626789 1220.01236,786.77036 C1207.35239,788.997489 1193.76227,790.431944 1180.16835,791.229087 C1175.40775,791.508247 1170.98817,791.687667 1167.0244,791.787282 C1164.65298,791.846879 1162.96574,791.866667 1162.07721,791.866667 C1160.37771,791.866667 1159,793.23966 1159,794.933333 C1159,796.627007 1160.37771,798 1162.07721,798 C1163.01586,798 1164.7546,797.979608 1167.17955,797.918666 C1171.20974,797.817382 1175.69772,797.635185 1180.52986,797.35183 C1194.34379,796.541786 1208.16153,795.083305 1221.08222,792.810311 C1227.75858,791.635812 1234.03157,790.267929 1239.83239,788.692037 C1253.53496,784.969502 1268.14779,780.211246 1282.90041,774.858048 C1289.34242,772.520475 1295.39253,770.227496 1300.876,768.075014 C1302.7966,767.321103 1304.50976,766.638363 1305.9936,766.03879 C1306.88659,765.67796 1307.50642,765.42432 1307.83118,765.289865 C1321.20292,759.978706 1319.62434,752 1305.21236,752 L1171.30883,752 C1169.60933,752 1168.23162,753.372993 1168.23162,755.066667 C1168.23162,756.76034 1169.60933,758.133333 1171.30883,758.133333 L1305.21236,758.133333 Z" id="Path-9-Copy" fill-rule="nonzero"></path>
                    <rect id="Rectangle-15" x="151" y="792" width="1017" height="6"></rect>
                    <rect id="Rectangle-15-Copy" x="151" y="0" width="1017" height="6"></rect>
                    <path d="M662,40 C665.313708,40 668,37.3137085 668,34 C668,30.6862915 665.313708,28 662,28 C658.686292,28 656,30.6862915 656,34 C656,37.3137085 658.686292,40 662,40 Z" id="Oval"></path>
                </g>
                <g id="Group-10" transform="translate(1032.000000, 131.000000)">
                    <g id="iPhone-X-Light">
                        <path d="M55.9987226,1.04415876 C26.9485456,1.04415876 3.39872408,24.5939802 3.39872408,53.6441572 L3.39872408,708.355843 C3.39872408,737.40602 26.9485456,760.955841 55.9987226,760.955841 L324.001277,760.955841 C353.051454,760.955841 376.601276,737.40602 376.601276,708.355843 L376.601276,53.6441572 C376.601276,24.5939802 353.051454,1.04415876 324.001277,1.04415876 L55.9987226,1.04415876 Z" id="Rectangle-3" stroke="#1B61AD" stroke-width="2"></path>
                        <path d="M58.5952153,9.30165615 C32.3064612,9.30165615 10.9952153,30.6129021 10.9952153,56.9016562 L10.9952153,704.098344 C10.9952153,730.387098 32.3064612,751.698344 58.5952153,751.698344 L320.004466,751.698344 C346.29322,751.698344 367.604466,730.387098 367.604466,704.098344 L367.604466,56.9016562 C367.604466,30.6129021 346.29322,9.30165615 320.004466,9.30165615 L58.5952153,9.30165615 Z" id="Rectangle-3" stroke="#1B61AD" stroke-width="2"></path>
                        <g id="Screen" transform="translate(24.000000, 21.000000)">
                            <mask id="mask-3" fill="white">
                                <use xlink:href="#path-2"></use>
                            </mask>
                            <use id="Mask" stroke="#1B61AD" stroke-width="2" fill="url(#linearGradient-1)" xlink:href="#path-2"></use>
                            <g id="diamond" opacity="0.699999988" mask="url(#mask-3)">
                                <g transform="translate(-627.000000, 1.000000)" id="Layer_1">
                                    <g>
                                        <polygon id="Shape" fill="#FFE182" points="836.315197 308.223742 594.5 1005.31845 1189 308.223742"></polygon>
                                        <g id="Group" fill="#FFCD73">
                                            <polygon id="Shape" points="245.99992 0.681548387 0 308.223742 352.684803 308.223742"></polygon>
                                            <polygon id="Shape" points="836.315197 308.223742 1189 308.223742 943.00008 0.681548387"></polygon>
                                            <polygon id="Shape" points="836.315197 308.223742 594.5 0.681548387 352.684803 308.223742"></polygon>
                                        </g>
                                        <polygon id="Shape" fill="#FFAA64" points="594.5 0.681548387 245.99992 0.681548387 352.684803 308.223742"></polygon>
                                        <polygon id="Shape" fill="#FFE182" points="943.00008 0.681548387 594.5 0.681548387 836.315197 308.223742"></polygon>
                                        <polygon id="Shape" fill="#FFAA64" points="352.684803 308.223742 594.5 1005.31845 836.315197 308.223742"></polygon>
                                        <polygon id="Shape" fill="#FF8C5A" points="0 308.223742 594.5 1005.31845 352.684803 308.223742"></polygon>
                                    </g>
                                </g>
                            </g>
                        </g>
                        <path d="M2,226.459779 L2.39872408,226.459779 L2.39872408,282.274448 L2,282.274448 C0.8954305,282.274448 -8.67738547e-17,281.379017 -2.22044605e-16,280.274448 L-2.22044605e-16,228.459779 C-3.57315355e-16,227.35521 0.8954305,226.459779 2,226.459779 Z" id="button-4" fill="#1B61AD"></path>
                        <path d="M2,156.641167 L2.39872408,156.641167 L2.39872408,212.455836 L2,212.455836 C0.8954305,212.455836 -8.67738547e-17,211.560405 -2.22044605e-16,210.455836 L-2.22044605e-16,158.641167 C-3.57315355e-16,157.536598 0.8954305,156.641167 2,156.641167 Z" id="button-3" fill="#1B61AD"></path>
                        <path d="M2,102.026025 L2.39872408,102.026025 L2.39872408,131.436025 L2,131.436025 C0.8954305,131.436025 1.3527075e-16,130.540595 0,129.436025 L0,104.026025 C-1.3527075e-16,102.921456 0.8954305,102.026025 2,102.026025 Z" id="button-2" fill="#1B61AD"></path>
                        <path d="M377.601276,175.246057 L378,175.246057 C379.104569,175.246057 380,176.141487 380,177.246057 L380,262.069401 C380,263.17397 379.104569,264.069401 378,264.069401 L377.601276,264.069401 L377.601276,175.246057 Z" id="button-1" fill="#1B61AD"></path>
                        <rect id="speaker" stroke="#1B61AD" x="167.611643" y="27.9069401" width="42.1770335" height="5.00157729" rx="2.50078864"></rect>
                        <ellipse id="camera" stroke="#1B61AD" cx="230.07815" cy="30.4077287" rx="5.99681021" ry="6.00157729"></ellipse>
                        <g id="Status-Bar" transform="translate(44.000000, 33.000000)">
                            <g id="Battery" transform="translate(276.333333, 3.000000)">
                                <rect id="Border" stroke="#000000" opacity="0.35" x="0.5" y="0.806666667" width="19.24" height="9.42666667" rx="2.66666675"></rect>
                                <path d="M21.16,3.68 C21.9003526,3.99167439 22.381795,4.71671738 22.381795,5.52 C22.381795,6.32328262 21.9003526,7.04832561 21.16,7.36 L21.16,3.68 Z M3.17333337,2.14666667 L17.0666666,2.14666667 C17.8030463,2.14666667 18.4,2.74362035 18.4,3.48000004 L18.4,7.55999996 C18.4,8.29637965 17.8030463,8.89333333 17.0666666,8.89333333 L3.17333337,8.89333333 C2.43695368,8.89333333 1.84,8.29637965 1.84,7.55999996 L1.84,3.48000004 C1.84,2.74362035 2.43695368,2.14666667 3.17333337,2.14666667 Z" id="Cap" fill="#000000" fill-rule="nonzero"></path>
                            </g>
                            <path d="M265.662424,5.30941745 C267.587789,5.3095018 269.43953,6.04930658 270.83492,7.37592523 C270.939997,7.47834517 271.107951,7.47705322 271.211439,7.37302893 L272.215875,6.35932505 C272.268276,6.30656422 272.297491,6.23509663 272.297057,6.16073682 C272.296622,6.08637701 272.266572,6.015256 272.213558,5.96311164 C268.551105,2.45319306 262.773163,2.45319306 259.110711,5.96311164 C259.057658,6.0152173 259.027556,6.08631671 259.027067,6.16067663 C259.026578,6.23503654 259.055741,6.30652586 259.108104,6.35932505 L260.11283,7.37302893 C260.216252,7.47721019 260.384335,7.47850314 260.489348,7.37592523 C261.884916,6.0492195 263.73687,5.30941259 265.662424,5.30941745 Z M265.662424,8.60743064 C266.720287,8.60736582 267.740399,9.00056631 268.524545,9.7106301 C268.630604,9.81140434 268.797675,9.80921957 268.901063,9.7057064 L269.90434,8.69200251 C269.957175,8.63883086 269.986491,8.56669889 269.985729,8.49174438 C269.984967,8.41678987 269.954191,8.34526885 269.900286,8.29318244 C267.512406,6.07196983 263.81447,6.07196983 261.42659,8.29318244 C261.372651,8.34526822 261.341877,8.41682507 261.341169,8.4918038 C261.340461,8.56678253 261.369879,8.63890765 261.422825,8.69200251 L262.425812,9.7057064 C262.5292,9.80921957 262.696271,9.81140434 262.802331,9.7106301 C263.585958,9.00103549 264.60526,8.60786866 265.662424,8.60743064 Z M267.590489,11.0267074 C267.644146,10.9740475 267.673695,10.9015803 267.67216,10.8264155 C267.670624,10.7512506 267.638141,10.6800503 267.582379,10.6296251 C266.474049,9.69219472 264.850799,9.69219472 263.742469,10.6296251 C263.686668,10.6800098 263.654132,10.7511876 263.652542,10.8263529 C263.650952,10.9015181 263.680449,10.9740082 263.73407,11.0267074 L265.46982,12.7780981 C265.520694,12.8295702 265.590053,12.8585378 265.662424,12.8585378 C265.734795,12.8585378 265.804154,12.8295702 265.855028,12.7780981 L267.590489,11.0267074 Z" id="Wifi" fill="#000000" fill-rule="nonzero"></path>
                            <path d="M240.882353,9.54901961 L241.764706,9.54901961 C242.252016,9.54901961 242.647059,9.94406248 242.647059,10.4313725 L242.647059,12.1960784 C242.647059,12.6833885 242.252016,13.0784314 241.764706,13.0784314 L240.882353,13.0784314 C240.395043,13.0784314 240,12.6833885 240,12.1960784 L240,10.4313725 C240,9.94406248 240.395043,9.54901961 240.882353,9.54901961 Z M245,7.78431373 L245.882353,7.78431373 C246.369663,7.78431373 246.764706,8.17935659 246.764706,8.66666667 L246.764706,12.1960784 C246.764706,12.6833885 246.369663,13.0784314 245.882353,13.0784314 L245,13.0784314 C244.51269,13.0784314 244.117647,12.6833885 244.117647,12.1960784 L244.117647,8.66666667 C244.117647,8.17935659 244.51269,7.78431373 245,7.78431373 Z M249.117647,5.7254902 L250,5.7254902 C250.48731,5.7254902 250.882353,6.12053306 250.882353,6.60784314 L250.882353,12.1960784 C250.882353,12.6833885 250.48731,13.0784314 250,13.0784314 L249.117647,13.0784314 C248.630337,13.0784314 248.235294,12.6833885 248.235294,12.1960784 L248.235294,6.60784314 C248.235294,6.12053306 248.630337,5.7254902 249.117647,5.7254902 Z M253.235294,3.66666667 L254.117647,3.66666667 C254.604957,3.66666667 255,4.06170953 255,4.54901961 L255,12.1960784 C255,12.6833885 254.604957,13.0784314 254.117647,13.0784314 L253.235294,13.0784314 C252.747984,13.0784314 252.352941,12.6833885 252.352941,12.1960784 L252.352941,4.54901961 C252.352941,4.06170953 252.747984,3.66666667 253.235294,3.66666667 Z" id="Cellular" fill="#000000" fill-rule="nonzero"></path>
                            <text id="9:41" font-family=".AppleSystemUIFont" font-size="14" font-weight="normal" letter-spacing="-0.280000001" fill="#000000">
                                <tspan x="9.44337766" y="14.6219372">9:4</tspan>
                                <tspan x="30.2391198" y="14.6219372">1</tspan>
                            </text>
                        </g>
                    </g>
                </g>
            </g>
            <g id="diamond" transform="translate(406.000000, 139.000000)">
                <g id="Layer_1">
                    <polygon id="Shape" fill="#FFE182" points="422.026172 156.145719 300 508.150885 600 156.145719"></polygon>
                    <g id="Group" fill="#FFCD73">
                        <polygon id="Shape" points="124.137891 0.849115207 0 156.145719 177.973828 156.145719"></polygon>
                        <polygon id="Shape" points="422.026172 156.145719 600 156.145719 475.862109 0.849115207"></polygon>
                        <polygon id="Shape" points="422.026172 156.145719 300 0.849115207 177.973828 156.145719"></polygon>
                    </g>
                    <polygon id="Shape" fill="#FFAA64" points="300 0.849115207 124.137891 0.849115207 177.973828 156.145719"></polygon>
                    <polygon id="Shape" fill="#FFE182" points="475.862109 0.849115207 300 0.849115207 422.026172 156.145719"></polygon>
                    <polygon id="Shape" fill="#FFAA64" points="177.973828 156.145719 300 508.150885 422.026172 156.145719"></polygon>
                    <polygon id="Shape" fill="#FF8C5A" points="0 156.145719 300 508.150885 177.973828 156.145719"></polygon>
                </g>
            </g>
            <g id="Group-14" transform="translate(536.000000, 223.000000)">
                <circle id="Oval-2" stroke="#CAD3FF" stroke-width="20" fill="#FFFFFF" cx="170" cy="170" r="170"></circle>
                <path d="M114,233.059463 L114,107.944594 C114,96.4722274 126.421597,89.2844793 136.358874,95.0106519 L244.506904,157.077557 C254.464216,162.783708 254.504286,177.119161 244.587044,182.905399 L136.439013,245.93334 C126.501736,251.759621 114,244.571873 114,233.059463 Z" id="Shape" fill="#CAD3FF"></path>
            </g>
            <g id="Group-12" transform="translate(1116.000000, 410.000000)">
                <g id="Group-15">
                    <circle id="Oval-2" stroke="#CAD3FF" stroke-width="14" fill="#FFFFFF" cx="107.5" cy="107.5" r="107.5"></circle>
                    <path d="M72,148.457334 L72,68.5452569 C72,61.2177452 79.8310066,56.626861 86.0958119,60.2842228 L154.276092,99.926956 C160.553528,103.57153 160.578789,112.727722 154.326614,116.423448 L86.1463345,156.680004 C79.8815292,160.401306 72,155.810422 72,148.457334 Z" id="Shape" fill="#CAD3FF"></path>
                </g>
            </g>
        </g>
    </g>
</svg>