<?xml version="1.0" encoding="UTF-8"?>
<svg width="694px" height="142px" viewBox="0 0 694 142" version="1.1" xmlns="http://www.w3.org/2000/svg" xmlns:xlink="http://www.w3.org/1999/xlink">
    <!-- Generator: Sketch 48.2 (47327) - http://www.bohemiancoding.com/sketch -->
    <title>contentful-logo</title>
    <desc>Created with Sketch.</desc>
    <defs></defs>
    <g id="Page-1" stroke="none" stroke-width="1" fill="none" fill-rule="evenodd">
        <g id="contentful-logo" fill-rule="nonzero">
            <g id="Group">
                <path d="M42.8,98.9 C35.6,91.7 31.2,81.8 31.2,70.8 C31.2,59.8 35.6,49.9 42.8,42.7 C48.9,36.6 48.9,26.7 42.8,20.7 C36.7,14.6 26.8,14.6 20.8,20.7 C7.9,33.6 0,51.3 0,70.9 C0,90.5 7.9,108.2 20.8,121 C26.9,127.1 36.8,127.1 42.8,121 C48.9,114.9 48.9,105 42.8,98.9 C42.8,98.9 42.8,98.9 42.8,98.9 Z" id="Shape" fill="#F9E400"></path>
                <path d="M42.8,42.8 C50,35.6 59.9,31.2 70.9,31.2 C81.9,31.2 91.8,35.6 99,42.8 C105.1,48.9 115,48.9 121,42.8 C127.1,36.7 127.1,26.8 121,20.8 C108.2,7.9 90.4,0 70.9,0 C51.3,0 33.6,7.9 20.8,20.8 C14.7,26.9 14.7,36.8 20.8,42.8 C26.8,48.9 36.7,48.9 42.8,42.8 C42.8,42.8 42.8,42.8 42.8,42.8 Z" id="Shape" fill="#50B6E2"></path>
                <path d="M98.9,98.9 C91.7,106.1 81.8,110.5 70.8,110.5 C59.8,110.5 49.9,106.1 42.7,98.9 C36.6,92.8 26.7,92.8 20.7,98.9 C14.6,105 14.6,114.9 20.7,120.9 C33.5,133.7 51.2,141.7 70.8,141.7 C90.4,141.7 108.1,133.8 120.9,120.9 C127,114.8 127,104.9 120.9,98.9 C114.9,92.8 105,92.8 98.9,98.9 C98.9,98.9 98.9,98.9 98.9,98.9 Z" id="Shape" fill="#F15851"></path>
                <path d="M42.8,42.8 C36.7,48.9 26.8,48.9 20.8,42.8 C14.7,36.7 14.7,26.8 20.8,20.8 C26.9,14.7 36.8,14.7 42.8,20.8 C48.9,26.8 48.9,36.7 42.8,42.8 Z" id="Shape" fill="#0A83B8"></path>
                <path d="M42.8,121 C36.7,127.1 26.8,127.1 20.8,121 C14.7,114.9 14.7,105 20.8,99 C26.9,92.9 36.8,92.9 42.8,99 C48.9,105 48.9,114.9 42.8,121 Z" id="Shape" fill="#CE4739"></path>
            </g>
            <path d="M190.6,85.5 C195.1,82 195.7,84 199.5,87.8 C201.4,89.7 206.6,93 203.2,95.8 C196.1,101.6 189.8,104.3 180.6,104.3 C160.1,104.3 145.5,89 146.6,68.8 C147.1,59.7 150.6,51.1 157.7,45.1 C164.2,39.6 172.3,37.2 180.7,37.4 C185,37.5 188.8,38.1 192.8,39.7 C195.4,40.7 197.9,41.9 200.1,43.6 C204.6,47 202.5,49.1 199,52.6 C198.2,53.4 197.5,54.2 196.7,55 C194.9,56.8 193.7,58.1 191.3,56.4 C186.7,53.3 180.9,51.6 175.4,53 C157.7,57.6 158.7,89.1 180.3,89.1 C184,89.1 187.8,87.7 190.6,85.5 Z M682.5,102.9 C679.5,102.9 677.1,100.5 677.1,97.5 L677.1,27.7 C677.1,24.7 679.5,22.3 682.5,22.3 L688.3,22.3 C691.3,22.3 693.7,24.7 693.7,27.7 L693.7,97.5 C693.7,100.5 691.3,102.9 688.3,102.9 L682.5,102.9 Z M652.2,94.9 C646,100.9 639.9,104 631,104 C613,104 604.3,89.1 604.3,72.4 L604.3,44 C604.3,41 606.7,38.6 609.7,38.6 L615.5,38.6 C618.5,38.6 620.9,41 620.9,44 L620.9,72.2 C620.9,81.5 625.9,88.8 635.8,88.8 C645.5,88.8 651.6,80.6 651.6,71.4 L651.6,61.3 C651.5,60.9 651.5,60.5 651.5,60.1 L651.5,44 C651.5,41 653.9,38.6 656.9,38.6 L662.7,38.6 C665.7,38.6 668.1,41 668.1,44 L668.1,97.5 C668.1,100.4 665.7,102.8 662.8,102.8 L657.9,102.8 C654.9,102.8 652.8,100.4 652.6,97.5 L652.2,94.9 Z M582.9,38.8 L594.1,38.8 C597.1,38.8 599.4,41.3 599.4,44.2 L599.4,48 C599.4,50.9 597,53.4 594.1,53.4 L582.9,53.4 L582.9,97.5 C582.9,100.5 580.5,102.9 577.5,102.9 L571.7,102.9 C568.7,102.9 566.3,100.5 566.3,97.5 L566.3,36.5 C566.3,23.2 573.8,12.7 587.4,11.4 C587.8,11.4 588.1,11.3 588.5,11.3 C589.3,11.2 590.1,11.2 590.9,11.3 L596.1,11.3 C599.1,11.3 601.4,13.8 601.4,16.7 L601.4,20.1 C601.4,23 599,25.5 596.1,25.5 L592.3,25.5 C592.2,25.5 592.1,25.5 591.9,25.5 C585.5,25.5 582.8,30.5 582.8,36.4 L582.8,38.8 L582.9,38.8 Z M542.7,38.8 L555,38.8 C557.9,38.8 560.3,41.2 560.3,44.1 L560.3,47.8 C560.3,50.7 557.9,53.1 555,53.1 L542.7,53.1 L542.7,80.1 C542.7,85.3 545.2,88.3 550.5,88.3 L553,88.3 C555.9,88.3 558.3,90.7 558.3,93.6 L558.3,97.3 C558.3,100.2 555.9,102.6 553,102.6 L548.3,102.6 C547.4,102.6 546.6,102.6 545.7,102.5 C532.4,101.7 526.4,93.1 526.4,80 C526.4,62.5 526.4,45.1 526.4,27.6 C526.4,24.7 528.8,22.3 531.7,22.3 L537.4,22.3 C540.3,22.3 542.7,24.7 542.7,27.6 L542.7,38.8 Z M364.9,38.8 L377.2,38.8 C380.1,38.8 382.5,41.2 382.5,44.1 L382.5,47.8 C382.5,50.7 380.1,53.1 377.2,53.1 L364.9,53.1 L364.9,80.1 C364.9,85.3 367.4,88.3 372.7,88.3 L375.2,88.3 C378.1,88.3 380.5,90.7 380.5,93.6 L380.5,97.3 C380.5,100.2 378.1,102.6 375.2,102.6 L371.5,102.6 C357,102.6 348.5,96.4 348.5,80.1 C348.5,62.6 348.5,45.2 348.5,27.7 C348.5,24.8 350.9,22.4 353.8,22.4 L359.5,22.4 C362.4,22.4 364.8,24.8 364.8,27.7 L364.8,38.8 L364.9,38.8 Z M292.8,46.6 C298.7,41 305,37.6 313.3,37.6 C331.3,37.6 340.6,52.3 340.6,69.2 L340.6,97.6 C340.6,100.6 338.2,103 335.2,103 L329.4,103 C326.4,103 324,100.6 324,97.6 L324,69.3 C324,60 319,52.7 309.1,52.7 C299.5,52.7 293.3,60.9 293.3,70 L293.3,97.5 C293.3,100.4 290.9,102.8 288,102.8 L282.3,102.8 C279.4,102.8 277,100.4 277,97.5 C277,80.4 277,63.2 277,46.1 L277,43.8 C277,40.9 279.4,38.5 282.3,38.5 L287.2,38.5 C290.2,38.5 292.3,41 292.5,43.8 L292.8,46.6 Z M470.9,46.6 C476.8,41 483.1,37.6 491.4,37.6 C509.4,37.6 518.7,52.3 518.7,69.2 L518.7,97.6 C518.7,100.6 516.3,103 513.3,103 L507.5,103 C504.5,103 502.1,100.6 502.1,97.6 L502.1,69.3 C502.1,60 497.1,52.7 487.2,52.7 C477.6,52.7 471.4,60.9 471.4,70 L471.4,97.5 C471.4,100.4 469,102.8 466.1,102.8 L460.4,102.8 C457.5,102.8 455.1,100.4 455.1,97.5 L455.1,43.8 C455.1,40.9 457.5,38.5 460.4,38.5 L465.3,38.5 C468.3,38.5 470.4,40.9 470.6,43.8 L470.9,46.6 Z M238.3,37.3 C218.8,37.3 205.1,51.5 205.1,70.8 C205.1,90.4 218.7,104.3 238.5,104.3 C258.2,104.3 272,90.4 272,70.8 C271.9,51.5 257.7,37.3 238.3,37.3 Z M400.4,76.8 C401.8,85.8 410.4,89.5 418.8,89.5 C422.8,89.5 427.4,88.5 431,86.8 C431.6,86.5 432.2,86.3 432.8,85.9 C434.8,84.7 436.6,84.1 438.4,85.9 C439.4,86.9 440.3,87.9 441.3,88.8 C442.2,89.7 443.1,90.6 443.9,91.7 C446.6,95.1 444.7,95.9 441.6,98 C435,102.4 426.4,104.6 418.5,104.6 C397.3,104.6 383.2,91.8 383.2,70.3 C383.2,50.1 397.2,36.7 417.3,36.7 C437.9,36.7 449.7,48.8 450,69.4 C450.1,75 450.4,76.8 444.5,76.8 L400.4,76.8 Z M238.4,52.5 C248.5,52.5 255.2,61.3 255.2,70.9 C255.2,81 249,89.1 238.4,89.1 C227.8,89.1 221.6,81 221.6,70.9 C221.6,60.9 227.9,52.5 238.4,52.5 Z M400.7,63 L433.9,63 C432.6,54.7 425.8,51.5 417.9,51.5 C409.9,51.4 403.1,55.2 400.7,63 Z" id="Shape" fill="#000000"></path>
        </g>
    </g>
</svg>