<?xml version="1.0" encoding="UTF-8"?>
<svg width="1570px" height="893px" viewBox="0 0 1570 893" version="1.1" xmlns="http://www.w3.org/2000/svg" xmlns:xlink="http://www.w3.org/1999/xlink">
    <!-- Generator: Sketch 48.2 (47327) - http://www.bohemiancoding.com/sketch -->
    <title>ecommerce</title>
    <desc>Created with Sketch.</desc>
    <defs>
        <linearGradient x1="50%" y1="0%" x2="50%" y2="100%" id="linearGradient-1">
            <stop stop-color="#FFFFFF" offset="0%"></stop>
            <stop stop-color="#FFFFFF" offset="100%"></stop>
        </linearGradient>
        <path d="M33.9862846,0.806825672 L67.947821,0.807669913 C70.6646385,0.807737995 72.8842525,2.97720458 72.9463944,5.69331132 C73.2675149,19.7288881 80.2894267,26.9102586 94.0121297,27.2374228 C116.862619,27.7822035 218.77776,27.2460152 238.845411,27.2460152 C250.947584,27.2460152 257.281914,20.0344925 257.8484,5.61144706 L257.848403,5.61144718 C257.953781,2.92848652 260.159395,0.807747747 262.844424,0.807681089 L297.613396,0.805993701 C315.94925,0.805538495 330.813766,15.6693161 330.814221,34.0051702 C330.814221,34.005445 330.814221,34.0057197 330.814221,34.0059945 L330.813397,685.393848 C330.813397,703.729702 315.94925,718.593849 297.613396,718.593849 L33.9862847,718.593849 C15.6504305,718.593849 0.786283892,703.729702 0.786283892,685.393848 L0.785451921,34.0059945 C0.785451921,15.6701403 15.6495986,0.805993691 33.9854527,0.805993691 C33.98573,0.805993691 33.9860073,0.805993694 33.9862847,0.805993701 Z" id="path-2"></path>
        <rect id="path-4" x="0" y="0" width="310" height="72" rx="21"></rect>
        <rect id="path-6" x="6" y="4" width="298" height="135" rx="4"></rect>
        <filter x="-1.3%" y="-1.5%" width="102.7%" height="105.9%" filterUnits="objectBoundingBox" id="filter-7">
            <feOffset dx="0" dy="2" in="SourceAlpha" result="shadowOffsetOuter1"></feOffset>
            <feGaussianBlur stdDeviation="1" in="shadowOffsetOuter1" result="shadowBlurOuter1"></feGaussianBlur>
            <feColorMatrix values="0 0 0 0 0   0 0 0 0 0   0 0 0 0 0  0 0 0 0.3 0" type="matrix" in="shadowBlurOuter1"></feColorMatrix>
        </filter>
        <rect id="path-8" x="0" y="0" width="300" height="135" rx="4"></rect>
        <filter x="-1.3%" y="-1.5%" width="102.7%" height="105.9%" filterUnits="objectBoundingBox" id="filter-9">
            <feOffset dx="0" dy="2" in="SourceAlpha" result="shadowOffsetOuter1"></feOffset>
            <feGaussianBlur stdDeviation="1" in="shadowOffsetOuter1" result="shadowBlurOuter1"></feGaussianBlur>
            <feColorMatrix values="0 0 0 0 0   0 0 0 0 0   0 0 0 0 0  0 0 0 0.3 0" type="matrix" in="shadowBlurOuter1"></feColorMatrix>
        </filter>
        <filter x="-88.2%" y="-88.2%" width="276.5%" height="276.5%" filterUnits="objectBoundingBox" id="filter-10">
            <feGaussianBlur stdDeviation="10" in="SourceGraphic"></feGaussianBlur>
        </filter>
        <rect id="path-11" x="0" y="0" width="298" height="99" rx="4"></rect>
        <filter x="-1.3%" y="-2.0%" width="102.7%" height="108.1%" filterUnits="objectBoundingBox" id="filter-12">
            <feOffset dx="0" dy="2" in="SourceAlpha" result="shadowOffsetOuter1"></feOffset>
            <feGaussianBlur stdDeviation="1" in="shadowOffsetOuter1" result="shadowBlurOuter1"></feGaussianBlur>
            <feColorMatrix values="0 0 0 0 0   0 0 0 0 0   0 0 0 0 0  0 0 0 0.3 0" type="matrix" in="shadowBlurOuter1"></feColorMatrix>
        </filter>
        <rect id="path-13" x="0" y="0" width="300" height="135" rx="4"></rect>
        <filter x="-1.3%" y="-1.5%" width="102.7%" height="105.9%" filterUnits="objectBoundingBox" id="filter-14">
            <feOffset dx="0" dy="2" in="SourceAlpha" result="shadowOffsetOuter1"></feOffset>
            <feGaussianBlur stdDeviation="1" in="shadowOffsetOuter1" result="shadowBlurOuter1"></feGaussianBlur>
            <feColorMatrix values="0 0 0 0 0   0 0 0 0 0   0 0 0 0 0  0 0 0 0.3 0" type="matrix" in="shadowBlurOuter1"></feColorMatrix>
        </filter>
    </defs>
    <g id="Icons" stroke="none" stroke-width="1" fill="none" fill-rule="evenodd">
        <g id="ecommerce">
            <g>
                <g id="Group" transform="translate(636.000000, 250.000000)">
                    <path d="M256.859375,226.698113 L105.765625,226.698113 C97.413918,226.698113 90.65625,219.931175 90.65625,211.584906 C90.65625,203.238637 97.413918,196.471698 105.765625,196.471698 L256.859375,196.471698 C265.211082,196.471698 271.96875,203.238637 271.96875,211.584906 C271.96875,219.931175 265.211082,226.698113 256.859375,226.698113 Z" id="Shape" fill="#6C84FA"></path>
                    <ellipse id="Oval" fill="#3A51C4" cx="256.859375" cy="211.584906" rx="30.21875" ry="30.2264151"></ellipse>
                    <path d="M273.045293,45.3774057 L61.514043,30.2641981 C56.6884863,29.9543774 51.8194902,31.9833255 48.706959,35.8145236 C45.5944277,39.6457217 44.5613242,44.7502075 45.9041699,49.4957547 L76.1229199,155.288208 C77.981373,161.773663 83.9136914,166.245283 90.65625,166.245283 L241.75,166.245283 C266.744684,166.245283 287.078125,145.906684 287.078125,120.90566 L287.078125,60.4528302 C287.078125,52.527842 280.955051,45.9441509 273.045293,45.3774057 Z" id="Shape" fill="#A6B4F5"></path>
                    <path d="M287.078125,30.2264151 L65.7899961,30.2264151 L59.7745762,10.6699245 C59.695252,10.4148892 59.4988301,10.2410873 59.4062852,9.99360849 C59.0379941,8.98102358 58.4676152,8.12712736 57.9029023,7.22789151 C57.409959,6.44389387 56.9963398,5.63722642 56.3806328,4.96846698 C55.740373,4.26948113 54.9641289,3.77263443 54.2011055,3.204 C53.3946426,2.60325 52.6467285,1.97416274 51.740166,1.54343632 C50.9733652,1.18071934 50.1404609,1.03525472 49.3094453,0.802889151 C48.2253477,0.496846698 47.1790234,0.194582547 46.036377,0.141686321 C45.7870723,0.130351415 45.5793184,0 45.328125,0 L15.109375,0 C6.75766797,0 0,6.76693868 0,15.1132075 C0,23.4594764 6.75766797,30.2264151 15.109375,30.2264151 L34.1641855,30.2264151 L91.3191738,216.028189 C93.326832,222.528757 99.3025898,226.70567 105.763736,226.70567 C107.22368,226.70567 108.728951,226.484639 110.205893,226.027465 C118.189309,223.577236 122.659795,215.121396 120.210187,207.143512 L75.0879277,60.4528302 L287.078125,60.4528302 C295.429832,60.4528302 302.1875,53.6858915 302.1875,45.3396226 C302.1875,36.9933538 295.429832,30.2264151 287.078125,30.2264151 Z" id="Shape" fill="#6C84FA"></path>
                    <ellipse id="Oval" fill="#3A51C4" cx="90.65625" cy="211.584906" rx="30.21875" ry="30.2264151"></ellipse>
                </g>
                <g id="Macbook" fill="#6C84FA">
                    <path d="M766.768362,759.470588 L765.536723,758.235294 L765.536723,767.5 C765.536723,771.946015 761.963517,775.529412 757.507018,775.529412 L560.492982,775.529412 C556.044502,775.529412 552.463277,771.956414 552.463277,767.5 L552.463277,758.235294 L551.231638,759.470588 L766.768362,759.470588 Z M550,757 L550,758.235294 L550,767.5 C550,773.323802 554.686966,778 560.492982,778 L757.507018,778 C763.323883,778 768,773.310547 768,767.5 L768,758.235294 L768,757 L766.768362,757 L551.231638,757 L550,757 Z" id="Rectangle-13" fill-rule="nonzero"></path>
                    <path d="M1167.65859,6.16260163 C1193.16177,6.16260163 1213.84211,26.873679 1213.84211,52.4114524 L1213.84211,705.588548 C1213.84211,731.131957 1193.15916,751.837398 1167.6432,751.837398 C1165.907,751.837398 1164.52851,753.216944 1164.52851,754.918699 C1164.52851,756.620455 1165.907,758 1167.60746,758 C1196.56052,758 1220,734.535022 1220,705.588548 L1220,52.4114524 C1220,23.4711631 1196.56368,0 1167.65859,0 L1106.07895,0 C1104.37849,0 1103,1.37954536 1103,3.08130081 C1103,4.78305626 1104.37849,6.16260163 1106.07895,6.16260163 L1167.65859,6.16260163 Z" id="Rectangle-11" fill-rule="nonzero"></path>
                    <path d="M151.341407,0 C122.436319,0 99,23.4711631 99,52.4114524 L99,705.588548 C99,734.535022 122.43948,758 151.356798,758 C153.092995,758 154.471487,756.620455 154.471487,754.918699 C154.471487,753.216944 153.092995,751.837398 151.39254,751.837398 C125.840837,751.837398 105.157895,731.131957 105.157895,705.588548 L105.157895,52.4114524 C105.157895,26.873679 125.838226,6.16260163 151.341407,6.16260163 L212.921053,6.16260163 C214.621508,6.16260163 216,4.78305626 216,3.08130081 C216,1.37954536 214.621508,0 212.921053,0 L151.341407,0 Z" id="Rectangle-11" fill-rule="nonzero"></path>
                    <polygon id="Rectangle-14" points="145 752 1168 752 1168 758 145 758"></polygon>
                    <path d="M1167.76764,59.4648437 L1166.53528,686.767578 L157.23236,685.535156 L158.46472,58.2324219 L1167.76764,59.4648437 Z M156,686.767578 L1167.76764,688 L1169,58.2324219 L157.23236,57 L156,686.767578 Z" id="Rectangle-12" fill-rule="nonzero"></path>
                    <path d="M11.8596637,752 C-2.57944034,752 -4.26393879,759.96689 9.18130902,765.306565 C9.46495713,765.42432 10.0849024,765.67796 10.978067,766.03879 C12.4621941,766.638363 14.1756829,767.321103 16.0966522,768.075014 C21.5811824,770.227496 27.6324577,772.520475 34.075706,774.858048 C48.8311722,780.211246 63.4468203,784.969502 77.1520243,788.692037 C82.9539619,790.267929 89.2281625,791.635812 95.9058149,792.810311 C108.828995,795.083305 122.649393,796.541786 136.465988,797.35183 C141.299063,797.635185 145.787902,797.817382 149.818868,797.918666 C152.24429,797.979608 153.983361,798 154.9222,798 C156.622022,798 158,796.627007 158,794.933333 C158,793.23966 156.622022,791.866667 154.9222,791.866667 C154.033496,791.866667 152.345926,791.846879 149.974049,791.787282 C146.009518,791.687667 141.589089,791.508247 136.827566,791.229087 C123.231028,790.431944 109.638292,788.997489 96.9758796,786.77036 C90.4740708,785.626789 84.3809962,784.298395 78.7709709,782.774629 C65.2489898,779.10186 50.7889581,774.394266 36.181766,769.094861 C29.791229,766.776412 23.7894632,764.502193 18.352581,762.368412 C16.451056,761.622131 14.7565393,760.946951 13.2910104,760.354892 C12.4143814,760.000742 11.8106037,759.753716 11.5016434,759.625831 C9.16725334,758.698402 7.48175376,757.83719 6.49993646,757.115401 C6.17791176,756.878663 6.27563812,757.024232 6.0977314,757.865647 C5.92836255,758.666683 5.83337975,758.729343 6.26602207,758.618813 C7.47266592,758.310541 9.37809585,758.133333 11.8596637,758.133333 L147.689703,758.133333 C149.389525,758.133333 150.767503,756.76034 150.767503,755.066667 C150.767503,753.372993 149.389525,752 147.689703,752 L11.8596637,752 Z" id="Path-9" fill-rule="nonzero"></path>
                    <path d="M1305.21236,758.133333 C1307.67804,758.133333 1309.5682,758.310243 1310.76001,758.617296 C1311.17173,758.723369 1311.05653,758.646337 1310.89437,757.826697 C1310.72998,756.995807 1310.81725,756.867531 1310.48372,757.111748 C1309.49515,757.835588 1307.80578,758.697718 1305.5113,759.609131 C1305.16122,759.753716 1304.55756,760.000742 1303.6811,760.354892 C1302.21585,760.946951 1300.52166,761.622131 1298.6205,762.368412 C1293.18467,764.502193 1287.18406,766.776412 1280.79476,769.094861 C1266.19038,774.394266 1251.73313,779.10186 1238.21376,782.774629 C1232.60482,784.298395 1226.51291,785.626789 1220.01236,786.77036 C1207.35239,788.997489 1193.76227,790.431944 1180.16835,791.229087 C1175.40775,791.508247 1170.98817,791.687667 1167.0244,791.787282 C1164.65298,791.846879 1162.96574,791.866667 1162.07721,791.866667 C1160.37771,791.866667 1159,793.23966 1159,794.933333 C1159,796.627007 1160.37771,798 1162.07721,798 C1163.01586,798 1164.7546,797.979608 1167.17955,797.918666 C1171.20974,797.817382 1175.69772,797.635185 1180.52986,797.35183 C1194.34379,796.541786 1208.16153,795.083305 1221.08222,792.810311 C1227.75858,791.635812 1234.03157,790.267929 1239.83239,788.692037 C1253.53496,784.969502 1268.14779,780.211246 1282.90041,774.858048 C1289.34242,772.520475 1295.39253,770.227496 1300.876,768.075014 C1302.7966,767.321103 1304.50976,766.638363 1305.9936,766.03879 C1306.88659,765.67796 1307.50642,765.42432 1307.83118,765.289865 C1321.20292,759.978706 1319.62434,752 1305.21236,752 L1171.30883,752 C1169.60933,752 1168.23162,753.372993 1168.23162,755.066667 C1168.23162,756.76034 1169.60933,758.133333 1171.30883,758.133333 L1305.21236,758.133333 Z" id="Path-9-Copy" fill-rule="nonzero"></path>
                    <rect id="Rectangle-15" x="151" y="792" width="1017" height="6"></rect>
                    <rect id="Rectangle-15-Copy" x="151" y="0" width="1017" height="6"></rect>
                    <path d="M662,40 C665.313708,40 668,37.3137085 668,34 C668,30.6862915 665.313708,28 662,28 C658.686292,28 656,30.6862915 656,34 C656,37.3137085 658.686292,40 662,40 Z" id="Oval"></path>
                </g>
                <g id="iPhone-X-Light" transform="translate(1032.000000, 131.000000)">
                    <path d="M55.9987226,1.04415876 C26.9485456,1.04415876 3.39872408,24.5939802 3.39872408,53.6441572 L3.39872408,708.355843 C3.39872408,737.40602 26.9485456,760.955841 55.9987226,760.955841 L324.001277,760.955841 C353.051454,760.955841 376.601276,737.40602 376.601276,708.355843 L376.601276,53.6441572 C376.601276,24.5939802 353.051454,1.04415876 324.001277,1.04415876 L55.9987226,1.04415876 Z" id="Rectangle-3" stroke="#1B61AD" stroke-width="2"></path>
                    <path d="M58.5952153,9.30165615 C32.3064612,9.30165615 10.9952153,30.6129021 10.9952153,56.9016562 L10.9952153,704.098344 C10.9952153,730.387098 32.3064612,751.698344 58.5952153,751.698344 L320.004466,751.698344 C346.29322,751.698344 367.604466,730.387098 367.604466,704.098344 L367.604466,56.9016562 C367.604466,30.6129021 346.29322,9.30165615 320.004466,9.30165615 L58.5952153,9.30165615 Z" id="Rectangle-3" stroke="#1B61AD" stroke-width="2"></path>
                    <g id="Screen" transform="translate(24.000000, 21.000000)">
                        <mask id="mask-3" fill="white">
                            <use xlink:href="#path-2"></use>
                        </mask>
                        <use id="Mask" stroke="#1B61AD" stroke-width="2" fill="url(#linearGradient-1)" xlink:href="#path-2"></use>
                        <g id="Cards" mask="url(#mask-3)">
                            <g transform="translate(14.000000, 279.000000)">
                                <g id="Card-3" transform="translate(0.000000, 360.000000)">
                                    <mask id="mask-5" fill="white">
                                        <use xlink:href="#path-4"></use>
                                    </mask>
                                    <use fill="#FFFFFF" xlink:href="#path-4"></use>
                                    <g mask="url(#mask-5)">
                                        <use fill="black" fill-opacity="1" filter="url(#filter-7)" xlink:href="#path-6"></use>
                                        <use fill="#FFFFFF" fill-rule="evenodd" xlink:href="#path-6"></use>
                                    </g>
                                    <circle id="Marker" fill="#78EAD1" mask="url(#mask-5)" cx="22.5" cy="23.5" r="7.5"></circle>
                                    <g id="Content" mask="url(#mask-5)">
                                        <g transform="translate(69.000000, 28.000000)">
                                            <text id="YEAR-TO-DATE" opacity="0.5" font-family=".AppleSystemUIFont" font-size="10" font-weight="normal" letter-spacing="-0.166666687">
                                                <tspan x="51.3970354" y="83" fill="#4A4A4A">YEAR TO DATE</tspan>
                                            </text>
                                            <text id="$38,285" font-family="Whitney-BoldSC, Whitney" font-size="36" font-weight="bold" letter-spacing="-0.600000024">
                                                <tspan x="28.7460001" y="56" fill="#4A4A4A">$38,285</tspan>
                                            </text>
                                            <text id="MONEY-MARKET" font-family="Whitney-BoldSC, Whitney" font-size="14" font-weight="bold" letter-spacing="-0.233333349">
                                                <tspan x="34.0450001" y="13" fill="#50E3C2">MONEY MARKET</tspan>
                                            </text>
                                        </g>
                                    </g>
                                </g>
                                <g id="Card-2" transform="translate(4.000000, 207.000000)">
                                    <g>
                                        <use fill="black" fill-opacity="1" filter="url(#filter-9)" xlink:href="#path-8"></use>
                                        <use fill="#FFFFFF" fill-rule="evenodd" xlink:href="#path-8"></use>
                                    </g>
                                    <circle id="Marker" fill="#F9A7E8" cx="19.5" cy="16.5" r="7.5"></circle>
                                    <g id="Content" transform="translate(68.000000, 24.000000)" font-family="Whitney-BoldSC, Whitney" font-weight="bold">
                                        <text id="YEAR-TO-DATE" opacity="0.5" font-size="10" letter-spacing="-0.166666687" fill="#4A4A4A">
                                            <tspan x="50.3477479" y="83">YEAR TO DATE</tspan>
                                        </text>
                                        <text id="$24,132" font-size="36" letter-spacing="-0.600000024" fill="#4A4A4A">
                                            <tspan x="28.9900001" y="56">$24,132</tspan>
                                        </text>
                                        <text id="SAVINGS" font-size="14" letter-spacing="-0.233333349" fill="#F9A7E8">
                                            <tspan x="55.6446667" y="13">SAVINGS</tspan>
                                        </text>
                                    </g>
                                </g>
                                <g id="Card-1" transform="translate(12.000000, 0.000000)">
                                    <circle id="Marker" fill="#C3DFF7" cx="7.5" cy="61.5" r="7.5"></circle>
                                    <circle id="Interaction-Shadow" fill-opacity="0.5" fill="#000000" filter="url(#filter-10)" cx="265" cy="37" r="17"></circle>
                                    <circle id="Show-Interaction" fill="#50E3C2" cx="265" cy="25" r="25"></circle>
                                    <g id="Hand" transform="translate(257.000000, 19.000000)" fill="#FFFFFF">
                                        <path d="M13.48225,12.522 L10.01725,11.3661667 L10.01725,6.667 C10.01725,5.74783333 9.26891667,5.00033333 8.35058333,5.00033333 C7.43058333,5.00033333 6.68391667,5.74783333 6.68391667,6.667 L6.68391667,14.4995 C5.45475,12.8561667 4.65058333,12.5003333 3.76725,12.5003333 C2.60808333,12.5003333 2.40225,13.897 3.00391667,14.8145 L6.33725,19.8145 C6.41391667,19.9295 6.54391667,20.0003333 6.68391667,20.0003333 L13.3505833,20.0003333 C13.5514167,20.0003333 13.7239167,19.8561667 13.7605833,19.6578333 L14.5889167,15.0936667 C14.8189167,14.1003333 14.5680833,12.8703333 13.48225,12.522" id="Fill-1580"></path>
                                        <path d="M13.3504167,0 L3.35041667,0 C1.51208333,0 0.0170833333,1.495 0.0170833333,3.33333333 L0.0170833333,7.91666667 C0.0170833333,9.755 1.51208333,11.25 3.35041667,11.25 L3.76708333,11.25 C4.22708333,11.25 4.60041667,10.8766667 4.60041667,10.4166667 C4.60041667,9.95666667 4.22708333,9.58333333 3.76708333,9.58333333 L3.35041667,9.58333333 C2.43041667,9.58333333 1.68375,8.83583333 1.68375,7.91666667 L1.68375,3.33333333 C1.68375,2.41416667 2.43041667,1.66666667 3.35041667,1.66666667 L13.3504167,1.66666667 C14.26875,1.66666667 15.0170833,2.41416667 15.0170833,3.33333333 L15.0170833,7.91666667 C15.0170833,8.83583333 14.26875,9.58333333 13.3504167,9.58333333 L12.93375,9.58333333 C12.4729167,9.58333333 12.1004167,9.95666667 12.1004167,10.4166667 C12.1004167,10.8766667 12.4729167,11.25 12.93375,11.25 L13.3504167,11.25 C15.1879167,11.25 16.68375,9.755 16.68375,7.91666667 L16.68375,3.33333333 C16.68375,1.495 15.1879167,0 13.3504167,0" id="Fill-1581"></path>
                                    </g>
                                    <g id="Content" transform="translate(93.000000, 75.000000)" font-family="Whitney-BoldSC, Whitney" font-weight="bold">
                                        <text id="YEAR-TO-DATE" opacity="0.5" font-size="10" letter-spacing="-0.166666687" fill="#4A4A4A">
                                            <tspan x="18.1000001" y="86">YEAR TO DATE</tspan>
                                        </text>
                                        <text id="$8,349" font-size="36" letter-spacing="-0.600000024" fill="#4A4A4A">
                                            <tspan x="0.136000072" y="57">$8,349</tspan>
                                        </text>
                                        <text id="CHECKING" font-size="14" letter-spacing="-0.233333349" fill="#75AFE2">
                                            <tspan x="15.4803334" y="13">CHECKING</tspan>
                                        </text>
                                    </g>
                                </g>
                            </g>
                        </g>
                        <g id="Cards" mask="url(#mask-3)">
                            <g transform="translate(18.000000, 62.000000)">
                                <g id="Card-3" transform="translate(2.000000, 310.000000)">
                                    <g>
                                        <use fill="black" fill-opacity="1" filter="url(#filter-12)" xlink:href="#path-11"></use>
                                        <use fill="#FFFFFF" fill-rule="evenodd" xlink:href="#path-11"></use>
                                    </g>
                                    <circle id="Marker" fill="#78EAD1" cx="16.5" cy="19.5" r="7.5"></circle>
                                    <g id="Content" transform="translate(63.000000, 24.000000)">
                                        <text id="YEAR-TO-DATE" opacity="0.5" font-family=".AppleSystemUIFont" font-size="10" font-weight="normal" letter-spacing="-0.166666687" fill="#4A4A4A">
                                            <tspan x="51.3970354" y="83">YEAR TO DATE</tspan>
                                        </text>
                                        <text id="$38,285" font-family="Whitney-BoldSC, Whitney" font-size="36" font-weight="bold" letter-spacing="-0.600000024" fill="#4A4A4A">
                                            <tspan x="28.7460001" y="56">$38,285</tspan>
                                        </text>
                                        <text id="MONEY-MARKET" font-family="Whitney-BoldSC, Whitney" font-size="14" font-weight="bold" letter-spacing="-0.233333349" fill="#50E3C2">
                                            <tspan x="34.0450001" y="13">MONEY MARKET</tspan>
                                        </text>
                                    </g>
                                </g>
                                <g id="Card-2" transform="translate(0.000000, 153.000000)">
                                    <g>
                                        <use fill="black" fill-opacity="1" filter="url(#filter-14)" xlink:href="#path-13"></use>
                                        <use fill="#FFFFFF" fill-rule="evenodd" xlink:href="#path-13"></use>
                                    </g>
                                    <circle id="Marker" fill="#F9A7E8" cx="19.5" cy="16.5" r="7.5"></circle>
                                    <g id="Content" transform="translate(68.000000, 24.000000)" font-family="Whitney-BoldSC, Whitney" font-weight="bold">
                                        <text id="YEAR-TO-DATE" opacity="0.5" font-size="10" letter-spacing="-0.166666687" fill="#4A4A4A">
                                            <tspan x="50.3477479" y="83">YEAR TO DATE</tspan>
                                        </text>
                                        <text id="$24,132" font-size="36" letter-spacing="-0.600000024" fill="#4A4A4A">
                                            <tspan x="28.9900001" y="56">$24,132</tspan>
                                        </text>
                                        <text id="SAVINGS" font-size="14" letter-spacing="-0.233333349" fill="#F9A7E8">
                                            <tspan x="55.6446667" y="13">SAVINGS</tspan>
                                        </text>
                                    </g>
                                </g>
                                <g id="Card-1" transform="translate(8.000000, 0.000000)">
                                    <circle id="Marker" fill="#C3DFF7" cx="7.5" cy="7.5" r="7.5"></circle>
                                    <g id="Content" transform="translate(93.000000, 21.000000)" font-family="Whitney-BoldSC, Whitney" font-weight="bold">
                                        <text id="YEAR-TO-DATE" opacity="0.5" font-size="10" letter-spacing="-0.166666687" fill="#4A4A4A">
                                            <tspan x="18.1000001" y="86">YEAR TO DATE</tspan>
                                        </text>
                                        <text id="$8,349" font-size="36" letter-spacing="-0.600000024" fill="#4A4A4A">
                                            <tspan x="0.136000072" y="57">$8,349</tspan>
                                        </text>
                                        <text id="CHECKING" font-size="14" letter-spacing="-0.233333349" fill="#75AFE2">
                                            <tspan x="15.4803334" y="13">CHECKING</tspan>
                                        </text>
                                    </g>
                                </g>
                            </g>
                        </g>
                    </g>
                    <path d="M2,226.459779 L2.39872408,226.459779 L2.39872408,282.274448 L2,282.274448 C0.8954305,282.274448 -8.67738547e-17,281.379017 -2.22044605e-16,280.274448 L-2.22044605e-16,228.459779 C-3.57315355e-16,227.35521 0.8954305,226.459779 2,226.459779 Z" id="button-4" fill="#1B61AD"></path>
                    <path d="M2,156.641167 L2.39872408,156.641167 L2.39872408,212.455836 L2,212.455836 C0.8954305,212.455836 -8.67738547e-17,211.560405 -2.22044605e-16,210.455836 L-2.22044605e-16,158.641167 C-3.57315355e-16,157.536598 0.8954305,156.641167 2,156.641167 Z" id="button-3" fill="#1B61AD"></path>
                    <path d="M2,102.026025 L2.39872408,102.026025 L2.39872408,131.436025 L2,131.436025 C0.8954305,131.436025 1.3527075e-16,130.540595 0,129.436025 L0,104.026025 C-1.3527075e-16,102.921456 0.8954305,102.026025 2,102.026025 Z" id="button-2" fill="#1B61AD"></path>
                    <path d="M377.601276,175.246057 L378,175.246057 C379.104569,175.246057 380,176.141487 380,177.246057 L380,262.069401 C380,263.17397 379.104569,264.069401 378,264.069401 L377.601276,264.069401 L377.601276,175.246057 Z" id="button-1" fill="#1B61AD"></path>
                    <rect id="speaker" stroke="#1B61AD" x="167.611643" y="27.9069401" width="42.1770335" height="5.00157729" rx="2.50078864"></rect>
                    <ellipse id="camera" stroke="#1B61AD" cx="230.07815" cy="30.4077287" rx="5.99681021" ry="6.00157729"></ellipse>
                    <g id="Status-Bar" transform="translate(44.000000, 33.000000)">
                        <g id="Battery" transform="translate(276.333333, 3.000000)">
                            <rect id="Border" stroke="#000000" opacity="0.35" x="0.5" y="0.806666667" width="19.24" height="9.42666667" rx="2.66666675"></rect>
                            <path d="M21.16,3.68 C21.9003526,3.99167439 22.381795,4.71671738 22.381795,5.52 C22.381795,6.32328262 21.9003526,7.04832561 21.16,7.36 L21.16,3.68 Z M3.17333337,2.14666667 L17.0666666,2.14666667 C17.8030463,2.14666667 18.4,2.74362035 18.4,3.48000004 L18.4,7.55999996 C18.4,8.29637965 17.8030463,8.89333333 17.0666666,8.89333333 L3.17333337,8.89333333 C2.43695368,8.89333333 1.84,8.29637965 1.84,7.55999996 L1.84,3.48000004 C1.84,2.74362035 2.43695368,2.14666667 3.17333337,2.14666667 Z" id="Cap" fill="#000000" fill-rule="nonzero"></path>
                        </g>
                        <path d="M265.662424,5.30941745 C267.587789,5.3095018 269.43953,6.04930658 270.83492,7.37592523 C270.939997,7.47834517 271.107951,7.47705322 271.211439,7.37302893 L272.215875,6.35932505 C272.268276,6.30656422 272.297491,6.23509663 272.297057,6.16073682 C272.296622,6.08637701 272.266572,6.015256 272.213558,5.96311164 C268.551105,2.45319306 262.773163,2.45319306 259.110711,5.96311164 C259.057658,6.0152173 259.027556,6.08631671 259.027067,6.16067663 C259.026578,6.23503654 259.055741,6.30652586 259.108104,6.35932505 L260.11283,7.37302893 C260.216252,7.47721019 260.384335,7.47850314 260.489348,7.37592523 C261.884916,6.0492195 263.73687,5.30941259 265.662424,5.30941745 Z M265.662424,8.60743064 C266.720287,8.60736582 267.740399,9.00056631 268.524545,9.7106301 C268.630604,9.81140434 268.797675,9.80921957 268.901063,9.7057064 L269.90434,8.69200251 C269.957175,8.63883086 269.986491,8.56669889 269.985729,8.49174438 C269.984967,8.41678987 269.954191,8.34526885 269.900286,8.29318244 C267.512406,6.07196983 263.81447,6.07196983 261.42659,8.29318244 C261.372651,8.34526822 261.341877,8.41682507 261.341169,8.4918038 C261.340461,8.56678253 261.369879,8.63890765 261.422825,8.69200251 L262.425812,9.7057064 C262.5292,9.80921957 262.696271,9.81140434 262.802331,9.7106301 C263.585958,9.00103549 264.60526,8.60786866 265.662424,8.60743064 Z M267.590489,11.0267074 C267.644146,10.9740475 267.673695,10.9015803 267.67216,10.8264155 C267.670624,10.7512506 267.638141,10.6800503 267.582379,10.6296251 C266.474049,9.69219472 264.850799,9.69219472 263.742469,10.6296251 C263.686668,10.6800098 263.654132,10.7511876 263.652542,10.8263529 C263.650952,10.9015181 263.680449,10.9740082 263.73407,11.0267074 L265.46982,12.7780981 C265.520694,12.8295702 265.590053,12.8585378 265.662424,12.8585378 C265.734795,12.8585378 265.804154,12.8295702 265.855028,12.7780981 L267.590489,11.0267074 Z" id="Wifi" fill="#000000" fill-rule="nonzero"></path>
                        <path d="M240.882353,9.54901961 L241.764706,9.54901961 C242.252016,9.54901961 242.647059,9.94406248 242.647059,10.4313725 L242.647059,12.1960784 C242.647059,12.6833885 242.252016,13.0784314 241.764706,13.0784314 L240.882353,13.0784314 C240.395043,13.0784314 240,12.6833885 240,12.1960784 L240,10.4313725 C240,9.94406248 240.395043,9.54901961 240.882353,9.54901961 Z M245,7.78431373 L245.882353,7.78431373 C246.369663,7.78431373 246.764706,8.17935659 246.764706,8.66666667 L246.764706,12.1960784 C246.764706,12.6833885 246.369663,13.0784314 245.882353,13.0784314 L245,13.0784314 C244.51269,13.0784314 244.117647,12.6833885 244.117647,12.1960784 L244.117647,8.66666667 C244.117647,8.17935659 244.51269,7.78431373 245,7.78431373 Z M249.117647,5.7254902 L250,5.7254902 C250.48731,5.7254902 250.882353,6.12053306 250.882353,6.60784314 L250.882353,12.1960784 C250.882353,12.6833885 250.48731,13.0784314 250,13.0784314 L249.117647,13.0784314 C248.630337,13.0784314 248.235294,12.6833885 248.235294,12.1960784 L248.235294,6.60784314 C248.235294,6.12053306 248.630337,5.7254902 249.117647,5.7254902 Z M253.235294,3.66666667 L254.117647,3.66666667 C254.604957,3.66666667 255,4.06170953 255,4.54901961 L255,12.1960784 C255,12.6833885 254.604957,13.0784314 254.117647,13.0784314 L253.235294,13.0784314 C252.747984,13.0784314 252.352941,12.6833885 252.352941,12.1960784 L252.352941,4.54901961 C252.352941,4.06170953 252.747984,3.66666667 253.235294,3.66666667 Z" id="Cellular" fill="#000000" fill-rule="nonzero"></path>
                        <text id="9:41" font-family=".AppleSystemUIFont" font-size="14" font-weight="normal" letter-spacing="-0.280000001" fill="#000000">
                            <tspan x="9.44337766" y="14.6219372">9:4</tspan>
                            <tspan x="30.2391198" y="14.6219372">1</tspan>
                        </text>
                    </g>
                </g>
                <g id="Group-9" transform="translate(1112.000000, 311.000000)">
                    <path d="M421.894737,334.28125 L35.1578947,334.28125 C15.7408487,334.28125 0,318.527146 0,299.09375 L0,35.1875 C0,15.7541035 15.7408487,0 35.1578947,0 L421.894737,0 C441.311783,0 457.052632,15.7541035 457.052632,35.1875 L457.052632,299.09375 C457.052632,318.527146 441.311783,334.28125 421.894737,334.28125 Z" id="Shape" fill="#CAD3FF"></path>
                    <path d="M158.473684,140.96875 L70.5789474,140.96875 C60.869875,140.96875 53,133.092248 53,123.375 L53,70.59375 C53,60.876502 60.869875,53 70.5789474,53 L158.473684,53 C168.182757,53 176.052632,60.876502 176.052632,70.59375 L176.052632,123.375 C176.052632,133.092248 168.182757,140.96875 158.473684,140.96875 Z" id="Shape" fill="#FFD100"></path>
                    <path d="M96.9473684,238.1875 L70.5789474,238.1875 C60.869875,238.1875 53,230.310998 53,220.59375 L53,220.59375 C53,210.876502 60.869875,203 70.5789474,203 L96.9473684,203 C106.656441,203 114.526316,210.876502 114.526316,220.59375 L114.526316,220.59375 C114.526316,230.310998 106.656441,238.1875 96.9473684,238.1875 Z" id="Shape" fill="#B8BAC0"></path>
                    <path d="M192.947368,238.1875 L166.578947,238.1875 C156.869875,238.1875 149,230.310998 149,220.59375 L149,220.59375 C149,210.876502 156.869875,203 166.578947,203 L192.947368,203 C202.656441,203 210.526316,210.876502 210.526316,220.59375 L210.526316,220.59375 C210.526316,230.310998 202.656441,238.1875 192.947368,238.1875 Z" id="Shape" fill="#B8BAC0"></path>
                    <path d="M289.947368,238.1875 L263.578947,238.1875 C253.869875,238.1875 246,230.310998 246,220.59375 L246,220.59375 C246,210.876502 253.869875,203 263.578947,203 L289.947368,203 C299.656441,203 307.526316,210.876502 307.526316,220.59375 L307.526316,220.59375 C307.526316,230.310998 299.656441,238.1875 289.947368,238.1875 Z" id="Shape" fill="#B8BAC0"></path>
                    <path d="M386.947368,238.1875 L360.578947,238.1875 C350.869875,238.1875 343,230.310998 343,220.59375 L343,220.59375 C343,210.876502 350.869875,203 360.578947,203 L386.947368,203 C396.656441,203 404.526316,210.876502 404.526316,220.59375 L404.526316,220.59375 C404.526316,230.310998 396.656441,238.1875 386.947368,238.1875 Z" id="Shape" fill="#B8BAC0"></path>
                    <path d="M203.3,290.59375 L60.9105263,290.59375 C56.5377632,290.59375 53,286.654949 53,281.796875 C53,276.938801 56.5377632,273 60.9105263,273 L203.3,273 C207.672763,273 211.210526,276.938801 211.210526,281.796875 C211.210526,286.654949 207.672763,290.59375 203.3,290.59375 Z" id="Shape" fill="#646178"></path>
                    <path d="M298.315789,290.59375 L236.789474,290.59375 C231.931092,290.59375 228,286.654949 228,281.796875 C228,276.938801 231.931092,273 236.789474,273 L298.315789,273 C303.174171,273 307.105263,276.938801 307.105263,281.796875 C307.105263,286.654949 303.174171,290.59375 298.315789,290.59375 Z" id="Shape" fill="#646178"></path>
                    <path d="M334.104164,123.380498 C326.085967,134.061004 313.322553,140.96875 298.947368,140.96875 C274.676336,140.96875 255,121.275846 255,96.984375 C255,72.6929043 274.676336,53 298.947368,53 C313.311566,53 326.065092,59.89675 334.084388,70.5618613" id="Shape" fill="#FF4F19"></path>
                    <ellipse id="Oval" fill="#FFD100" cx="359.947368" cy="96.984375" rx="43.9473684" ry="43.984375"></ellipse>
                    <polygon id="Shape" fill="#FF9500" points="96.5789474 88.1875 96.5789474 53 79 53 79 140.96875 96.5789474 140.96875 96.5789474 105.78125 175.684211 105.78125 175.684211 88.1875"></polygon>
                </g>
                <g id="Group-2" opacity="0.400000006" transform="translate(156.000000, 58.000000)">
                    <path d="M380,0 L14.0747236,0 C6.30237681,0 0,7.81161381 0,17.4452129 L0,104.667325 L0,610.554787 C0,620.188386 6.30237681,628 14.0747236,628 L380,628 L380,104.665349 L380,0 Z M112.593006,52.3316866 L337.777423,52.3316866 C345.54977,52.3316866 351.852147,60.1433004 351.852147,69.7768995 C351.852147,79.4104986 345.54977,87.2221124 337.777423,87.2221124 L112.593006,87.2221124 C104.820659,87.2221124 98.5182823,79.4104986 98.5182823,69.7768995 C98.5182823,60.1433004 104.820659,52.3316866 112.593006,52.3316866 Z M42.2225765,52.3316866 L56.2973001,52.3316866 C64.0696469,52.3316866 70.3720237,60.1433004 70.3720237,69.7768995 C70.3720237,79.4104986 64.0696469,87.2221124 56.2973001,87.2221124 L42.2225765,87.2221124 C34.4502297,87.2221124 28.1478529,79.4104986 28.1478529,69.7768995 C28.1478529,60.1433004 34.4502297,52.3316866 42.2225765,52.3316866 Z M182.963435,156.999012 L140.740859,156.999012 C132.968512,156.999012 126.666135,149.187398 126.666135,139.553799 C126.666135,129.9202 132.968512,122.108586 140.740859,122.108586 L182.963435,122.108586 C190.735782,122.108586 197.038159,129.9202 197.038159,139.553799 C197.036565,149.187398 190.735782,156.999012 182.963435,156.999012 Z M197.036565,209.332675 C197.036565,218.966274 190.734188,226.777888 182.961841,226.777888 L140.739265,226.777888 C132.966918,226.777888 126.664541,218.966274 126.664541,209.332675 C126.664541,199.699076 132.966918,191.887462 140.739265,191.887462 L182.961841,191.887462 C190.735782,191.887462 197.036565,199.699076 197.036565,209.332675 Z M42.2225765,331.443237 L56.2973001,331.443237 C64.0696469,331.443237 70.3720237,339.254851 70.3720237,348.88845 C70.3720237,358.522049 64.0696469,366.333663 56.2973001,366.333663 L42.2225765,366.333663 C34.4502297,366.333663 28.1478529,358.522049 28.1478529,348.88845 C28.1478529,339.254851 34.4502297,331.443237 42.2225765,331.443237 Z M28.1478529,279.109574 C28.1478529,269.475975 34.4502297,261.664361 42.2225765,261.664361 L56.2973001,261.664361 C64.0696469,261.664361 70.3720237,269.475975 70.3720237,279.109574 C70.3720237,288.743173 64.0696469,296.554787 56.2973001,296.554787 L42.2225765,296.554787 C34.4502297,296.554787 28.1478529,288.743173 28.1478529,279.109574 Z M70.3704294,401.220136 L84.445153,401.220136 C92.2174998,401.220136 98.5198766,409.03175 98.5198766,418.665349 C98.5198766,428.298948 92.2174998,436.110562 84.445153,436.110562 L70.3704294,436.110562 C62.5980826,436.110562 56.2957058,428.298948 56.2957058,418.665349 C56.2957058,409.03175 62.5980826,401.220136 70.3704294,401.220136 Z M84.445153,226.775911 L70.3704294,226.775911 C62.5980826,226.775911 56.2957058,218.964298 56.2957058,209.330699 C56.2957058,199.697099 62.5980826,191.885486 70.3704294,191.885486 L84.445153,191.885486 C92.2174998,191.885486 98.5198766,199.697099 98.5198766,209.330699 C98.5198766,218.964298 92.2174998,226.775911 84.445153,226.775911 Z M84.445153,156.999012 L70.3704294,156.999012 C62.5980826,156.999012 56.2957058,149.187398 56.2957058,139.553799 C56.2957058,129.9202 62.5980826,122.108586 70.3704294,122.108586 L84.445153,122.108586 C92.2174998,122.108586 98.5198766,129.9202 98.5198766,139.553799 C98.5182823,149.187398 92.2174998,156.999012 84.445153,156.999012 Z M56.2973001,575.664361 L42.2225765,575.664361 C34.4502297,575.664361 28.1478529,567.852747 28.1478529,558.219148 C28.1478529,548.585549 34.4502297,540.773935 42.2225765,540.773935 L56.2973001,540.773935 C64.0696469,540.773935 70.3720237,548.585549 70.3720237,558.219148 C70.3704294,567.852747 64.0696469,575.664361 56.2973001,575.664361 Z M84.445153,505.887462 L70.3704294,505.887462 C62.5980826,505.887462 56.2957058,498.075848 56.2957058,488.442249 C56.2957058,478.80865 62.5980826,470.997036 70.3704294,470.997036 L84.445153,470.997036 C92.2174998,470.997036 98.5198766,478.80865 98.5198766,488.442249 C98.5198766,498.075848 92.2174998,505.887462 84.445153,505.887462 Z M337.777423,575.664361 L112.593006,575.664361 C104.820659,575.664361 98.5182823,567.852747 98.5182823,558.219148 C98.5182823,548.585549 104.820659,540.773935 112.593006,540.773935 L337.777423,540.773935 C345.54977,540.773935 351.852147,548.585549 351.852147,558.219148 C351.852147,567.852747 345.54977,575.664361 337.777423,575.664361 Z M140.740859,470.997036 L182.963435,470.997036 C190.735782,470.997036 197.038159,478.80865 197.038159,488.442249 C197.038159,498.075848 190.735782,505.887462 182.963435,505.887462 L140.740859,505.887462 C132.968512,505.887462 126.666135,498.075848 126.666135,488.442249 C126.666135,478.80865 132.968512,470.997036 140.740859,470.997036 Z M126.666135,418.665349 C126.666135,409.03175 132.968512,401.220136 140.740859,401.220136 L182.963435,401.220136 C190.735782,401.220136 197.038159,409.03175 197.038159,418.665349 C197.038159,428.298948 190.735782,436.110562 182.963435,436.110562 L140.740859,436.110562 C132.968512,436.108586 126.666135,428.298948 126.666135,418.665349 Z M337.777423,505.887462 L239.259141,505.887462 C231.486794,505.887462 225.184418,498.075848 225.184418,488.442249 C225.184418,478.80865 231.486794,470.997036 239.259141,470.997036 L337.777423,470.997036 C345.54977,470.997036 351.852147,478.80865 351.852147,488.442249 C351.852147,498.075848 345.54977,505.887462 337.777423,505.887462 Z M337.777423,436.108586 L239.259141,436.108586 C231.486794,436.108586 225.184418,428.296972 225.184418,418.663373 C225.184418,409.029774 231.486794,401.21816 239.259141,401.21816 L337.777423,401.21816 C345.54977,401.21816 351.852147,409.029774 351.852147,418.663373 C351.852147,428.296972 345.54977,436.108586 337.777423,436.108586 Z M337.777423,366.331687 L112.593006,366.331687 C104.820659,366.331687 98.5182823,358.520073 98.5182823,348.886474 C98.5182823,339.252875 104.820659,331.441261 112.593006,331.441261 L337.777423,331.441261 C345.54977,331.441261 351.852147,339.252875 351.852147,348.886474 C351.852147,358.520073 345.54977,366.331687 337.777423,366.331687 Z M337.777423,296.554787 L112.593006,296.554787 C104.820659,296.554787 98.5182823,288.743173 98.5182823,279.109574 C98.5182823,269.475975 104.820659,261.664361 112.593006,261.664361 L337.777423,261.664361 C345.54977,261.664361 351.852147,269.475975 351.852147,279.109574 C351.852147,288.743173 345.54977,296.554787 337.777423,296.554787 Z M337.777423,226.775911 L239.259141,226.775911 C231.486794,226.775911 225.184418,218.964298 225.184418,209.330699 C225.184418,199.697099 231.486794,191.885486 239.259141,191.885486 L337.777423,191.885486 C345.54977,191.885486 351.852147,199.697099 351.852147,209.330699 C351.852147,218.964298 345.54977,226.775911 337.777423,226.775911 Z M337.777423,156.999012 L239.259141,156.999012 C231.486794,156.999012 225.184418,149.187398 225.184418,139.553799 C225.184418,129.9202 231.486794,122.108586 239.259141,122.108586 L337.777423,122.108586 C345.54977,122.108586 351.852147,129.9202 351.852147,139.553799 C351.852147,149.187398 345.54977,156.999012 337.777423,156.999012 Z" id="Shape" fill="#464655"></path>
                    <path d="M113.056175,87 L337.943825,87 C345.705929,87 352,79.1638536 352,69.5 C352,59.8361464 345.705929,52 337.943825,52 L113.056175,52 C105.294071,52 99,59.8361464 99,69.5 C99,79.1638536 105.294071,87 113.056175,87 Z" id="Shape" fill="#FFE169"></path>
                    <g id="Group" transform="translate(127.000000, 122.000000)" fill="#91E6BE">
                        <path d="M56.7285638,0.0850847089 L14.3062857,0.0850847089 C6.49717781,0.0850847089 0.164992434,7.92383013 0.164992434,17.5908891 C0.164992434,27.257948 6.49717781,35.0966934 14.3062857,35.0966934 L56.7285638,35.0966934 C64.5376718,35.0966934 70.8698571,27.257948 70.8698571,17.5908891 C70.8682553,7.92184714 64.5376718,0.0850847089 56.7285638,0.0850847089 Z" id="Shape"></path>
                        <path d="M56.7285638,70.1043361 L14.3062857,70.1043361 C6.49717781,70.1043361 0.164992434,77.9430816 0.164992434,87.6101405 C0.164992434,97.2771994 6.49717781,105.115945 14.3062857,105.115945 L56.7285638,105.115945 C64.5376718,105.115945 70.8698571,97.2771994 70.8698571,87.6101405 C70.8698571,77.9430816 64.5376718,70.1043361 56.7285638,70.1043361 Z" id="Shape"></path>
                    </g>
                    <path d="M337.943825,261 L113.056175,261 C105.294071,261 99,268.836146 99,278.5 C99,288.163854 105.294071,296 113.056175,296 L337.943825,296 C345.705929,296 352,288.163854 352,278.5 C352,268.836146 345.705929,261 337.943825,261 Z" id="Shape" fill="#FFE169"></path>
                    <g id="Group" transform="translate(98.000000, 122.000000)" fill="#FFFFFF">
                        <path d="M239.847083,209.371844 L14.7811978,209.371844 C7.01294215,209.371844 0.713882773,217.181931 0.713882773,226.813648 C0.713882773,236.445364 7.01294215,244.255451 14.7811978,244.255451 L239.847083,244.255451 C247.615339,244.255451 253.914398,236.445364 253.914398,226.813648 C253.914398,217.181931 247.615339,209.371844 239.847083,209.371844 Z" id="Shape"></path>
                        <path d="M239.847083,0.0800803405 L141.380659,0.0800803405 C133.612403,0.0800803405 127.313344,7.8901675 127.313344,17.5218839 C127.313344,27.1536003 133.612403,34.9636874 141.380659,34.9636874 L239.847083,34.9636874 C247.615339,34.9636874 253.914398,27.1536003 253.914398,17.5218839 C253.914398,7.88819176 247.615339,0.0800803405 239.847083,0.0800803405 Z" id="Shape"></path>
                        <path d="M239.847083,69.8433431 L141.380659,69.8433431 C133.612403,69.8433431 127.313344,77.6534302 127.313344,87.2851466 C127.313344,96.916863 133.612403,104.72695 141.380659,104.72695 L239.847083,104.72695 C247.615339,104.72695 253.914398,96.916863 253.914398,87.2851466 C253.914398,77.6534302 247.615339,69.8433431 239.847083,69.8433431 Z" id="Shape"></path>
                        <path d="M239.847083,279.135107 L141.380659,279.135107 C133.612403,279.135107 127.313344,286.945194 127.313344,296.576911 C127.313344,306.208627 133.612403,314.018714 141.380659,314.018714 L239.847083,314.018714 C247.615339,314.018714 253.914398,306.208627 253.914398,296.576911 C253.914398,286.945194 247.615339,279.135107 239.847083,279.135107 Z" id="Shape"></path>
                        <path d="M239.847083,348.89837 L141.380659,348.89837 C133.612403,348.89837 127.313344,356.708457 127.313344,366.340173 C127.313344,375.97189 133.612403,383.781977 141.380659,383.781977 L239.847083,383.781977 C247.615339,383.781977 253.914398,375.97189 253.914398,366.340173 C253.914398,356.708457 247.615339,348.89837 239.847083,348.89837 Z" id="Shape"></path>
                    </g>
                    <g id="Group" transform="translate(127.000000, 401.000000)" fill="#91E6BE">
                        <path d="M14.3062857,35.0914239 L56.7285638,35.0914239 C64.5376718,35.0914239 70.8698571,27.3134599 70.8698571,17.721359 C70.8698571,8.12925817 64.5376718,0.351294139 56.7285638,0.351294139 L14.3062857,0.351294139 C6.49717781,0.351294139 0.164992434,8.12925817 0.164992434,17.721359 C0.164992434,27.3134599 6.49717781,35.0914239 14.3062857,35.0914239 Z" id="Shape"></path>
                        <path d="M14.3062857,104.569716 L56.7285638,104.569716 C64.5376718,104.569716 70.8698571,96.7917518 70.8698571,87.199651 C70.8698571,77.6075501 64.5376718,69.8295861 56.7285638,69.8295861 L14.3062857,69.8295861 C6.49717781,69.8295861 0.164992434,77.6075501 0.164992434,87.199651 C0.164992434,96.7917518 6.49717781,104.569716 14.3062857,104.569716 Z" id="Shape"></path>
                    </g>
                    <path d="M337.943825,541 L113.056175,541 C105.294071,541 99,548.836146 99,558.5 C99,568.163854 105.294071,576 113.056175,576 L337.943825,576 C345.705929,576 352,568.163854 352,558.5 C352,548.834164 345.705929,541 337.943825,541 Z" id="Shape" fill="#FFE169"></path>
                    <g id="Group" transform="translate(28.000000, 52.000000)" fill="#FF6469">
                        <path d="M14.6461192,35.3739541 L28.7953794,35.3739541 C36.6088868,35.3739541 42.9446396,27.5607318 42.9446396,17.9251489 C42.9446396,8.28956605 36.6088868,0.476343686 28.7953794,0.476343686 L14.6461192,0.476343686 C6.83261173,0.476343686 0.496858935,8.28956605 0.496858935,17.9251489 C0.496858935,27.5607318 6.83261173,35.3739541 14.6461192,35.3739541 Z" id="Shape"></path>
                        <path d="M57.0922971,70.2695881 L42.9430369,70.2695881 C35.1295294,70.2695881 28.7937766,78.0828104 28.7937766,87.7183933 C28.7937766,97.3539762 35.1295294,105.167199 42.9430369,105.167199 L57.0922971,105.167199 C64.9058046,105.167199 71.2415574,97.3539762 71.2415574,87.7183933 C71.2399546,78.0808339 64.9058046,70.2695881 57.0922971,70.2695881 Z" id="Shape"></path>
                        <path d="M57.0922971,140.060856 L42.9430369,140.060856 C35.1295294,140.060856 28.7937766,147.874078 28.7937766,157.509661 C28.7937766,167.145244 35.1295294,174.958466 42.9430369,174.958466 L57.0922971,174.958466 C64.9058046,174.958466 71.2415574,167.145244 71.2415574,157.509661 C71.2415574,147.874078 64.9058046,140.060856 57.0922971,140.060856 Z" id="Shape"></path>
                        <path d="M14.6461192,244.749734 L28.7953794,244.749734 C36.6088868,244.749734 42.9446396,236.936512 42.9446396,227.300929 C42.9446396,217.665346 36.6088868,209.852124 28.7953794,209.852124 L14.6461192,209.852124 C6.83261173,209.852124 0.496858935,217.665346 0.496858935,227.300929 C0.496858935,236.936512 6.83261173,244.749734 14.6461192,244.749734 Z" id="Shape"></path>
                        <path d="M14.6461192,314.541002 L28.7953794,314.541002 C36.6088868,314.541002 42.9446396,306.72778 42.9446396,297.092197 C42.9446396,287.456614 36.6088868,279.643392 28.7953794,279.643392 L14.6461192,279.643392 C6.83261173,279.643392 0.496858935,287.456614 0.496858935,297.092197 C0.496858935,306.72778 6.83261173,314.541002 14.6461192,314.541002 Z" id="Shape"></path>
                        <path d="M42.9430369,384.33227 L57.0922971,384.33227 C64.9058046,384.33227 71.2415574,376.519048 71.2415574,366.883465 C71.2415574,357.247882 64.9058046,349.434659 57.0922971,349.434659 L42.9430369,349.434659 C35.1295294,349.434659 28.7937766,357.247882 28.7937766,366.883465 C28.7937766,376.519048 35.1295294,384.33227 42.9430369,384.33227 Z" id="Shape"></path>
                        <path d="M57.0922971,419.227904 L42.9430369,419.227904 C35.1295294,419.227904 28.7937766,427.041126 28.7937766,436.676709 C28.7937766,446.312292 35.1295294,454.125514 42.9430369,454.125514 L57.0922971,454.125514 C64.9058046,454.125514 71.2415574,446.312292 71.2415574,436.676709 C71.2415574,427.041126 64.9058046,419.227904 57.0922971,419.227904 Z" id="Shape"></path>
                        <path d="M28.7953794,489.021148 L14.6461192,489.021148 C6.83261173,489.021148 0.496858935,496.834371 0.496858935,506.469953 C0.496858935,516.105536 6.83261173,523.918759 14.6461192,523.918759 L28.7953794,523.918759 C36.6088868,523.918759 42.9446396,516.105536 42.9446396,506.469953 C42.9430369,496.832394 36.6088868,489.021148 28.7953794,489.021148 Z" id="Shape"></path>
                    </g>
                </g>
            </g>
        </g>
    </g>
</svg>