<?xml version="1.0" encoding="UTF-8"?>
<svg width="454px" height="201px" viewBox="0 0 454 201" version="1.1" xmlns="http://www.w3.org/2000/svg" xmlns:xlink="http://www.w3.org/1999/xlink">
    <!-- Generator: Sketch 48.2 (47327) - http://www.bohemiancoding.com/sketch -->
    <title>github-logo</title>
    <desc>Created with Sketch.</desc>
    <defs></defs>
    <g id="Page-1" stroke="none" stroke-width="1" fill="none" fill-rule="evenodd">
        <g id="github-logo" fill="#000000" fill-rule="nonzero">
            <path d="M58.13,53.962 C65.15,53.962 73.265,52.208 82.479,48.698 L82.479,71.291 C80.431,72.022 77.507,72.827 73.705,73.705 C74.874,77.068 75.46,80.212 75.46,83.137 C75.46,92.496 72.646,100.649 67.015,107.595 C61.385,114.541 54.109,118.674 45.188,119.989 C39.34,120.867 36.415,124.011 36.415,129.422 C36.415,131.323 37.365,133.225 39.267,135.125 C41.753,137.904 45.409,139.66 50.235,140.391 C71.148,143.608 81.603,152.309 81.603,166.494 C81.603,189.163 68.077,200.496 41.022,200.496 C29.908,200.496 20.767,198.522 13.603,194.573 C4.532,189.6 0,181.776 0,171.099 C0,158.816 6.8,150.408 20.399,145.874 L20.399,145.436 C15.427,142.365 12.942,137.685 12.942,131.396 C12.942,123.207 15.282,118.087 19.962,116.042 L19.962,115.603 C15.282,113.995 11.113,110.337 7.458,104.634 C3.363,98.492 1.315,91.911 1.315,84.892 C1.315,74.363 5.044,65.589 12.503,58.57 C19.669,51.989 28.224,48.699 38.168,48.699 C45.334,48.698 51.987,50.453 58.13,53.962 Z M59.007,169.345 C59.007,161.886 52.865,158.157 40.58,158.157 C28.735,158.157 22.812,162.032 22.812,169.784 C22.812,177.387 29.248,181.189 42.116,181.189 C53.377,181.19 59.007,177.242 59.007,169.345 Z M25.226,85.112 C25.226,95.203 29.832,100.248 39.044,100.248 C47.965,100.248 52.425,95.129 52.425,84.893 C52.425,80.652 51.402,76.997 49.355,73.925 C46.869,70.562 43.432,68.879 39.044,68.879 C29.833,68.878 25.226,74.29 25.226,85.112 Z M105.738,32.684 C101.498,32.684 97.879,31.077 94.881,27.859 C91.883,24.641 90.384,20.84 90.384,16.453 C90.384,11.919 91.883,8.045 94.881,4.827 C97.879,1.609 101.498,0 105.738,0 C109.833,0 113.38,1.608 116.378,4.826 C119.376,8.044 120.874,11.918 120.874,16.452 C120.874,20.84 119.376,24.64 116.378,27.858 C113.38,31.076 109.833,32.684 105.738,32.684 Z M93.235,147.19 C93.528,144.266 93.673,139.294 93.673,132.274 L93.673,64.052 C93.673,57.18 93.527,52.427 93.235,49.794 L118.023,49.794 C117.73,52.573 117.584,57.18 117.584,63.614 L117.584,130.957 C117.584,138.416 117.73,143.826 118.023,147.189 L93.235,147.189 L93.235,147.19 Z M163.413,49.794 L182.497,49.794 L182.497,71.071 C181.766,71.071 180.413,70.999 178.438,70.852 C176.576666,70.7100231 174.710735,70.63664 172.844,70.632 L163.412,70.632 L163.412,111.433 C163.412,121.232 166.629,126.13 173.063,126.13 C177.597,126.13 181.691,124.888 185.348,122.401 L185.348,144.337 C179.937,147.263 173.429,148.725 165.824,148.725 C155.149,148.725 147.765,144.923 143.67,137.32 C140.6,131.615 139.064,122.623 139.064,110.338 L139.064,71.072 L139.284,71.072 L139.284,70.634 L135.993,70.415 C134.092,70.415 131.606,70.634 128.535,71.072 L128.535,49.794 L139.284,49.794 L139.284,41.24 C139.284,37.145 139.064,33.854 138.626,31.369 L164.071,31.369 C163.633,34.147 163.413,37.292 163.413,40.801 L163.413,49.794 Z M240.464,49.136 C234.176,49.136 227.595,51.33 220.722,55.716 L220.722,17.329 C220.722,8.994 220.868,3.51 221.16,0.878 L196.153,0.878 C196.592,3.218 196.811,8.701 196.811,17.329 L196.811,133.37 C196.811,140.096 196.592,144.704 196.153,147.189 L221.598,147.189 C221.598,146.75 221.452,144.96 221.16,141.815 C220.868,138.67 220.722,135.855 220.722,133.37 L220.722,79.407 C225.84,74.582 230.812,72.17 235.638,72.17 C241.196,72.17 245.437,74.947 248.362,80.504 C250.554,84.892 251.652,90.376 251.652,96.957 L251.432,126.569 C251.432,131.543 251.067,138.416 250.336,147.189 L276.877,147.189 C276.293,143.534 276,136.806 276,127.007 L276,96.957 C276,84.233 273.148,73.412 267.445,64.491 C261.01,54.254 252.016,49.136 240.464,49.136 Z M318.124,148.068 C306.57,148.068 298.017,142.949 292.459,132.712 C288.072,124.377 285.878,113.482 285.878,100.028 L285.878,69.976 C285.878,60.032 285.586,53.304 285.001,49.794 L311.324,49.794 C310.885,53.012 310.593,59.885 310.446,70.414 L310.227,100.027 C310.227,108.362 311.177,114.359 313.078,118.013 C315.273,122.548 319.294,124.815 325.143,124.815 C329.238,124.815 333.845,122.401 338.963,117.577 L338.963,63.615 C338.963,61.129 338.816,58.276 338.524,55.059 C338.23,51.841 338.086,50.087 338.086,49.794 L363.53,49.794 C363.239,52.28 363.092,56.887 363.092,63.614 L363.092,130.738 C363.092,139.365 363.239,144.849 363.53,147.189 L339.621,147.189 L339.621,139.293 C332.893,145.142 325.728,148.068 318.124,148.068 Z M416.844,147.847 C408.948,147.847 402.367,144.996 397.102,139.294 L397.102,147.19 L373.85,147.19 C374.289,144.705 374.509,140.096 374.509,133.371 L374.509,17.329 C374.509,8.701 374.289,3.218 373.85,0.878 L398.857,0.878 C398.564,3.51 398.419,8.994 398.419,17.329 L398.419,55.498 C405.145,51.257 411.728,49.136 418.161,49.136 C429.714,49.136 438.782,54.254 445.362,64.491 C450.919,73.412 453.697,84.233 453.697,96.957 C453.697,109.972 450.772,121.305 444.924,130.957 C437.902,142.218 428.543,147.847 416.844,147.847 Z M413.553,72.17 C408.726,72.17 403.682,74.582 398.417,79.407 L398.417,117.356 C403.097,121.889 407.703,124.158 412.236,124.158 C417.938,124.158 422.254,121.013 425.178,114.724 C427.519,109.752 428.688,103.828 428.688,96.956 C428.689,80.432 423.644,72.17 413.553,72.17 Z M110.325,168.216 C108.933,166.327 107.143,165.134 104.709,165.134 C102.372,165.134 100.136,166.924 100.136,169.36 C100.136,175.672 114.997,173.037 114.997,185.613 C114.997,193.119 110.325,198.436 102.671,198.436 C97.501,198.436 93.724,195.455 91.139,191.129 L95.862,186.506 C96.855,189.39 99.49,191.974 102.622,191.974 C105.603,191.974 107.443,189.44 107.443,186.556 C107.443,182.679 103.864,181.586 100.932,180.444 C96.11,178.456 92.58,176.02 92.58,170.205 C92.58,163.992 97.203,158.972 103.516,158.972 C106.846,158.972 111.468,160.613 113.755,163.147 L110.325,168.216 Z M135.57,198.436 C124.136,198.436 117.029,189.688 117.029,178.653 C117.029,167.52 124.386,158.971 135.57,158.971 C146.753,158.971 154.109,167.52 154.109,178.653 C154.109,189.688 147.002,198.436 135.57,198.436 Z M135.57,166.179 C128.661,166.179 124.584,172.291 124.584,178.356 C124.584,184.121 127.468,191.229 135.57,191.229 C143.671,191.229 146.553,184.121 146.553,178.356 C146.553,172.291 142.478,166.179 135.57,166.179 Z M182.732,169.906 C180.694,167.421 177.612,165.929 174.48,165.929 C167.472,165.929 163.446,172.39 163.446,178.854 C163.446,185.166 167.622,191.477 174.431,191.477 C177.562,191.477 180.694,189.836 182.732,187.502 L182.732,196.198 C179.998,197.492 177.264,198.435 174.231,198.435 C163.695,198.435 155.891,189.339 155.891,179.001 C155.891,168.363 163.396,158.97 174.381,158.97 C177.313,158.97 180.195,159.766 182.732,161.157 L182.732,169.906 Z M194.855,197.442 L187.549,197.442 L187.549,159.965 L194.855,159.965 L194.855,197.442 Z M207.825,189.539 L204.743,197.441 L197.039,197.441 L211.653,158.97 L217.319,158.97 L231.535,197.441 L223.73,197.441 L220.847,189.539 L207.825,189.539 Z M214.137,169.954 L214.038,169.954 L209.912,183.575 L218.809,183.575 L214.137,169.954 Z M241.071,191.08 L251.41,191.08 L251.41,197.442 L233.765,197.442 L233.765,159.965 L241.071,159.965 L241.071,191.08 Z M293.153,169.906 C291.116,167.421 288.034,165.929 284.902,165.929 C277.894,165.929 273.868,172.39 273.868,178.854 C273.868,185.166 278.043,191.477 284.852,191.477 C287.984,191.477 291.116,189.836 293.153,187.502 L293.153,196.198 C290.42,197.492 287.685,198.435 284.654,198.435 C274.117,198.435 266.313,189.339 266.313,179.001 C266.313,168.363 273.818,158.97 284.803,158.97 C287.735,158.97 290.618,159.766 293.153,161.157 L293.153,169.906 Z M314.722,198.436 C303.289,198.436 296.182,189.688 296.182,178.653 C296.182,167.52 303.538,158.971 314.722,158.971 C325.906,158.971 333.261,167.52 333.261,178.653 C333.261,189.688 326.153,198.436 314.722,198.436 Z M314.722,166.179 C307.812,166.179 303.737,172.291 303.737,178.356 C303.737,184.121 306.621,191.229 314.722,191.229 C322.823,191.229 325.707,184.121 325.707,178.356 C325.708,172.291 321.631,166.179 314.722,166.179 Z M336.833,159.965 L347.272,159.965 C358.106,159.965 365.363,168.067 365.363,178.752 C365.363,189.291 357.908,197.441 347.22,197.441 L336.832,197.441 L336.832,159.965 L336.833,159.965 Z M344.14,191.08 L345.332,191.08 C354.327,191.08 357.809,186.109 357.809,178.702 C357.809,170.552 353.634,166.327 345.332,166.327 L344.14,166.327 L344.14,191.08 Z M376.243,197.442 L368.935,197.442 L368.935,159.965 L376.243,159.965 L376.243,197.442 Z M381.557,158.971 L386.827,158.971 L406.559,185.165 L406.658,185.165 L406.658,159.965 L413.966,159.965 L413.966,198.188 L408.696,198.188 L388.965,171.993 L388.865,171.993 L388.865,197.442 L381.557,197.442 L381.557,158.971 Z M452.382,177.511 L452.382,178.455 C452.382,189.041 446.963,198.435 435.334,198.435 C424.398,198.435 417.488,189.191 417.488,178.853 C417.488,168.165 424.596,158.97 435.78,158.97 C442.142,158.97 447.709,162.201 450.592,167.916 L444.13,171.395 C442.639,168.016 439.458,165.431 435.581,165.431 C428.522,165.431 425.044,172.638 425.044,178.852 C425.044,185.063 428.572,191.972 435.63,191.972 C440.203,191.972 444.031,187.996 444.18,183.472 L436.227,183.472 L436.227,177.509 L452.382,177.509 L452.382,177.511 Z" id="Shape"></path>
        </g>
    </g>
</svg>