<?xml version="1.0" encoding="UTF-8"?>
<svg width="195px" height="70px" viewBox="0 0 195 70" version="1.1" xmlns="http://www.w3.org/2000/svg" xmlns:xlink="http://www.w3.org/1999/xlink">
    <!-- Generator: Sketch 48.2 (47327) - http://www.bohemiancoding.com/sketch -->
    <title>node-logo</title>
    <desc>Created with Sketch.</desc>
    <defs>
        <polygon id="path-1" points="0.0315789474 0.392173222 142.551053 0.392173222 142.551053 69.9684211 0.0315789474 69.9684211"></polygon>
        <polygon id="path-3" points="0.0315789474 0.392173222 142.551053 0.392173222 142.551053 69.9684211 0.0315789474 69.9684211"></polygon>
    </defs>
    <g id="Page-1" stroke="none" stroke-width="1" fill="none" fill-rule="evenodd">
        <g id="node-logo">
            <g id="Group-4">
                <g id="Fill-1-Clipped">
                    <mask id="mask-2" fill="white">
                        <use xlink:href="#path-1"></use>
                    </mask>
                    <g id="path-1"></g>
                    <path d="M38.7842105,37.3842105 C38.7842105,36.6321053 38.3884211,35.9410526 37.7394737,35.5684211 L20.4363158,25.6105263 C20.1436842,25.4384211 19.8157895,25.3489474 19.4836842,25.3352632 C19.4536842,25.3352632 19.3289474,25.3352632 19.3047368,25.3352632 C18.9742105,25.3489474 18.6463158,25.4384211 18.3494737,25.6105263 L1.04631579,35.5684211 C0.401052632,35.9410526 0,36.6321053 0,37.3842105 L0.0378947368,64.1978947 C0.0378947368,64.5705263 0.231578947,64.9178947 0.56,65.1005263 C0.881052632,65.2931579 1.27789474,65.2931579 1.59789474,65.1005263 L11.8810526,59.2121053 C12.5315789,58.8257895 12.9273684,58.1442105 12.9273684,57.3989474 L12.9273684,44.8715789 C12.9273684,44.1247368 13.3226316,43.4336842 13.9705263,43.0626316 L18.3494737,40.5405263 C18.6757895,40.3521053 19.0321053,40.26 19.3968421,40.26 C19.7531579,40.26 20.1194737,40.3521053 20.4363158,40.5405263 L24.8136842,43.0626316 C25.4615789,43.4336842 25.8584211,44.1247368 25.8584211,44.8715789 L25.8584211,57.3989474 C25.8584211,58.1442105 26.2594737,58.83 26.9057895,59.2121053 L37.1863158,65.1005263 C37.5089474,65.2931579 37.9115789,65.2931579 38.2310526,65.1005263 C38.55,64.9178947 38.7505263,64.5705263 38.7505263,64.1978947 L38.7842105,37.3842105" id="Fill-1" fill="#272A29" fill-rule="nonzero" mask="url(#mask-2)"></path>
                </g>
                <g id="Fill-3-Clipped">
                    <mask id="mask-4" fill="white">
                        <use xlink:href="#path-3"></use>
                    </mask>
                    <g id="path-1"></g>
                    <path d="M129.572632,51.3457895 C129.572632,51.5326316 129.472632,51.7052632 129.311053,51.7978947 L123.367895,55.2236842 C123.206316,55.3168421 123.007368,55.3168421 122.846316,55.2236842 L116.902632,51.7978947 C116.741053,51.7052632 116.641579,51.5326316 116.641579,51.3457895 L116.641579,44.4831579 C116.641579,44.2968421 116.741053,44.1242105 116.902105,44.0305263 L122.845263,40.5978947 C123.007368,40.5047368 123.206316,40.5047368 123.368421,40.5978947 L129.311579,44.0305263 C129.472632,44.1242105 129.572632,44.2968421 129.572632,44.4831579 L129.572632,51.3457895 Z M131.178421,0.524210526 C130.854737,0.344210526 130.459474,0.348421053 130.139474,0.535789474 C129.820526,0.723684211 129.624211,1.06631579 129.624211,1.43684211 L129.624211,27.9915789 C129.624211,28.2521053 129.484211,28.4942105 129.258947,28.6247368 C129.032632,28.7557895 128.753158,28.7557895 128.526842,28.6247368 L124.193158,26.1278947 C123.546842,25.7552632 122.751053,25.7557895 122.104737,26.1284211 L104.794737,36.1184211 C104.147895,36.4915789 103.749474,37.1815789 103.749474,37.9284211 L103.749474,57.9121053 C103.749474,58.6584211 104.147895,59.3484211 104.794211,59.7226316 L122.103158,69.7194737 C122.750526,70.0931579 123.547368,70.0931579 124.194211,69.7194737 L141.506316,59.7226316 C142.152632,59.3484211 142.551053,58.6584211 142.551053,57.9121053 L142.551053,8.09789474 C142.551053,7.34052632 142.141579,6.64157895 141.479474,6.27210526 L131.178421,0.524210526 Z" id="Fill-3" fill="#272A29" fill-rule="nonzero" mask="url(#mask-4)"></path>
                </g>
            </g>
            <path d="M193.107368,44.3036842 C193.751053,43.93 194.147368,43.2415789 194.147368,42.4963158 L194.147368,37.6536842 C194.147368,36.9094737 193.751053,36.22 193.106316,35.8463158 L175.907895,25.8605263 C175.261053,25.4842105 174.462105,25.4836842 173.813684,25.8573684 L156.509474,35.8473684 C155.863158,36.2205263 155.464737,36.9105263 155.464737,37.6573684 L155.464737,57.6352632 C155.464737,58.3868421 155.867895,59.08 156.520526,59.4515789 L173.716316,69.25 C174.350526,69.6121053 175.127895,69.6157895 175.766316,69.2615789 L186.167368,63.4805263 C186.497368,63.2968421 186.702632,62.9505263 186.704737,62.5736842 C186.707368,62.1968421 186.506842,61.8478947 186.18,61.6605263 L168.766842,51.6657895 C168.441579,51.4794737 168.241579,51.1331579 168.241579,50.7589474 L168.241579,44.4984211 C168.241579,44.1247368 168.440526,43.7794737 168.764737,43.5931579 L174.184211,40.4684211 C174.506842,40.2821053 174.905263,40.2821053 175.227368,40.4684211 L180.65,43.5931579 C180.973684,43.7794737 181.172632,44.1247368 181.172632,44.4984211 L181.172632,49.4242105 C181.172632,49.7984211 181.372632,50.1442105 181.696842,50.3305263 C182.020526,50.5173684 182.419474,50.5157895 182.742632,50.3284211 L193.107368,44.3036842" id="Fill-5" fill="#272A29" fill-rule="nonzero"></path>
            <path d="M70.26,25.7526316 C70.9063158,25.3794737 71.7031579,25.3794737 72.3494737,25.7526316 L89.6573684,35.7405263 C90.3047368,36.1136842 90.7031579,36.8036842 90.7031579,37.5510526 L90.7031579,57.5421053 C90.7031579,58.2884211 90.3047368,58.9784211 89.6578947,59.3526316 L72.3505263,69.3484211 C71.7031579,69.7215789 70.9063158,69.7215789 70.2589474,69.3484211 L52.9552632,59.3526316 C52.3089474,58.9784211 51.9105263,58.2884211 51.9105263,57.5421053 L51.9105263,37.55 C51.9105263,36.8036842 52.3089474,36.1136842 52.9563158,35.7405263 L70.26,25.7526316" id="Fill-6" fill="#74B943" fill-rule="nonzero"></path>
            <path d="M174.605789,43.3678947 C174.729474,43.2963158 174.882632,43.2963158 175.006842,43.3678947 L178.328421,45.2842105 C178.452105,45.3563158 178.528947,45.4884211 178.528947,45.6315789 L178.528947,49.4668421 C178.528947,49.6105263 178.452105,49.7426316 178.328421,49.8147368 L175.006842,51.7310526 C174.882632,51.8026316 174.729474,51.8026316 174.605789,51.7310526 L171.286842,49.8147368 C171.162632,49.7426316 171.086316,49.6105263 171.086316,49.4668421 L171.086316,45.6315789 C171.086316,45.4884211 171.162632,45.3563158 171.286842,45.2842105 L174.605789,43.3678947" id="Fill-9" fill="#74B943" fill-rule="nonzero"></path>
        </g>
    </g>
</svg>