<?xml version="1.0" encoding="UTF-8"?>
<svg width="1344px" height="386px" viewBox="0 0 1344 386" version="1.1" xmlns="http://www.w3.org/2000/svg" xmlns:xlink="http://www.w3.org/1999/xlink">
    <!-- Generator: Sketch 48.2 (47327) - http://www.bohemiancoding.com/sketch -->
    <title>shopify-logo-vector</title>
    <desc>Created with Sketch.</desc>
    <defs></defs>
    <g id="Page-1" stroke="none" stroke-width="1" fill="none" fill-rule="evenodd">
        <g id="shopify-logo-vector" transform="translate(0.000000, -1.000000)" fill-rule="nonzero">
            <g id="Shopify_logo">
                <path d="M288.694737,74.1885714 C288.473684,72.1982857 286.705263,71.3137143 285.378947,71.0925714 C284.052632,70.8714286 255.094737,68.8811429 255.094737,68.8811429 C255.094737,68.8811429 234.978947,48.9782857 232.989474,46.7668571 C230.778947,44.5554286 226.578947,45.2188571 224.810526,45.6611429 C224.589474,45.6611429 220.389474,46.988 213.536842,49.1994286 C207.126316,29.96 195.189474,12.2685714 174.410526,12.2685714 L172.642105,12.2685714 C166.673684,4.52857143 159.378947,0.990285714 153.189474,0.990285714 C104.778947,1.21142857 81.7894737,61.5834286 74.4947368,92.3222857 C55.7052632,98.072 42.4421053,102.273714 40.6736842,102.716 C30.2842105,106.033143 29.8421053,106.254286 28.5157895,116.205714 C27.4105263,123.945714 0,336.242857 0,336.242857 L213.757895,376.269714 L329.589474,351.280571 C329.589474,351.059429 288.915789,76.1788571 288.694737,74.1885714 Z M201.821053,52.9588571 C196.515789,54.728 190.326316,56.4971429 183.694737,58.4874286 L183.694737,54.5068571 C183.694737,42.5651429 181.926316,32.8348571 179.273684,25.316 C190.105263,26.864 197.4,39.0268571 201.821053,52.9588571 Z M166.231579,27.7485714 C169.105263,35.2674286 171.094737,45.8822857 171.094737,60.2565714 L171.094737,62.2468571 C159.378947,65.7851429 146.557895,69.7657143 133.736842,73.7462857 C141.031579,46.3245714 154.515789,32.8348571 166.231579,27.7485714 Z M151.863158,14.2588571 C153.852632,14.2588571 156.063158,14.9222857 158.052632,16.2491429 C142.578947,23.5468571 126,41.9017143 118.926316,78.6114286 C108.757895,81.7074286 98.5894737,84.8034286 89.3052632,87.6782857 C97.7052632,59.8142857 117.157895,14.2588571 151.863158,14.2588571 Z" id="Shape" fill="#95BF47"></path>
                <path d="M285.378947,71.0925714 C284.052632,70.8714286 255.094737,68.8811429 255.094737,68.8811429 C255.094737,68.8811429 234.978947,48.9782857 232.989474,46.7668571 C232.105263,45.8822857 231,45.44 229.894737,45.44 L213.757895,376.269714 L329.589474,351.280571 C329.589474,351.280571 288.915789,76.1788571 288.694737,74.4097143 C288.473684,72.4194286 286.705263,71.3137143 285.378947,71.0925714 Z" id="Shape" fill="#5E8E3E"></path>
                <path d="M174.410526,135.224 L160.042105,177.683429 C160.042105,177.683429 147.442105,171.049143 132.189474,171.049143 C109.642105,171.049143 108.536842,185.202286 108.536842,188.740571 C108.536842,208.201143 159.157895,215.498857 159.157895,261.054286 C159.157895,296.879429 136.389474,319.878286 105.884211,319.878286 C69.1894737,319.878286 50.4,297.100571 50.4,297.100571 L60.1263158,264.592571 C60.1263158,264.592571 79.3578947,281.178286 95.7157895,281.178286 C106.326316,281.178286 110.747368,272.774857 110.747368,266.582857 C110.747368,241.151429 69.1894737,240.045714 69.1894737,198.470857 C69.1894737,163.530286 94.3894737,129.474286 145.010526,129.474286 C164.905263,129.695429 174.410526,135.224 174.410526,135.224 Z" id="Shape" fill="#FFFFFF"></path>
            </g>
            <path d="M464.652632,215.835429 C453.157895,209.643429 447.189474,204.336 447.189474,197.038286 C447.189474,187.750286 455.368421,181.779429 468.410526,181.779429 C483.442105,181.779429 496.705263,187.971429 496.705263,187.971429 L507.315789,155.684571 C507.315789,155.684571 497.589474,148.165714 469.073684,148.165714 C429.284211,148.165714 401.652632,170.943429 401.652632,203.009143 C401.652632,221.142857 414.473684,235.074857 431.715789,245.026286 C445.642105,252.987429 450.505263,258.516 450.505263,266.919429 C450.505263,275.544 443.652632,282.399429 430.610526,282.399429 C411.378947,282.399429 393.252632,272.448 393.252632,272.448 L381.978947,304.734857 C381.978947,304.734857 398.778947,316.013143 426.852632,316.013143 C467.747368,316.013143 497.147368,295.889143 497.147368,259.621714 C497.368421,239.94 482.557895,226.229143 464.652632,215.835429 Z M627.789474,147.944571 C607.673684,147.944571 591.757895,157.453714 579.6,172.049143 L578.936842,171.828 L596.4,80.2748571 L550.863158,80.2748571 L506.652632,313.138286 L552.189474,313.138286 L567.442105,233.526857 C573.410526,203.451429 588.884211,184.875429 603.473684,184.875429 C613.642105,184.875429 617.621053,191.730857 617.621053,201.682286 C617.621053,207.874286 616.957895,215.614286 615.631579,221.806286 L598.389474,312.917143 L643.926316,312.917143 L661.831579,218.710286 C663.821053,208.758857 665.147368,196.817143 665.147368,189.077143 C664.926316,163.424571 651.442105,147.944571 627.789474,147.944571 Z M767.936842,147.944571 C713.115789,147.944571 676.863158,197.480571 676.863158,252.545143 C676.863158,287.928 698.747368,316.234286 739.642105,316.234286 C793.357895,316.234286 829.831579,268.025143 829.831579,211.633714 C829.831579,178.904571 810.6,147.944571 767.936842,147.944571 Z M745.610526,281.293714 C730.136842,281.293714 723.505263,268.025143 723.505263,251.660571 C723.505263,225.565714 736.989474,182.885143 761.747368,182.885143 C777.884211,182.885143 783.189474,196.817143 783.189474,210.306857 C783.189474,238.392 769.705263,281.293714 745.610526,281.293714 Z M946.326316,147.944571 C915.6,147.944571 898.136842,174.924 898.136842,174.924 L897.473684,174.924 L900.126316,150.598286 L859.894737,150.598286 C857.905263,167.184 854.368421,192.173143 850.610526,210.970286 L819,377.712 L864.315789,377.712 L876.915789,310.263429 L877.8,310.263429 C877.8,310.263429 887.084211,316.234286 904.547368,316.234286 C958.042105,316.234286 992.968421,261.390857 992.968421,205.884 C993.189474,175.366286 979.484211,147.944571 946.326316,147.944571 Z M902.778947,281.957143 C890.842105,281.957143 883.989474,275.322857 883.989474,275.322857 L891.505263,232.642286 C896.810526,204.336 911.621053,185.317714 927.536842,185.317714 C941.463158,185.317714 945.663158,198.144 945.663158,210.306857 C945.663158,239.94 928.2,281.957143 902.778947,281.957143 Z M1058.17895,82.4862857 C1043.58947,82.4862857 1032.09474,93.9857143 1032.09474,108.802286 C1032.09474,122.292 1040.71579,131.58 1053.53684,131.58 L1054.2,131.58 C1068.34737,131.58 1080.50526,122.070857 1080.94737,105.264 C1080.94737,91.9954286 1072.10526,82.4862857 1058.17895,82.4862857 Z M994.515789,312.917143 L1040.05263,312.917143 L1071,151.482857 L1025.24211,151.482857 L994.515789,312.917143 Z M1186.83158,151.261714 L1155.22105,151.261714 L1156.76842,143.742857 C1159.42105,128.262857 1168.70526,114.330857 1183.73684,114.330857 C1191.91579,114.330857 1198.32632,116.542286 1198.32632,116.542286 L1207.16842,80.9382857 C1207.16842,80.9382857 1199.21053,76.9577143 1182.41053,76.9577143 C1166.27368,76.9577143 1150.13684,81.6017143 1137.75789,92.2165714 C1122.28421,105.485143 1114.98947,124.503429 1111.45263,143.742857 L1110.12632,151.261714 L1088.90526,151.261714 L1082.27368,185.538857 L1103.49474,185.538857 L1079.4,312.917143 L1125.15789,312.917143 L1149.25263,185.538857 L1180.64211,185.538857 L1186.83158,151.261714 Z M1296.47368,151.482857 C1296.47368,151.482857 1267.95789,223.354286 1255.13684,262.496571 L1254.47368,262.496571 C1253.58947,249.891429 1243.2,151.482857 1243.2,151.482857 L1195.23158,151.482857 L1222.64211,299.648571 C1223.30526,302.965714 1222.86316,304.956 1221.75789,307.167429 C1216.45263,317.34 1207.61053,327.291429 1197,334.589143 C1188.37895,340.781143 1178.87368,344.761714 1171.35789,347.415429 L1183.95789,386.115429 C1193.24211,384.125143 1212.25263,376.606286 1228.61053,361.347429 C1249.38947,341.886857 1268.62105,311.811429 1288.29474,270.9 L1344,151.482857 L1296.47368,151.482857 Z" id="Shape" fill="#000000"></path>
        </g>
    </g>
</svg>