<?xml version="1.0" encoding="UTF-8"?>
<svg width="205px" height="96px" viewBox="0 0 205 96" version="1.1" xmlns="http://www.w3.org/2000/svg" xmlns:xlink="http://www.w3.org/1999/xlink">
    <!-- Generator: Sketch 43.2 (39069) - http://www.bohemiancoding.com/sketch -->
    <title>Julian</title>
    <desc>Created with Sketch.</desc>
    <defs></defs>
    <g id="Page-1" stroke="none" stroke-width="1" fill="none" fill-rule="evenodd">
        <path d="M91.8,19.6 C92.333336,20.133336 92.6,20.73333 92.6,21.4 C92.6,21.666668 92.26667,22.599992 91.6,24.2 C90.93333,25.800008 89.466678,28.499981 87.2,32.3 C84.933322,36.100019 81.533356,41.133302 77,47.4 C72.466644,53.666698 66.400038,61.599952 58.8,71.2 L57.2,72.8 C56.666664,73.333336 56.133336,73.93333 55.6,74.6 C55.066664,75.26667 54.500003,75.93333 53.9,76.6 C53.299997,77.26667 52.66667,77.93333 52,78.6 C52.66667,78.733334 53.233331,78.766667 53.7,78.7 C54.166669,78.633333 54.666664,78.6 55.2,78.6 C57.600012,78.6 59.46666,78.466668 60.8,78.2 C62.13334,77.933332 62.933332,77.666668 63.2,77.4 C63.733336,77.133332 64.066666,76.933334 64.2,76.8 C64.333334,76.666666 64.466666,76.6 64.6,76.6 L64.4,76.6 C64.666668,76.333332 65.066664,76.399998 65.6,76.8 C65.6,77.866672 64.500011,78.766663 62.3,79.5 C60.099989,80.233337 57.866678,80.6 55.6,80.6 L53.1,80.6 C52.099995,80.6 51.133338,80.533334 50.2,80.4 C48.733326,81.866674 46.966677,83.466658 44.9,85.2 C42.833323,86.933342 40.633345,88.533326 38.3,90 C35.966655,91.466674 33.500013,92.699995 30.9,93.7 C28.299987,94.700005 25.66668,95.2 23,95.2 C20.066652,95.2 17.26668,94.466674 14.6,93 C11.93332,91.533326 9.566677,89.666678 7.5,87.4 C5.433323,85.133322 3.766673,82.66668 2.5,80 C1.233327,77.33332 0.6,74.866678 0.6,72.6 C0.6,70.866658 1.233327,69.66667 2.5,69 C3.766673,68.33333 4.933328,68 6,68 C6.933338,68 7.866662,68.033333 8.8,68.1 C9.733338,68.166667 10.733328,68.266666 11.8,68.4 C15.13335,69.06667 18.333318,69.866662 21.4,70.8 C24.466682,71.733338 27.466652,72.599996 30.4,73.4 C36.40003,75.266676 41.666644,76.666662 46.2,77.6 C50.466688,72.799976 54.699979,67.800026 58.9,62.6 C63.100021,57.399974 66.733318,52.666688 69.8,48.4 C74.066688,42.39997 77.366655,37.566685 79.7,33.9 C82.033345,30.233315 83.86666,27.333344 85.2,25.2 C86.53334,23.066656 87.53333,21.566671 88.2,20.7 C88.86667,19.833329 89.733328,19.4 90.8,19.4 C91.333336,19.4 91.666666,19.466666 91.8,19.6 Z M28.4,89.8 C31.200014,88.733328 33.93332,87.300009 36.6,85.5 C39.26668,83.699991 41.733322,81.733344 44,79.6 C41.199986,78.93333 38.100017,78.200004 34.7,77.4 C31.299983,76.599996 27.800018,75.666672 24.2,74.6 C24.066666,74.6 23.900001,74.566667 23.7,74.5 C23.499999,74.433333 23.333334,74.4 23.2,74.4 C20.799988,73.73333 18.26668,73.06667 15.6,72.4 C12.93332,71.73333 10.26668,71.4 7.6,71.4 C6.666662,71.4 5.86667,71.466666 5.2,71.6 C4.53333,71.733334 4.2,72.13333 4.2,72.8 C4.2,74.80001 4.799994,76.866656 6,79 C7.200006,81.133344 8.733324,83.099991 10.6,84.9 C12.466676,86.700009 14.499989,88.166661 16.7,89.3 C18.900011,90.433339 20.99999,91 23,91 C24.733342,91 26.533324,90.600004 28.4,89.8 Z M103.2,1.4 L104.1,2 C104.300001,2.133334 104.4,2.399998 104.4,2.8 C104.4,3.066668 104.000004,3.766661 103.2,4.9 C102.399996,6.033339 101.433339,7.299993 100.3,8.7 C99.166661,10.100007 98.000006,11.333328 96.8,12.4 C95.599994,13.466672 94.66667,14 94,14 C93.599998,14 93.333334,13.733336 93.2,13.2 L94.2,11.4 C94.86667,10.199994 95.633329,8.833341 96.5,7.3 C97.366671,5.766659 98.199996,4.33334 99,3 C99.800004,1.66666 100.333332,0.800002 100.6,0.4 C101.133336,0.4 101.866662,0.666664 102.8,1.2 L103.2,1.4 Z M98.6,75 C99.000002,75 99.2,75.199998 99.2,75.6 C99.2,75.466666 99.133334,75.599998 99,76 C98.866666,76.400002 98.533336,76.6 98,76.6 C97.866666,76.6 97.600002,76.899997 97.2,77.5 C96.799998,78.100003 96.200004,78.699997 95.4,79.3 C94.599996,79.900003 93.666672,80.466664 92.6,81 C91.533328,81.533336 90.33334,81.8 89,81.8 C87.933328,81.8 86.966671,81.600002 86.1,81.2 C85.233329,80.799998 84.8,79.93334 84.8,78.6 C83.733328,79.93334 82.000012,81.26666 79.6,82.6 C77.199988,83.93334 74.933344,84.6 72.8,84.6 C72.13333,84.6 71.433337,84.400002 70.7,84 C69.966663,83.599998 69.466668,83.133336 69.2,82.6 L68.8,81.8 C68.666666,81.13333 68.6,80.666668 68.6,80.4 L68.8,79.2 C69.066668,78.53333 69.266666,78.000002 69.4,77.6 C69.533334,77.199998 69.733332,76.800002 70,76.4 C69.33333,76.666668 68.566671,76.866666 67.7,77 C66.833329,77.133334 66.06667,77.333332 65.4,77.6 C64.599996,77.866668 63.733338,78.066666 62.8,78.2 L62,78.2 L63.2,77.8 L63,77.8 L63.4,77.8 L63.6,77.6 L63.6,77.4 L63.6,77.6 L63.6,77.4 C67.60002,75.533324 70.499991,73.966673 72.3,72.7 C74.100009,71.433327 75.133332,70.8 75.4,70.8 C75.933336,70.8 76.499997,71.066664 77.1,71.6 C77.700003,72.133336 78,72.666664 78,73.2 C78,73.600002 77.766669,73.999998 77.3,74.4 C76.833331,74.800002 76.333336,75.266664 75.8,75.8 C75.266664,76.333336 74.733336,76.966663 74.2,77.7 C73.666664,78.433337 73.333334,79.266662 73.2,80.2 C74.266672,80.2 75.933322,79.800004 78.2,79 C80.466678,78.199996 83.333316,75.733354 86.8,71.6 L87.4,70.6 L87.6,70.8 L87.8,70.8 C87.8,70.533332 87.866666,70.4 88,70.4 C88.133334,70.4 88.233333,70.466666 88.3,70.6 C88.366667,70.733334 89.06666,71.199996 90.4,72 L90.2,72.8 L90.6,73.2 C90.6,73.333334 90.533334,73.466666 90.4,73.6 L90.2,73.6 L90.4,73.6 L90.2,73.4 L89.8,73.8 C88.46666,76.066678 87.8,77.999992 87.8,79.6 C87.8,79.866668 87.933332,79.866668 88.2,79.6 C88.466668,79.333332 88.93333,79.2 89.6,79.2 C92.000012,79.2 93.999992,78.500007 95.6,77.1 C97.200008,75.699993 98.133332,75 98.4,75 L98.6,75 Z M144.162484,20.2777921 L143.8,20.6 C142.733328,21.533338 141.800004,22.433329 141,23.3 C140.199996,24.166671 139.333338,25.066662 138.4,26 L137.8,26.8 L138.2,26.4 L139.4,25 L143,21.4 C143.380783,21.0192166 143.768278,20.6451477 144.162484,20.2777921 L144.162484,20.2777921 Z M146.8,17.9750001 C146.600001,18.1249998 146.400001,18.266666 146.2,18.4 L145.645587,18.9544134 C146.024671,18.6305574 146.409475,18.3124199 146.8,18 L146.8,17.9750001 L146.8,17.9750001 Z M141.419505,22.3832818 C140.990762,22.8259045 140.717596,23.1648078 140.6,23.4 L140,24 L140.2,23.8 L140.4,23.4 L140.4,23.6 L140.8,23 L140.8,23.2 L140.8,23 L141.4,22.4 L142.8,21.2 C142.933334,20.799998 143.199998,20.533334 143.6,20.4 L144.4,19.6 C145.466672,18.533328 146.433329,17.766669 147.3,17.3 C147.682651,17.093957 148.045807,16.907409 148.389467,16.7403551 L148.6,16.6 L150,16 C150,15.599998 150.266664,15.4 150.8,15.4 C151.733338,15.4 152.333332,15.766663 152.6,16.5 C152.866668,17.233337 153,17.93333 153,18.6 C153,19.800006 152.300007,21.599988 150.9,24 C149.499993,26.400012 147.533346,29.199984 145,32.4 C142.466654,35.600016 139.400018,39.133314 135.8,43 C132.199982,46.866686 128.200022,50.79998 123.8,54.8 C121.933324,56.666676 120.133342,58.333326 118.4,59.8 C116.666658,61.266674 115.13334,62.533328 113.8,63.6 C111.266654,67.466686 109.200008,70.699987 107.6,73.3 C105.999992,75.900013 104.666672,77.966659 103.6,79.5 C102.533328,81.033341 101.700003,82.099997 101.1,82.7 C100.499997,83.300003 100.000002,83.6 99.6,83.6 C99.066664,83.6 98.566669,83.366669 98.1,82.9 C97.633331,82.433331 97.4,82.000002 97.4,81.6 C97.4,80.93333 97.666664,80.300003 98.2,79.7 C98.733336,79.099997 99,78.600002 99,78.2 L100.6,75.4 C102.733344,71.799982 105.46665,67.633357 108.8,62.9 C112.13335,58.166643 115.733314,53.366691 119.6,48.5 C123.466686,43.633309 127.39998,38.800024 131.4,34 C134.534523,30.2385719 137.505259,26.7637517 140.312262,23.5754768 C140.341526,23.542238 140.370772,23.5090303 140.4,23.4758538 C140.513218,23.3473424 140.626169,23.2192984 140.738852,23.0917216 C140.816685,23.0036024 140.89439,22.9157061 140.971967,22.8280327 C141.521026,22.2075213 142.063703,21.5981772 142.6,21 L141.6,22.2 C141.537048,22.2629516 141.476883,22.3240455 141.419505,22.3832818 L141.419505,22.3832818 Z M147,17.9333333 L147.4,17.6 L147.2,17.8 L147,17.9333333 L147,17.9333333 Z M148.647214,16.7273212 C149.164645,16.3962107 149.615572,16.1537714 150,16 L149.6,16.4 C149.44379,16.478105 149.310457,16.5447716 149.2,16.6 C149.015737,16.6 148.831475,16.6424402 148.647214,16.7273212 L148.647214,16.7273212 Z M148.647214,16.7273212 C148.489053,16.8285303 148.324679,16.9380241 148.154091,17.0558026 C147.914939,17.2209189 147.663576,17.402318 147.4,17.6 C146.866664,18.000002 146.400002,18.333332 146,18.6 L147,17.9333333 L146.2,18.6 L145.6,19.2 C145.466666,19.2 145.100003,19.499997 144.5,20.1 L139.8,24.8 L142,22.6 C142.800004,21.799996 143.599996,21.06667 144.4,20.4 L145.6,19.2 L145.6,19.4 L145.6,19.2 L146,19 L145.8,19.2 L145.6,19.2 L146.2,18.6 L146.4,18.6 L146.8,18.2 C146.933334,18.066666 147.033333,18 147.1,18 C147.166667,18 147.266666,17.933334 147.4,17.8 C147.533334,17.8 147.6,17.733334 147.6,17.6 L148,17.2 C148.051364,17.1486364 148.102727,17.1005706 148.154091,17.0558026 C148.318465,16.9125346 148.48284,16.8030409 148.647214,16.7273212 L148.647214,16.7273212 Z M144.35208,20.6789103 L143,22.2 C143.027287,22.1590699 143.05597,22.1181398 143.086048,22.0772097 C143.251939,21.8514718 143.460293,21.6257353 143.711113,21.3999982 C143.82477,21.2977066 143.947148,21.1954149 144.078245,21.0931229 C144.118027,21.0620819 144.158612,21.031041 144.2,21 C144.733336,20.599998 145.199998,20.200002 145.6,19.8 L146,19.6 L146.6,19 L147.4,18.4 L148.8,17 C147.46666,17.800004 146.166673,18.833327 144.9,20.1 L142.2,22.8 C142.440779,22.5592206 142.735906,22.3184445 143.085386,22.0776657 C143.085607,22.0775137 143.085828,22.0773617 143.086048,22.0772097 C143.105474,22.0638286 143.125068,22.0504474 143.14483,22.0370662 C143.163077,22.0247108 143.181467,22.0123554 143.2,22 C143.49275,21.8048334 143.785497,21.5025428 144.078245,21.0931229 C144.169523,20.9654669 144.260801,20.8273961 144.35208,20.6789103 L144.35208,20.6789103 Z M119.6,54.8 C118.93333,55.733338 118.333336,56.666662 117.8,57.6 C117.266664,58.533338 116.66667,59.466662 116,60.4 C118.933348,57.599986 122.39998,54.100021 126.4,49.9 C130.40002,45.699979 134.233315,41.466688 137.9,37.2 C141.566685,32.933312 144.699987,29.033351 147.3,25.5 C149.900013,21.966649 151.2,19.400008 151.2,17.8 L151.2,17.6 L151,17.6 L150.8,17.8 L151,17.8 C150.33333,18.200002 149.466672,18.866662 148.4,19.8 C147.466662,20.600004 146.200008,21.766659 144.6,23.3 C142.999992,24.833341 141.000012,26.93332 138.6,29.6 C135.399984,33.60002 132.200016,37.733312 129,42 C125.799984,46.266688 122.666682,50.533312 119.6,54.8 Z M129.4,60.8 C130.866674,60.933334 131.6,61.533328 131.6,62.6 C131.6,63.000002 131.400002,63.499997 131,64.1 C130.599998,64.700003 130.133336,65.33333 129.6,66 C129.066664,66.66667 128.46667,67.233331 127.8,67.7 C127.13333,68.166669 126.533336,68.4 126,68.4 C125.33333,68.4 124.766669,68.133336 124.3,67.6 C123.833331,67.066664 123.6,66.600002 123.6,66.2 C123.6,65.53333 123.866664,64.900003 124.4,64.3 C124.933336,63.699997 125.53333,63.06667 126.2,62.4 L123.8,66 C124.600004,65.066662 125.399996,63.966673 126.2,62.7 C127.000004,61.433327 128.06666,60.8 129.4,60.8 Z M112,79.8 C112.400002,78.999996 112.733332,78.400002 113,78 C113.266668,77.599998 113.533332,77.266668 113.8,77 C110.333316,77.933338 107.533344,78.73333 105.4,79.4 C103.266656,80.06667 102.066668,80.4 101.8,80.4 C101.533332,80.4 101.433333,80.433333 101.5,80.5 C101.566667,80.566667 101.6,80.533334 101.6,80.4 C101.6,80.266666 101.666666,80.133334 101.8,80 C101.933334,79.866666 102.433329,79.600002 103.3,79.2 C104.166671,78.799998 105.533324,78.166671 107.4,77.3 C109.266676,76.433329 111.86665,75.066676 115.2,73.2 C115.86667,72.799998 116.966659,72.233337 118.5,71.5 C120.033341,70.766663 121.333328,70.4 122.4,70.4 L122,70.2 C122.266668,70.333334 122.666664,70.499999 123.2,70.7 C123.733336,70.900001 124.066666,71.533328 124.2,72.6 C123.933332,73.666672 123.46667,74.599996 122.8,75.4 C122.13333,76.200004 121.400004,76.93333 120.6,77.6 C119.799996,78.26667 119.100003,78.799998 118.5,79.2 C117.899997,79.600002 117.533334,79.866666 117.4,80 C119.800012,79.33333 122.066656,78.700003 124.2,78.1 C126.333344,77.499997 127.799996,77.2 128.6,77.2 C129.26667,77.2 129.6,77.466664 129.6,78 C129.6,78.133334 129.533334,78.266666 129.4,78.4 C129.533334,78.133332 128.766675,78.433329 127.1,79.3 C125.433325,80.166671 122.26669,81.733322 117.6,84 L117.4,84 C116.999998,83.866666 116.533336,83.833333 116,83.9 C115.466664,83.966667 114.933336,83.900001 114.4,83.7 C113.866664,83.499999 113.366669,83.133336 112.9,82.6 C112.433331,82.066664 112.133334,81.200006 112,80 L112,79.8 Z M149.222222,71.6666673 L149.4,71.4 L149.4,71.6 L149.2,71.8 C149.2,71.7555556 149.207407,71.7111114 149.222222,71.6666673 L149.222222,71.6666673 Z M148.729412,73.1294118 L148.6,73 L148.8,73 L148.729412,73.1294118 L148.729412,73.1294118 Z M160.904808,77.3903838 C160.876283,77.3967946 160.841347,77.4 160.8,77.4 L160.4,77.4 L161,77.2 L160.904808,77.3903838 L160.904808,77.3903838 Z M149.497686,70.6046288 C149.530762,70.6015429 149.564867,70.6 149.6,70.6 L148.8,71.4 L149.6,70.4 L149.4,70.8 C149.4,70.933334 149.333334,71 149.2,71 L149.4,70.8 L149.4,71 L149.8,70.4 L150,70.6 L149.4,71.4 C149.31111,71.4888896 149.251851,71.5777783 149.222222,71.6666673 L149,72 C149,72.266668 148.966667,72.4 148.9,72.4 C148.833333,72.4 148.8,72.533332 148.8,72.8 L148.6,73 L148.6,73.2 L148.8,73.2 L148.729412,73.1294118 L147.6,75.2 C147.333332,75.733336 146.966669,76.399996 146.5,77.2 C146.033331,78.000004 145.8,78.73333 145.8,79.4 C145.8,79.666668 146.066664,79.8 146.6,79.8 C148.60001,79.8 150.433325,79.600002 152.1,79.2 C153.766675,78.799998 155.233327,78.400002 156.5,78 C157.766673,77.599998 158.799996,77.200002 159.6,76.8 L160.8,76.2 L160.8,76.4 L161,76.2 L160.8,76.2 L161,76.2 L161.4,76.4 L160.2,77 L160.6,76.8 L160.8,76.8 L161.4,76.4 L161.2,76.6 L161.4,76.6 L161.2,76.6 L161,76.8 L161.2,76.6 L161.2,76.8 L161.2,76.6 L161.2,76.8 L161.6,76.6 L161.4,76.6 L161.6,76.4 L161.6,76.6 L161.6,76.4 L161.6,76.6 L161.6,76.4 L161.6,76.6 L161.8,76.6 L161.4,76.8 L161.2,77 L161.4,77 L161.2,77.2 C161.066666,77.2 161,77.233333 161,77.3 C161,77.3459935 160.96827,77.3761213 160.904808,77.3903838 L160.8,77.6 L160.8,77.4 L160.8,77.6 L160,78.2 C159.733332,78.333334 159.400002,78.466666 159,78.6 C158.599998,78.733334 158.333334,78.8 158.2,78.8 L158.2,79 C158.2,79.133334 158.133334,79.2 158,79.2 C157.866666,79.333334 157.733334,79.4 157.6,79.4 C156.93333,79.666668 155.833341,80.333328 154.3,81.4 C152.766659,82.466672 150.066686,83.266664 146.2,83.8 C145.399996,83.8 144.600004,83.700001 143.8,83.5 C142.999996,83.299999 142.26667,82.666672 141.6,81.6 C140.93333,82.000002 140.133338,82.399998 139.2,82.8 C138.266662,83.200002 137.000008,83.599998 135.4,84 C134.866664,84 133.900007,83.733336 132.5,83.2 C131.099993,82.666664 130.4,81.466676 130.4,79.6 C130.4,78.666662 130.599998,77.86667 131,77.2 C130.066662,77.466668 129.000006,77.733332 127.8,78 C126.599994,78.266668 125.533338,78.533332 124.6,78.8 L124.4,78.8 C124.133332,78.933334 123.800002,79 123.4,79 C123.266666,79 123.133334,79.066666 123,79.2 L122.4,79.4 L122.2,79.2 L123.4,78.8 L123.2,78.8 L123.6,78.8 L123.8,78.6 L123.8,78.4 L132.8,74.4 L132.6,74.6 L132.8,74.6 L132.6,74.6 L132.8,74.6 L132.6,74.6 L132.8,74.6 L132.8,74.4 L133.2,74.6 C134.666674,73.133326 136.133326,72.100003 137.6,71.5 C139.066674,70.899997 140.13333,70.533334 140.8,70.4 C142.13334,70.4 142.933332,70.466666 143.2,70.6 L142.6,70.6 L143.6,70.6 C143.866668,70.733334 144.133332,70.933332 144.4,71.2 L143.4,71 C143.133332,70.866666 142.733336,70.8 142.2,70.8 L140.6,71 L142.4,71 C143.06667,71 143.599998,71.066666 144,71.2 L144.4,71.2 C145.200004,69.999994 145.799998,69.4 146.2,69.4 C146.733336,69.4 147.599994,69.999994 148.8,71.2 C148.913362,70.8599125 149.123104,70.6644009 149.429231,70.6134613 C149.451537,70.6097495 149.474356,70.6068053 149.497686,70.6046288 L149.497686,70.6046288 Z M142.92,71.0640001 L143.6,71.2 L144,71.2 L143.8,71.2 L144.4,71.2 L144.4,71.4 L143.8,71.2 L143.8,71.4 L143.8,71.2 L143.8,71.4 L143.6,71.2 L143.8,71.4 L143.4,71.2 C143.266666,71.2 143.133334,71.166667 143,71.1 C142.973333,71.0866667 142.946667,71.0746667 142.92,71.0640001 L142.92,71.0640001 Z M142.92,71.0640001 C142.813333,71.0213332 142.706667,71 142.6,71 L142.92,71.0640001 L142.92,71.0640001 Z M142.4,71.4 C142.666668,71.4 143.066664,71.533332 143.6,71.8 L144,71.8 L143.8,71.8 L144,72 C144,71.866666 144.066666,71.733334 144.2,71.6 L143.4,71.4 L143,71.4 L143.4,71.4 L143.4,71.6 L142.8,71.4 L142.4,71.4 Z M134.6,79.6 C136.066674,79.6 137.299995,79.333336 138.3,78.8 C139.300005,78.266664 140.13333,77.633337 140.8,76.9 C141.46667,76.166663 141.966665,75.500003 142.3,74.9 C142.633335,74.299997 142.8,73.933334 142.8,73.8 C142.8,73.533332 142.600002,73.4 142.2,73.4 C141.133328,73.4 139.766675,73.899995 138.1,74.9 C136.433325,75.900005 135.26667,77.199992 134.6,78.8 L134.6,79.6 Z M132.2,75.4 L132.4,75.2 L132.4,75.4 L132.4,75.2 L132.4,75.4 L132.4,75.2 L132.6,75 L132.2,75.4 Z M151.806334,80.394933 C151.867092,80.3463266 152.364976,79.9480189 153.3,79.2 C154.300005,78.399996 155.599992,77.500005 157.2,76.5 C158.800008,75.499995 160.633323,74.566671 162.7,73.7 C164.766677,72.833329 166.933322,72.266668 169.2,72 L169.4,72 C170.06667,72 170.73333,72.066666 171.4,72.2 C172.06667,72.333334 172.73333,72.933328 173.4,74 C173.4,75.066672 173.333334,75.833331 173.2,76.3 C173.066666,76.766669 172.933334,77.199998 172.8,77.6 C174.13334,76.799996 175.833323,75.766673 177.9,74.5 C179.966677,73.233327 182.733316,72.066672 186.2,71 C186.86667,71 187.733328,71.199998 188.8,71.6 C189.866672,72.000002 190.4,72.799994 190.4,74 C190.266666,75.733342 189.900003,77.033329 189.3,77.9 C188.699997,78.766671 188.333334,79.53333 188.2,80.2 C188.2,80.333334 188.266666,80.4 188.4,80.4 L189,80.4 C189.266668,80.4 189.599998,80.366667 190,80.3 C190.400002,80.233333 190.799998,80.2 191.2,80.2 C194.666684,79.399996 197.633321,78.66667 200.1,78 C202.566679,77.33333 203.933332,77 204.2,77 C204.733336,77 205,77.266664 205,77.8 C205,77.399998 204.66667,77.466664 204,78 C203.33333,78.533336 202.33334,79.199996 201,80 C199.66666,80.800004 198.033343,81.566663 196.1,82.3 C194.166657,83.033337 192.000012,83.4 189.6,83.4 C188.666662,83.4 187.53334,83.200002 186.2,82.8 L186,82.8 C185.199996,81.599994 184.8,80.600004 184.8,79.8 C184.933334,78.599994 185.166665,77.66667 185.5,77 C185.833335,76.33333 186.133332,75.800002 186.4,75.4 C185.866664,75.666668 185.133338,75.966665 184.2,76.3 C183.266662,76.633335 182.46667,77.066664 181.8,77.6 C176.46664,80.533348 172.933342,82.533328 171.2,83.6 C169.466658,84.666672 168.466668,85.2 168.2,85.2 C167.799998,85.2 167.400002,84.933336 167,84.4 C165.533326,84.4 164.8,84.000004 164.8,83.2 C164.933334,82.399996 165.299997,81.466672 165.9,80.4 C166.500003,79.333328 167.399994,77.866676 168.6,76 L168.8,75.8 C167.333326,75.8 165.666676,76.066664 163.8,76.6 C161.933324,77.133336 160.200008,77.766663 158.6,78.5 C156.999992,79.233337 155.600006,79.866664 154.4,80.4 C153.199994,80.933336 152.533334,81.2 152.4,81.2 C152.041096,81.2 151.843209,80.9316467 151.806334,80.394933 L151.806334,80.394933 Z M151.806334,80.394933 C151.802111,80.398311 151.8,80.4 151.8,80.4 L151.806253,80.3937474 C151.80628,80.3941427 151.806307,80.3945379 151.806334,80.394933 L151.806334,80.394933 Z" id="Julian" fill="#000000"></path>
    </g>
</svg>