<?xml version="1.0" encoding="UTF-8"?>
<svg width="1689px" height="893px" viewBox="0 0 1689 893" version="1.1" xmlns="http://www.w3.org/2000/svg" xmlns:xlink="http://www.w3.org/1999/xlink">
    <!-- Generator: Sketch 48.2 (47327) - http://www.bohemiancoding.com/sketch -->
    <title>webapp</title>
    <desc>Created with Sketch.</desc>
    <defs>
        <linearGradient x1="50%" y1="0%" x2="50%" y2="100%" id="linearGradient-1">
            <stop stop-color="#FFFFFF" offset="0%"></stop>
            <stop stop-color="#FFFFFF" offset="97.9571907%"></stop>
        </linearGradient>
        <path d="M33.9862846,0.806825672 L67.947821,0.807669913 C70.6646385,0.807737995 72.8842525,2.97720458 72.9463944,5.69331132 C73.2675149,19.7288881 80.2894267,26.9102586 94.0121297,27.2374228 C116.862619,27.7822035 218.77776,27.2460152 238.845411,27.2460152 C250.947584,27.2460152 257.281914,20.0344925 257.8484,5.61144706 L257.848403,5.61144718 C257.953781,2.92848652 260.159395,0.807747747 262.844424,0.807681089 L297.613396,0.805993701 C315.94925,0.805538495 330.813766,15.6693161 330.814221,34.0051702 C330.814221,34.005445 330.814221,34.0057197 330.814221,34.0059945 L330.813397,685.393848 C330.813397,703.729702 315.94925,718.593849 297.613396,718.593849 L33.9862847,718.593849 C15.6504305,718.593849 0.786283892,703.729702 0.786283892,685.393848 L0.785451921,34.0059945 C0.785451921,15.6701403 15.6495986,0.805993691 33.9854527,0.805993691 C33.98573,0.805993691 33.9860073,0.805993694 33.9862847,0.805993701 Z" id="path-2"></path>
        <linearGradient x1="50%" y1="0%" x2="50%" y2="100%" id="linearGradient-4">
            <stop stop-color="#FF960A" offset="0%"></stop>
            <stop stop-color="#FD5200" offset="100%"></stop>
        </linearGradient>
        <rect id="path-5" x="171" y="571" width="137.775689" height="162" rx="5"></rect>
        <filter x="-13.4%" y="-10.8%" width="126.9%" height="122.8%" filterUnits="objectBoundingBox" id="filter-6">
            <feOffset dx="0" dy="1" in="SourceAlpha" result="shadowOffsetOuter1"></feOffset>
            <feGaussianBlur stdDeviation="6" in="shadowOffsetOuter1" result="shadowBlurOuter1"></feGaussianBlur>
            <feComposite in="shadowBlurOuter1" in2="SourceAlpha" operator="out" result="shadowBlurOuter1"></feComposite>
            <feColorMatrix values="0 0 0 0 0.180392157   0 0 0 0 0.407843137   0 0 0 0 0.815686275  0 0 0 0.2 0" type="matrix" in="shadowBlurOuter1"></feColorMatrix>
        </filter>
        <linearGradient x1="50%" y1="0%" x2="50%" y2="100%" id="linearGradient-7">
            <stop stop-color="#CAD3FF" offset="0%"></stop>
            <stop stop-color="#93A5FF" offset="100%"></stop>
        </linearGradient>
        <rect id="path-8" x="18" y="674" width="137.775689" height="143.927203" rx="5"></rect>
        <filter x="-13.4%" y="-12.2%" width="126.9%" height="125.7%" filterUnits="objectBoundingBox" id="filter-9">
            <feOffset dx="0" dy="1" in="SourceAlpha" result="shadowOffsetOuter1"></feOffset>
            <feGaussianBlur stdDeviation="6" in="shadowOffsetOuter1" result="shadowBlurOuter1"></feGaussianBlur>
            <feComposite in="shadowBlurOuter1" in2="SourceAlpha" operator="out" result="shadowBlurOuter1"></feComposite>
            <feColorMatrix values="0 0 0 0 0.180392157   0 0 0 0 0.407843137   0 0 0 0 0.815686275  0 0 0 0.2 0" type="matrix" in="shadowBlurOuter1"></feColorMatrix>
        </filter>
        <rect id="path-10" x="1347" y="205" width="302" height="264" rx="12"></rect>
        <filter x="-6.1%" y="-6.6%" width="112.3%" height="114.0%" filterUnits="objectBoundingBox" id="filter-11">
            <feOffset dx="0" dy="1" in="SourceAlpha" result="shadowOffsetOuter1"></feOffset>
            <feGaussianBlur stdDeviation="6" in="shadowOffsetOuter1" result="shadowBlurOuter1"></feGaussianBlur>
            <feComposite in="shadowBlurOuter1" in2="SourceAlpha" operator="out" result="shadowBlurOuter1"></feComposite>
            <feColorMatrix values="0 0 0 0 0.180392157   0 0 0 0 0.407843137   0 0 0 0 0.815686275  0 0 0 0.2 0" type="matrix" in="shadowBlurOuter1"></feColorMatrix>
        </filter>
        <filter x="-88.2%" y="-88.2%" width="276.5%" height="276.5%" filterUnits="objectBoundingBox" id="filter-12">
            <feGaussianBlur stdDeviation="10" in="SourceGraphic"></feGaussianBlur>
        </filter>
        <linearGradient x1="50%" y1="0%" x2="50%" y2="100%" id="linearGradient-13">
            <stop stop-color="#9862FF" offset="0%"></stop>
            <stop stop-color="#7C30FE" offset="100%"></stop>
        </linearGradient>
        <rect id="path-14" x="1351" y="504" width="137.775689" height="143.927203" rx="5"></rect>
        <filter x="-13.4%" y="-12.2%" width="126.9%" height="125.7%" filterUnits="objectBoundingBox" id="filter-15">
            <feOffset dx="0" dy="1" in="SourceAlpha" result="shadowOffsetOuter1"></feOffset>
            <feGaussianBlur stdDeviation="6" in="shadowOffsetOuter1" result="shadowBlurOuter1"></feGaussianBlur>
            <feComposite in="shadowBlurOuter1" in2="SourceAlpha" operator="out" result="shadowBlurOuter1"></feComposite>
            <feColorMatrix values="0 0 0 0 0.180392157   0 0 0 0 0.407843137   0 0 0 0 0.815686275  0 0 0 0.2 0" type="matrix" in="shadowBlurOuter1"></feColorMatrix>
        </filter>
        <linearGradient x1="50%" y1="0%" x2="50%" y2="100%" id="linearGradient-16">
            <stop stop-color="#EFEFEF" offset="0%"></stop>
            <stop stop-color="#B0B0B0" offset="100%"></stop>
        </linearGradient>
        <rect id="path-17" x="1351" y="665" width="137.775689" height="143.927203" rx="5"></rect>
        <filter x="-13.4%" y="-12.2%" width="126.9%" height="125.7%" filterUnits="objectBoundingBox" id="filter-18">
            <feOffset dx="0" dy="1" in="SourceAlpha" result="shadowOffsetOuter1"></feOffset>
            <feGaussianBlur stdDeviation="6" in="shadowOffsetOuter1" result="shadowBlurOuter1"></feGaussianBlur>
            <feComposite in="shadowBlurOuter1" in2="SourceAlpha" operator="out" result="shadowBlurOuter1"></feComposite>
            <feColorMatrix values="0 0 0 0 0.180392157   0 0 0 0 0.407843137   0 0 0 0 0.815686275  0 0 0 0.2 0" type="matrix" in="shadowBlurOuter1"></feColorMatrix>
        </filter>
        <linearGradient x1="50%" y1="0%" x2="50%" y2="100%" id="linearGradient-19">
            <stop stop-color="#29F39A" offset="0%"></stop>
            <stop stop-color="#08AFE8" offset="100%"></stop>
        </linearGradient>
        <rect id="path-20" x="1504" y="504" width="137.775689" height="190" rx="5"></rect>
        <filter x="-13.4%" y="-9.2%" width="126.9%" height="119.5%" filterUnits="objectBoundingBox" id="filter-21">
            <feOffset dx="0" dy="1" in="SourceAlpha" result="shadowOffsetOuter1"></feOffset>
            <feGaussianBlur stdDeviation="6" in="shadowOffsetOuter1" result="shadowBlurOuter1"></feGaussianBlur>
            <feComposite in="shadowBlurOuter1" in2="SourceAlpha" operator="out" result="shadowBlurOuter1"></feComposite>
            <feColorMatrix values="0 0 0 0 0.180392157   0 0 0 0 0.407843137   0 0 0 0 0.815686275  0 0 0 0.2 0" type="matrix" in="shadowBlurOuter1"></feColorMatrix>
        </filter>
    </defs>
    <g id="Icons" stroke="none" stroke-width="1" fill="none" fill-rule="evenodd">
        <g id="webapp">
            <g id="Group-11">
                <g id="Group-8" transform="translate(996.000000, 205.000000)">
                    <g id="Group" transform="translate(0.000000, 308.000000)" fill="#BDC3C7">
                        <path d="M66.1469808,21.9856864 L209.465439,21.9856864 C215.561986,21.9856864 220.489936,17.0718855 220.489936,10.9928432 C220.489936,4.91380091 215.561986,0 209.465439,0 L66.1469808,0 C60.0504341,0 55.122484,4.91380091 55.122484,10.9928432 C55.122484,17.0718855 60.0504341,21.9856864 66.1469808,21.9856864 Z" id="Shape"></path>
                        <path d="M264.587923,43.9713728 L11.0244968,43.9713728 C4.92795007,43.9713728 0,48.8851737 0,54.964216 C0,61.0432583 4.92795007,65.9570592 11.0244968,65.9570592 L264.587923,65.9570592 C270.68447,65.9570592 275.61242,61.0432583 275.61242,54.964216 C275.61242,48.8851737 270.68447,43.9713728 264.587923,43.9713728 Z" id="Shape"></path>
                    </g>
                    <path d="M175.919527,215.296418 C170.985401,212.835421 167.861558,207.814546 167.861558,202.321248 L167.861558,187.40145 C168.932275,186.181938 170.168566,184.621841 171.471087,182.776093 C176.681171,175.45902 180.61081,167.405845 183.348312,158.957152 C188.249323,157.451989 191.858852,152.947484 191.858852,147.597012 L191.858852,131.677434 C191.858852,128.172709 190.291411,125.041529 187.862982,122.855197 L187.862982,99.8272907 C187.862982,99.8272907 192.609457,64 143.864264,64 C95.1190714,64 99.8655462,99.8272907 99.8655462,99.8272907 L99.8655462,122.855197 C97.4260789,125.041529 95.8696767,128.172709 95.8696767,131.677434 L95.8696767,147.597012 C95.8696767,151.793891 98.0883777,155.485388 101.399872,157.616788 C105.395741,174.94265 115.871101,187.40145 115.871101,187.40145 L115.871101,201.95869 C115.871101,207.265216 112.956986,212.154252 108.276741,214.692156 L72.5898732,234.061525 C70.1504059,235.379917 67.9758581,237.038893 66,238.884641 C87.822746,254.617447 114.557542,264 143.555192,264 C172.508688,264 199.199331,254.650407 221,238.972534 C218.946874,237.159745 216.661943,235.577675 214.134169,234.314217 L175.919527,215.296418 Z" id="Shape" fill="#FFFFFF"></path>
                    <path d="M276,132.080685 C276,59.1391268 216.673125,0 143.5,0 C70.326875,0 11,59.1391268 11,132.080685 C11,176.10758 32.696875,215.005342 65.92125,239 C67.8866667,237.15087 70.0729167,235.488855 72.513125,234.168048 L108.210833,214.763194 C112.8925,212.220641 115.8075,207.322649 115.8075,202.006401 L115.8075,187.422492 C115.8075,187.422492 105.328958,174.929861 101.331875,157.583264 C98.019375,155.44796 95.8,151.749701 95.8,147.545132 L95.8,131.596389 C95.8,128.085245 97.3679167,124.948328 99.7970833,122.75799 L99.7970833,99.6878972 C99.7970833,99.6878972 95.0491667,63.794971 143.809167,63.794971 C192.569167,63.794971 187.82125,99.6878972 187.82125,99.6878972 L187.82125,122.75799 C190.261458,124.948328 191.818333,128.085245 191.818333,131.596389 L191.818333,147.545132 C191.818333,152.905407 188.207708,157.418163 183.305208,158.926085 C180.577917,167.390255 176.636042,175.458184 171.424375,182.788662 C170.110417,184.637791 168.884792,186.200746 167.81375,187.422492 L167.81375,202.369623 C167.81375,207.872985 170.938542,212.903058 175.874167,215.368564 L214.089375,234.421203 C216.529583,235.642949 218.726875,237.194897 220.725417,238.922953 C254.082292,214.950309 276,176.195634 276,132.080685 Z" id="Shape" fill="#CAD3FF"></path>
                </g>
                <g id="Macbook" transform="translate(277.000000, 0.000000)" fill="#6C84FA">
                    <path d="M766.768362,759.470588 L765.536723,758.235294 L765.536723,767.5 C765.536723,771.946015 761.963517,775.529412 757.507018,775.529412 L560.492982,775.529412 C556.044502,775.529412 552.463277,771.956414 552.463277,767.5 L552.463277,758.235294 L551.231638,759.470588 L766.768362,759.470588 Z M550,757 L550,758.235294 L550,767.5 C550,773.323802 554.686966,778 560.492982,778 L757.507018,778 C763.323883,778 768,773.310547 768,767.5 L768,758.235294 L768,757 L766.768362,757 L551.231638,757 L550,757 Z" id="Rectangle-13" fill-rule="nonzero"></path>
                    <path d="M1167.65859,6.16260163 C1193.16177,6.16260163 1213.84211,26.873679 1213.84211,52.4114524 L1213.84211,705.588548 C1213.84211,731.131957 1193.15916,751.837398 1167.6432,751.837398 C1165.907,751.837398 1164.52851,753.216944 1164.52851,754.918699 C1164.52851,756.620455 1165.907,758 1167.60746,758 C1196.56052,758 1220,734.535022 1220,705.588548 L1220,52.4114524 C1220,23.4711631 1196.56368,0 1167.65859,0 L1106.07895,0 C1104.37849,0 1103,1.37954536 1103,3.08130081 C1103,4.78305626 1104.37849,6.16260163 1106.07895,6.16260163 L1167.65859,6.16260163 Z" id="Rectangle-11" fill-rule="nonzero"></path>
                    <path d="M151.341407,0 C122.436319,0 99,23.4711631 99,52.4114524 L99,705.588548 C99,734.535022 122.43948,758 151.356798,758 C153.092995,758 154.471487,756.620455 154.471487,754.918699 C154.471487,753.216944 153.092995,751.837398 151.39254,751.837398 C125.840837,751.837398 105.157895,731.131957 105.157895,705.588548 L105.157895,52.4114524 C105.157895,26.873679 125.838226,6.16260163 151.341407,6.16260163 L212.921053,6.16260163 C214.621508,6.16260163 216,4.78305626 216,3.08130081 C216,1.37954536 214.621508,0 212.921053,0 L151.341407,0 Z" id="Rectangle-11" fill-rule="nonzero"></path>
                    <polygon id="Rectangle-14" points="145 752 1168 752 1168 758 145 758"></polygon>
                    <path d="M1167.76764,59.4648437 L1166.53528,686.767578 L157.23236,685.535156 L158.46472,58.2324219 L1167.76764,59.4648437 Z M156,686.767578 L1167.76764,688 L1169,58.2324219 L157.23236,57 L156,686.767578 Z" id="Rectangle-12" fill-rule="nonzero"></path>
                    <path d="M11.8596637,752 C-2.57944034,752 -4.26393879,759.96689 9.18130902,765.306565 C9.46495713,765.42432 10.0849024,765.67796 10.978067,766.03879 C12.4621941,766.638363 14.1756829,767.321103 16.0966522,768.075014 C21.5811824,770.227496 27.6324577,772.520475 34.075706,774.858048 C48.8311722,780.211246 63.4468203,784.969502 77.1520243,788.692037 C82.9539619,790.267929 89.2281625,791.635812 95.9058149,792.810311 C108.828995,795.083305 122.649393,796.541786 136.465988,797.35183 C141.299063,797.635185 145.787902,797.817382 149.818868,797.918666 C152.24429,797.979608 153.983361,798 154.9222,798 C156.622022,798 158,796.627007 158,794.933333 C158,793.23966 156.622022,791.866667 154.9222,791.866667 C154.033496,791.866667 152.345926,791.846879 149.974049,791.787282 C146.009518,791.687667 141.589089,791.508247 136.827566,791.229087 C123.231028,790.431944 109.638292,788.997489 96.9758796,786.77036 C90.4740708,785.626789 84.3809962,784.298395 78.7709709,782.774629 C65.2489898,779.10186 50.7889581,774.394266 36.181766,769.094861 C29.791229,766.776412 23.7894632,764.502193 18.352581,762.368412 C16.451056,761.622131 14.7565393,760.946951 13.2910104,760.354892 C12.4143814,760.000742 11.8106037,759.753716 11.5016434,759.625831 C9.16725334,758.698402 7.48175376,757.83719 6.49993646,757.115401 C6.17791176,756.878663 6.27563812,757.024232 6.0977314,757.865647 C5.92836255,758.666683 5.83337975,758.729343 6.26602207,758.618813 C7.47266592,758.310541 9.37809585,758.133333 11.8596637,758.133333 L147.689703,758.133333 C149.389525,758.133333 150.767503,756.76034 150.767503,755.066667 C150.767503,753.372993 149.389525,752 147.689703,752 L11.8596637,752 Z" id="Path-9" fill-rule="nonzero"></path>
                    <path d="M1305.21236,758.133333 C1307.67804,758.133333 1309.5682,758.310243 1310.76001,758.617296 C1311.17173,758.723369 1311.05653,758.646337 1310.89437,757.826697 C1310.72998,756.995807 1310.81725,756.867531 1310.48372,757.111748 C1309.49515,757.835588 1307.80578,758.697718 1305.5113,759.609131 C1305.16122,759.753716 1304.55756,760.000742 1303.6811,760.354892 C1302.21585,760.946951 1300.52166,761.622131 1298.6205,762.368412 C1293.18467,764.502193 1287.18406,766.776412 1280.79476,769.094861 C1266.19038,774.394266 1251.73313,779.10186 1238.21376,782.774629 C1232.60482,784.298395 1226.51291,785.626789 1220.01236,786.77036 C1207.35239,788.997489 1193.76227,790.431944 1180.16835,791.229087 C1175.40775,791.508247 1170.98817,791.687667 1167.0244,791.787282 C1164.65298,791.846879 1162.96574,791.866667 1162.07721,791.866667 C1160.37771,791.866667 1159,793.23966 1159,794.933333 C1159,796.627007 1160.37771,798 1162.07721,798 C1163.01586,798 1164.7546,797.979608 1167.17955,797.918666 C1171.20974,797.817382 1175.69772,797.635185 1180.52986,797.35183 C1194.34379,796.541786 1208.16153,795.083305 1221.08222,792.810311 C1227.75858,791.635812 1234.03157,790.267929 1239.83239,788.692037 C1253.53496,784.969502 1268.14779,780.211246 1282.90041,774.858048 C1289.34242,772.520475 1295.39253,770.227496 1300.876,768.075014 C1302.7966,767.321103 1304.50976,766.638363 1305.9936,766.03879 C1306.88659,765.67796 1307.50642,765.42432 1307.83118,765.289865 C1321.20292,759.978706 1319.62434,752 1305.21236,752 L1171.30883,752 C1169.60933,752 1168.23162,753.372993 1168.23162,755.066667 C1168.23162,756.76034 1169.60933,758.133333 1171.30883,758.133333 L1305.21236,758.133333 Z" id="Path-9-Copy" fill-rule="nonzero"></path>
                    <rect id="Rectangle-15" x="151" y="792" width="1017" height="6"></rect>
                    <rect id="Rectangle-15-Copy" x="151" y="0" width="1017" height="6"></rect>
                    <path d="M662,40 C665.313708,40 668,37.3137085 668,34 C668,30.6862915 665.313708,28 662,28 C658.686292,28 656,30.6862915 656,34 C656,37.3137085 658.686292,40 662,40 Z" id="Oval"></path>
                </g>
                <g id="Group-10" transform="translate(433.000000, 58.000000)">
                    <g id="iPhone-X-Light" transform="translate(876.000000, 73.000000)">
                        <path d="M55.9987226,1.04415876 C26.9485456,1.04415876 3.39872408,24.5939802 3.39872408,53.6441572 L3.39872408,708.355843 C3.39872408,737.40602 26.9485456,760.955841 55.9987226,760.955841 L324.001277,760.955841 C353.051454,760.955841 376.601276,737.40602 376.601276,708.355843 L376.601276,53.6441572 C376.601276,24.5939802 353.051454,1.04415876 324.001277,1.04415876 L55.9987226,1.04415876 Z" id="Rectangle-3" stroke="#1B61AD" stroke-width="2"></path>
                        <path d="M58.5952153,9.30165615 C32.3064612,9.30165615 10.9952153,30.6129021 10.9952153,56.9016562 L10.9952153,704.098344 C10.9952153,730.387098 32.3064612,751.698344 58.5952153,751.698344 L320.004466,751.698344 C346.29322,751.698344 367.604466,730.387098 367.604466,704.098344 L367.604466,56.9016562 C367.604466,30.6129021 346.29322,9.30165615 320.004466,9.30165615 L58.5952153,9.30165615 Z" id="Rectangle-3" stroke="#1B61AD" stroke-width="2"></path>
                        <g id="Screen" transform="translate(24.000000, 21.000000)">
                            <mask id="mask-3" fill="white">
                                <use xlink:href="#path-2"></use>
                            </mask>
                            <use id="Mask" stroke="#1B61AD" stroke-width="2" fill="url(#linearGradient-1)" xlink:href="#path-2"></use>
                            <g id="Rectangle-2" opacity="0.5" mask="url(#mask-3)">
                                <use fill="black" fill-opacity="1" filter="url(#filter-6)" xlink:href="#path-5"></use>
                                <use fill="url(#linearGradient-4)" fill-rule="evenodd" xlink:href="#path-5"></use>
                                <rect stroke="#92B8FF" stroke-width="0.1" x="171.05" y="571.05" width="137.675689" height="161.9" rx="5"></rect>
                            </g>
                            <g id="Rectangle-2" mask="url(#mask-3)">
                                <use fill="black" fill-opacity="1" filter="url(#filter-9)" xlink:href="#path-8"></use>
                                <use fill="url(#linearGradient-7)" fill-rule="evenodd" xlink:href="#path-8"></use>
                                <rect stroke="#92B8FF" stroke-width="0.1" x="18.05" y="674.05" width="137.675689" height="143.827203" rx="5"></rect>
                            </g>
                        </g>
                        <path d="M2,226.459779 L2.39872408,226.459779 L2.39872408,282.274448 L2,282.274448 C0.8954305,282.274448 -8.67738547e-17,281.379017 -2.22044605e-16,280.274448 L-2.22044605e-16,228.459779 C-3.57315355e-16,227.35521 0.8954305,226.459779 2,226.459779 Z" id="button-4" fill="#1B61AD"></path>
                        <path d="M2,156.641167 L2.39872408,156.641167 L2.39872408,212.455836 L2,212.455836 C0.8954305,212.455836 -8.67738547e-17,211.560405 -2.22044605e-16,210.455836 L-2.22044605e-16,158.641167 C-3.57315355e-16,157.536598 0.8954305,156.641167 2,156.641167 Z" id="button-3" fill="#1B61AD"></path>
                        <path d="M2,102.026025 L2.39872408,102.026025 L2.39872408,131.436025 L2,131.436025 C0.8954305,131.436025 1.3527075e-16,130.540595 0,129.436025 L0,104.026025 C-1.3527075e-16,102.921456 0.8954305,102.026025 2,102.026025 Z" id="button-2" fill="#1B61AD"></path>
                        <path d="M377.601276,175.246057 L378,175.246057 C379.104569,175.246057 380,176.141487 380,177.246057 L380,262.069401 C380,263.17397 379.104569,264.069401 378,264.069401 L377.601276,264.069401 L377.601276,175.246057 Z" id="button-1" fill="#1B61AD"></path>
                        <rect id="speaker" stroke="#1B61AD" x="167.611643" y="27.9069401" width="42.1770335" height="5.00157729" rx="2.50078864"></rect>
                        <ellipse id="camera" stroke="#1B61AD" cx="230.07815" cy="30.4077287" rx="5.99681021" ry="6.00157729"></ellipse>
                        <g id="Status-Bar" transform="translate(44.000000, 33.000000)">
                            <g id="Battery" transform="translate(276.333333, 3.000000)">
                                <rect id="Border" stroke="#000000" opacity="0.35" x="0.5" y="0.806666667" width="19.24" height="9.42666667" rx="2.66666675"></rect>
                                <path d="M21.16,3.68 C21.9003526,3.99167439 22.381795,4.71671738 22.381795,5.52 C22.381795,6.32328262 21.9003526,7.04832561 21.16,7.36 L21.16,3.68 Z M3.17333337,2.14666667 L17.0666666,2.14666667 C17.8030463,2.14666667 18.4,2.74362035 18.4,3.48000004 L18.4,7.55999996 C18.4,8.29637965 17.8030463,8.89333333 17.0666666,8.89333333 L3.17333337,8.89333333 C2.43695368,8.89333333 1.84,8.29637965 1.84,7.55999996 L1.84,3.48000004 C1.84,2.74362035 2.43695368,2.14666667 3.17333337,2.14666667 Z" id="Cap" fill="#000000" fill-rule="nonzero"></path>
                            </g>
                            <path d="M265.662424,5.30941745 C267.587789,5.3095018 269.43953,6.04930658 270.83492,7.37592523 C270.939997,7.47834517 271.107951,7.47705322 271.211439,7.37302893 L272.215875,6.35932505 C272.268276,6.30656422 272.297491,6.23509663 272.297057,6.16073682 C272.296622,6.08637701 272.266572,6.015256 272.213558,5.96311164 C268.551105,2.45319306 262.773163,2.45319306 259.110711,5.96311164 C259.057658,6.0152173 259.027556,6.08631671 259.027067,6.16067663 C259.026578,6.23503654 259.055741,6.30652586 259.108104,6.35932505 L260.11283,7.37302893 C260.216252,7.47721019 260.384335,7.47850314 260.489348,7.37592523 C261.884916,6.0492195 263.73687,5.30941259 265.662424,5.30941745 Z M265.662424,8.60743064 C266.720287,8.60736582 267.740399,9.00056631 268.524545,9.7106301 C268.630604,9.81140434 268.797675,9.80921957 268.901063,9.7057064 L269.90434,8.69200251 C269.957175,8.63883086 269.986491,8.56669889 269.985729,8.49174438 C269.984967,8.41678987 269.954191,8.34526885 269.900286,8.29318244 C267.512406,6.07196983 263.81447,6.07196983 261.42659,8.29318244 C261.372651,8.34526822 261.341877,8.41682507 261.341169,8.4918038 C261.340461,8.56678253 261.369879,8.63890765 261.422825,8.69200251 L262.425812,9.7057064 C262.5292,9.80921957 262.696271,9.81140434 262.802331,9.7106301 C263.585958,9.00103549 264.60526,8.60786866 265.662424,8.60743064 Z M267.590489,11.0267074 C267.644146,10.9740475 267.673695,10.9015803 267.67216,10.8264155 C267.670624,10.7512506 267.638141,10.6800503 267.582379,10.6296251 C266.474049,9.69219472 264.850799,9.69219472 263.742469,10.6296251 C263.686668,10.6800098 263.654132,10.7511876 263.652542,10.8263529 C263.650952,10.9015181 263.680449,10.9740082 263.73407,11.0267074 L265.46982,12.7780981 C265.520694,12.8295702 265.590053,12.8585378 265.662424,12.8585378 C265.734795,12.8585378 265.804154,12.8295702 265.855028,12.7780981 L267.590489,11.0267074 Z" id="Wifi" fill="#000000" fill-rule="nonzero"></path>
                            <path d="M240.882353,9.54901961 L241.764706,9.54901961 C242.252016,9.54901961 242.647059,9.94406248 242.647059,10.4313725 L242.647059,12.1960784 C242.647059,12.6833885 242.252016,13.0784314 241.764706,13.0784314 L240.882353,13.0784314 C240.395043,13.0784314 240,12.6833885 240,12.1960784 L240,10.4313725 C240,9.94406248 240.395043,9.54901961 240.882353,9.54901961 Z M245,7.78431373 L245.882353,7.78431373 C246.369663,7.78431373 246.764706,8.17935659 246.764706,8.66666667 L246.764706,12.1960784 C246.764706,12.6833885 246.369663,13.0784314 245.882353,13.0784314 L245,13.0784314 C244.51269,13.0784314 244.117647,12.6833885 244.117647,12.1960784 L244.117647,8.66666667 C244.117647,8.17935659 244.51269,7.78431373 245,7.78431373 Z M249.117647,5.7254902 L250,5.7254902 C250.48731,5.7254902 250.882353,6.12053306 250.882353,6.60784314 L250.882353,12.1960784 C250.882353,12.6833885 250.48731,13.0784314 250,13.0784314 L249.117647,13.0784314 C248.630337,13.0784314 248.235294,12.6833885 248.235294,12.1960784 L248.235294,6.60784314 C248.235294,6.12053306 248.630337,5.7254902 249.117647,5.7254902 Z M253.235294,3.66666667 L254.117647,3.66666667 C254.604957,3.66666667 255,4.06170953 255,4.54901961 L255,12.1960784 C255,12.6833885 254.604957,13.0784314 254.117647,13.0784314 L253.235294,13.0784314 C252.747984,13.0784314 252.352941,12.6833885 252.352941,12.1960784 L252.352941,4.54901961 C252.352941,4.06170953 252.747984,3.66666667 253.235294,3.66666667 Z" id="Cellular" fill="#000000" fill-rule="nonzero"></path>
                            <text id="9:41" font-family=".AppleSystemUIFont" font-size="14" font-weight="normal" letter-spacing="-0.280000001" fill="#000000">
                                <tspan x="9.44337766" y="14.6219372">9:4</tspan>
                                <tspan x="30.2391198" y="14.6219372">1</tspan>
                            </text>
                        </g>
                    </g>
                    <g id="Group-2" opacity="0.400000006">
                        <path d="M455,0 L16.8526296,0 C7.54626697,0 0,7.81161381 0,17.4452129 L0,104.667325 L0,610.554787 C0,620.188386 7.54626697,628 16.8526296,628 L455,628 L455,104.665349 L455,0 Z M134.81531,52.3316866 L404.44402,52.3316866 C413.750383,52.3316866 421.29665,60.1433004 421.29665,69.7768995 C421.29665,79.4104986 413.750383,87.2221124 404.44402,87.2221124 L134.81531,87.2221124 C125.508947,87.2221124 117.96268,79.4104986 117.96268,69.7768995 C117.96268,60.1433004 125.508947,52.3316866 134.81531,52.3316866 Z M50.5559798,52.3316866 L67.4086094,52.3316866 C76.714972,52.3316866 84.261239,60.1433004 84.261239,69.7768995 C84.261239,79.4104986 76.714972,87.2221124 67.4086094,87.2221124 L50.5559798,87.2221124 C41.2496172,87.2221124 33.7033502,79.4104986 33.7033502,69.7768995 C33.7033502,60.1433004 41.2496172,52.3316866 50.5559798,52.3316866 Z M219.07464,156.999012 L168.51866,156.999012 C159.212297,156.999012 151.66603,149.187398 151.66603,139.553799 C151.66603,129.9202 159.212297,122.108586 168.51866,122.108586 L219.07464,122.108586 C228.381002,122.108586 235.927269,129.9202 235.927269,139.553799 C235.92536,149.187398 228.381002,156.999012 219.07464,156.999012 Z M235.92536,209.332675 C235.92536,218.966274 228.379093,226.777888 219.072731,226.777888 L168.516751,226.777888 C159.210388,226.777888 151.664121,218.966274 151.664121,209.332675 C151.664121,199.699076 159.210388,191.887462 168.516751,191.887462 L219.072731,191.887462 C228.381002,191.887462 235.92536,199.699076 235.92536,209.332675 Z M50.5559798,331.443237 L67.4086094,331.443237 C76.714972,331.443237 84.261239,339.254851 84.261239,348.88845 C84.261239,358.522049 76.714972,366.333663 67.4086094,366.333663 L50.5559798,366.333663 C41.2496172,366.333663 33.7033502,358.522049 33.7033502,348.88845 C33.7033502,339.254851 41.2496172,331.443237 50.5559798,331.443237 Z M33.7033502,279.109574 C33.7033502,269.475975 41.2496172,261.664361 50.5559798,261.664361 L67.4086094,261.664361 C76.714972,261.664361 84.261239,269.475975 84.261239,279.109574 C84.261239,288.743173 76.714972,296.554787 67.4086094,296.554787 L50.5559798,296.554787 C41.2496172,296.554787 33.7033502,288.743173 33.7033502,279.109574 Z M84.25933,401.220136 L101.11196,401.220136 C110.418322,401.220136 117.964589,409.03175 117.964589,418.665349 C117.964589,428.298948 110.418322,436.110562 101.11196,436.110562 L84.25933,436.110562 C74.9529673,436.110562 67.4067004,428.298948 67.4067004,418.665349 C67.4067004,409.03175 74.9529673,401.220136 84.25933,401.220136 Z M101.11196,226.775911 L84.25933,226.775911 C74.9529673,226.775911 67.4067004,218.964298 67.4067004,209.330699 C67.4067004,199.697099 74.9529673,191.885486 84.25933,191.885486 L101.11196,191.885486 C110.418322,191.885486 117.964589,199.697099 117.964589,209.330699 C117.964589,218.964298 110.418322,226.775911 101.11196,226.775911 Z M101.11196,156.999012 L84.25933,156.999012 C74.9529673,156.999012 67.4067004,149.187398 67.4067004,139.553799 C67.4067004,129.9202 74.9529673,122.108586 84.25933,122.108586 L101.11196,122.108586 C110.418322,122.108586 117.964589,129.9202 117.964589,139.553799 C117.96268,149.187398 110.418322,156.999012 101.11196,156.999012 Z M67.4086094,575.664361 L50.5559798,575.664361 C41.2496172,575.664361 33.7033502,567.852747 33.7033502,558.219148 C33.7033502,548.585549 41.2496172,540.773935 50.5559798,540.773935 L67.4086094,540.773935 C76.714972,540.773935 84.261239,548.585549 84.261239,558.219148 C84.25933,567.852747 76.714972,575.664361 67.4086094,575.664361 Z M101.11196,505.887462 L84.25933,505.887462 C74.9529673,505.887462 67.4067004,498.075848 67.4067004,488.442249 C67.4067004,478.80865 74.9529673,470.997036 84.25933,470.997036 L101.11196,470.997036 C110.418322,470.997036 117.964589,478.80865 117.964589,488.442249 C117.964589,498.075848 110.418322,505.887462 101.11196,505.887462 Z M404.44402,575.664361 L134.81531,575.664361 C125.508947,575.664361 117.96268,567.852747 117.96268,558.219148 C117.96268,548.585549 125.508947,540.773935 134.81531,540.773935 L404.44402,540.773935 C413.750383,540.773935 421.29665,548.585549 421.29665,558.219148 C421.29665,567.852747 413.750383,575.664361 404.44402,575.664361 Z M168.51866,470.997036 L219.07464,470.997036 C228.381002,470.997036 235.927269,478.80865 235.927269,488.442249 C235.927269,498.075848 228.381002,505.887462 219.07464,505.887462 L168.51866,505.887462 C159.212297,505.887462 151.66603,498.075848 151.66603,488.442249 C151.66603,478.80865 159.212297,470.997036 168.51866,470.997036 Z M151.66603,418.665349 C151.66603,409.03175 159.212297,401.220136 168.51866,401.220136 L219.07464,401.220136 C228.381002,401.220136 235.927269,409.03175 235.927269,418.665349 C235.927269,428.298948 228.381002,436.110562 219.07464,436.110562 L168.51866,436.110562 C159.212297,436.108586 151.66603,428.298948 151.66603,418.665349 Z M404.44402,505.887462 L286.48134,505.887462 C277.174977,505.887462 269.62871,498.075848 269.62871,488.442249 C269.62871,478.80865 277.174977,470.997036 286.48134,470.997036 L404.44402,470.997036 C413.750383,470.997036 421.29665,478.80865 421.29665,488.442249 C421.29665,498.075848 413.750383,505.887462 404.44402,505.887462 Z M404.44402,436.108586 L286.48134,436.108586 C277.174977,436.108586 269.62871,428.296972 269.62871,418.663373 C269.62871,409.029774 277.174977,401.21816 286.48134,401.21816 L404.44402,401.21816 C413.750383,401.21816 421.29665,409.029774 421.29665,418.663373 C421.29665,428.296972 413.750383,436.108586 404.44402,436.108586 Z M404.44402,366.331687 L134.81531,366.331687 C125.508947,366.331687 117.96268,358.520073 117.96268,348.886474 C117.96268,339.252875 125.508947,331.441261 134.81531,331.441261 L404.44402,331.441261 C413.750383,331.441261 421.29665,339.252875 421.29665,348.886474 C421.29665,358.520073 413.750383,366.331687 404.44402,366.331687 Z M404.44402,296.554787 L134.81531,296.554787 C125.508947,296.554787 117.96268,288.743173 117.96268,279.109574 C117.96268,269.475975 125.508947,261.664361 134.81531,261.664361 L404.44402,261.664361 C413.750383,261.664361 421.29665,269.475975 421.29665,279.109574 C421.29665,288.743173 413.750383,296.554787 404.44402,296.554787 Z M404.44402,226.775911 L286.48134,226.775911 C277.174977,226.775911 269.62871,218.964298 269.62871,209.330699 C269.62871,199.697099 277.174977,191.885486 286.48134,191.885486 L404.44402,191.885486 C413.750383,191.885486 421.29665,199.697099 421.29665,209.330699 C421.29665,218.964298 413.750383,226.775911 404.44402,226.775911 Z M404.44402,156.999012 L286.48134,156.999012 C277.174977,156.999012 269.62871,149.187398 269.62871,139.553799 C269.62871,129.9202 277.174977,122.108586 286.48134,122.108586 L404.44402,122.108586 C413.750383,122.108586 421.29665,129.9202 421.29665,139.553799 C421.29665,149.187398 413.750383,156.999012 404.44402,156.999012 Z" id="Shape" fill="#464655"></path>
                        <path d="M134.834075,87 L404.165925,87 C413.462041,87 421,79.1638536 421,69.5 C421,59.8361464 413.462041,52 404.165925,52 L134.834075,52 C125.537959,52 118,59.8361464 118,69.5 C118,79.1638536 125.537959,87 134.834075,87 Z" id="Shape" fill="#FFE169"></path>
                        <g id="Group" transform="translate(152.000000, 122.000000)" fill="#91E6BE">
                            <path d="M67.9144778,0.0850847089 L17.1272435,0.0850847089 C7.77831146,0.0850847089 0.197526154,7.92383013 0.197526154,17.5908891 C0.197526154,27.257948 7.77831146,35.0966934 17.1272435,35.0966934 L67.9144778,35.0966934 C77.2634098,35.0966934 84.8441952,27.257948 84.8441952,17.5908891 C84.8422774,7.92184714 77.2634098,0.0850847089 67.9144778,0.0850847089 Z" id="Shape"></path>
                            <path d="M67.9144778,70.1043361 L17.1272435,70.1043361 C7.77831146,70.1043361 0.197526154,77.9430816 0.197526154,87.6101405 C0.197526154,97.2771994 7.77831146,105.115945 17.1272435,105.115945 L67.9144778,105.115945 C77.2634098,105.115945 84.8441952,97.2771994 84.8441952,87.6101405 C84.8441952,77.9430816 77.2634098,70.1043361 67.9144778,70.1043361 Z" id="Shape"></path>
                        </g>
                        <path d="M404.165925,261 L134.834075,261 C125.537959,261 118,268.836146 118,278.5 C118,288.163854 125.537959,296 134.834075,296 L404.165925,296 C413.462041,296 421,288.163854 421,278.5 C421,268.836146 413.462041,261 404.165925,261 Z" id="Shape" fill="#FFE169"></path>
                        <g id="Group" transform="translate(117.000000, 122.000000)" fill="#FFFFFF">
                            <path d="M287.061076,209.371844 L17.6908824,209.371844 C8.39344257,209.371844 0.854410878,217.181931 0.854410878,226.813648 C0.854410878,236.445364 8.39344257,244.255451 17.6908824,244.255451 L287.061076,244.255451 C296.358516,244.255451 303.897548,236.445364 303.897548,226.813648 C303.897548,217.181931 296.358516,209.371844 287.061076,209.371844 Z" id="Shape"></path>
                            <path d="M287.061076,0.0800803405 L169.211497,0.0800803405 C159.914057,0.0800803405 152.375026,7.8901675 152.375026,17.5218839 C152.375026,27.1536003 159.914057,34.9636874 169.211497,34.9636874 L287.061076,34.9636874 C296.358516,34.9636874 303.897548,27.1536003 303.897548,17.5218839 C303.897548,7.88819176 296.358516,0.0800803405 287.061076,0.0800803405 Z" id="Shape"></path>
                            <path d="M287.061076,69.8433431 L169.211497,69.8433431 C159.914057,69.8433431 152.375026,77.6534302 152.375026,87.2851466 C152.375026,96.916863 159.914057,104.72695 169.211497,104.72695 L287.061076,104.72695 C296.358516,104.72695 303.897548,96.916863 303.897548,87.2851466 C303.897548,77.6534302 296.358516,69.8433431 287.061076,69.8433431 Z" id="Shape"></path>
                            <path d="M287.061076,279.135107 L169.211497,279.135107 C159.914057,279.135107 152.375026,286.945194 152.375026,296.576911 C152.375026,306.208627 159.914057,314.018714 169.211497,314.018714 L287.061076,314.018714 C296.358516,314.018714 303.897548,306.208627 303.897548,296.576911 C303.897548,286.945194 296.358516,279.135107 287.061076,279.135107 Z" id="Shape"></path>
                            <path d="M287.061076,348.89837 L169.211497,348.89837 C159.914057,348.89837 152.375026,356.708457 152.375026,366.340173 C152.375026,375.97189 159.914057,383.781977 169.211497,383.781977 L287.061076,383.781977 C296.358516,383.781977 303.897548,375.97189 303.897548,366.340173 C303.897548,356.708457 296.358516,348.89837 287.061076,348.89837 Z" id="Shape"></path>
                        </g>
                        <g id="Group" transform="translate(152.000000, 401.000000)" fill="#91E6BE">
                            <path d="M17.1272435,35.0914239 L67.9144778,35.0914239 C77.2634098,35.0914239 84.8441952,27.3134599 84.8441952,17.721359 C84.8441952,8.12925817 77.2634098,0.351294139 67.9144778,0.351294139 L17.1272435,0.351294139 C7.77831146,0.351294139 0.197526154,8.12925817 0.197526154,17.721359 C0.197526154,27.3134599 7.77831146,35.0914239 17.1272435,35.0914239 Z" id="Shape"></path>
                            <path d="M17.1272435,104.569716 L67.9144778,104.569716 C77.2634098,104.569716 84.8441952,96.7917518 84.8441952,87.199651 C84.8441952,77.6075501 77.2634098,69.8295861 67.9144778,69.8295861 L17.1272435,69.8295861 C7.77831146,69.8295861 0.197526154,77.6075501 0.197526154,87.199651 C0.197526154,96.7917518 7.77831146,104.569716 17.1272435,104.569716 Z" id="Shape"></path>
                        </g>
                        <path d="M404.165925,541 L134.834075,541 C125.537959,541 118,548.836146 118,558.5 C118,568.163854 125.537959,576 134.834075,576 L404.165925,576 C413.462041,576 421,568.163854 421,558.5 C421,548.834164 413.462041,541 404.165925,541 Z" id="Shape" fill="#FFE169"></path>
                        <g id="Group" transform="translate(33.000000, 52.000000)" fill="#FF6469">
                            <path d="M17.4939757,35.3739541 L34.394481,35.3739541 C43.7272815,35.3739541 51.2949862,27.5607318 51.2949862,17.9251489 C51.2949862,8.28956605 43.7272815,0.476343686 34.394481,0.476343686 L17.4939757,0.476343686 C8.16117513,0.476343686 0.593470394,8.28956605 0.593470394,17.9251489 C0.593470394,27.5607318 8.16117513,35.3739541 17.4939757,35.3739541 Z" id="Shape"></path>
                            <path d="M68.1935771,70.2695881 L51.2930718,70.2695881 C41.9602713,70.2695881 34.3925665,78.0828104 34.3925665,87.7183933 C34.3925665,97.3539762 41.9602713,105.167199 51.2930718,105.167199 L68.1935771,105.167199 C77.5263777,105.167199 85.0940824,97.3539762 85.0940824,87.7183933 C85.092168,78.0808339 77.5263777,70.2695881 68.1935771,70.2695881 Z" id="Shape"></path>
                            <path d="M68.1935771,140.060856 L51.2930718,140.060856 C41.9602713,140.060856 34.3925665,147.874078 34.3925665,157.509661 C34.3925665,167.145244 41.9602713,174.958466 51.2930718,174.958466 L68.1935771,174.958466 C77.5263777,174.958466 85.0940824,167.145244 85.0940824,157.509661 C85.0940824,147.874078 77.5263777,140.060856 68.1935771,140.060856 Z" id="Shape"></path>
                            <path d="M17.4939757,244.749734 L34.394481,244.749734 C43.7272815,244.749734 51.2949862,236.936512 51.2949862,227.300929 C51.2949862,217.665346 43.7272815,209.852124 34.394481,209.852124 L17.4939757,209.852124 C8.16117513,209.852124 0.593470394,217.665346 0.593470394,227.300929 C0.593470394,236.936512 8.16117513,244.749734 17.4939757,244.749734 Z" id="Shape"></path>
                            <path d="M17.4939757,314.541002 L34.394481,314.541002 C43.7272815,314.541002 51.2949862,306.72778 51.2949862,297.092197 C51.2949862,287.456614 43.7272815,279.643392 34.394481,279.643392 L17.4939757,279.643392 C8.16117513,279.643392 0.593470394,287.456614 0.593470394,297.092197 C0.593470394,306.72778 8.16117513,314.541002 17.4939757,314.541002 Z" id="Shape"></path>
                            <path d="M51.2930718,384.33227 L68.1935771,384.33227 C77.5263777,384.33227 85.0940824,376.519048 85.0940824,366.883465 C85.0940824,357.247882 77.5263777,349.434659 68.1935771,349.434659 L51.2930718,349.434659 C41.9602713,349.434659 34.3925665,357.247882 34.3925665,366.883465 C34.3925665,376.519048 41.9602713,384.33227 51.2930718,384.33227 Z" id="Shape"></path>
                            <path d="M68.1935771,419.227904 L51.2930718,419.227904 C41.9602713,419.227904 34.3925665,427.041126 34.3925665,436.676709 C34.3925665,446.312292 41.9602713,454.125514 51.2930718,454.125514 L68.1935771,454.125514 C77.5263777,454.125514 85.0940824,446.312292 85.0940824,436.676709 C85.0940824,427.041126 77.5263777,419.227904 68.1935771,419.227904 Z" id="Shape"></path>
                            <path d="M34.394481,489.021148 L17.4939757,489.021148 C8.16117513,489.021148 0.593470394,496.834371 0.593470394,506.469953 C0.593470394,516.105536 8.16117513,523.918759 17.4939757,523.918759 L34.394481,523.918759 C43.7272815,523.918759 51.2949862,516.105536 51.2949862,506.469953 C51.2930718,496.832394 43.7272815,489.021148 34.394481,489.021148 Z" id="Shape"></path>
                        </g>
                    </g>
                </g>
                <g id="Base">
                    <use fill="black" fill-opacity="1" filter="url(#filter-11)" xlink:href="#path-10"></use>
                    <use fill="#FFFFFF" fill-rule="evenodd" xlink:href="#path-10"></use>
                    <rect stroke="#92B8FF" stroke-width="0.1" x="1347.05" y="205.05" width="301.9" height="263.9" rx="12"></rect>
                </g>
                <path d="M1458.72065,413.74094 L1538.28065,413.74094 C1541.66501,413.74094 1544.40065,410.89334 1544.40065,407.37047 C1544.40065,403.8476 1541.66501,401 1538.28065,401 L1458.72065,401 C1455.33629,401 1452.60065,403.8476 1452.60065,407.37047 C1452.60065,410.89334 1455.33629,413.74094 1458.72065,413.74094 Z" id="Shape" fill="#BDC3C7"></path>
                <path d="M1568.88,426.25906 L1428.12,426.25906 C1424.73564,426.25906 1422,429.10666 1422,432.62953 C1422,436.1524 1424.73564,439 1428.12,439 L1568.88,439 C1572.26436,439 1575,436.1524 1575,432.62953 C1575,429.10666 1572.26436,426.25906 1568.88,426.25906 Z" id="Shape" fill="#BDC3C7"></path>
                <path d="M1578,312.264161 C1578,270.147278 1543.74713,236 1501.5,236 C1459.25287,236 1425,270.147278 1425,312.264161 C1425,337.685548 1437.52688,360.145344 1456.70925,374 C1457.844,372.932302 1459.10625,371.972644 1460.51512,371.210003 L1481.1255,360.005526 C1483.8285,358.537441 1485.5115,355.709312 1485.5115,352.639679 L1485.5115,344.218845 C1485.5115,344.218845 1479.46162,337.005526 1477.15387,326.9895 C1475.24138,325.756563 1473.96,323.621166 1473.96,321.193424 L1473.96,311.984526 C1473.96,309.95717 1474.86525,308.145897 1476.26775,306.881183 L1476.26775,293.560376 C1476.26775,293.560376 1473.5265,272.83559 1501.6785,272.83559 C1529.8305,272.83559 1527.08925,293.560376 1527.08925,293.560376 L1527.08925,306.881183 C1528.49813,308.145897 1529.397,309.95717 1529.397,311.984526 L1529.397,321.193424 C1529.397,324.288477 1527.31237,326.89417 1524.48187,327.764852 C1522.90725,332.652114 1520.63137,337.310583 1517.62237,341.543244 C1516.86375,342.610942 1516.15612,343.513401 1515.53775,344.218845 L1515.53775,352.849406 C1515.53775,356.027079 1517.34188,358.931473 1520.1915,360.35507 L1542.25537,371.356176 C1543.66425,372.061619 1544.93287,372.957723 1546.08675,373.955513 C1565.34562,360.113567 1578,337.736391 1578,312.264161 Z" id="Shape" fill="#CAD3FF"></path>
                <g id="cloud-computing" transform="translate(0.000000, 89.000000)">
                    <g id="Layer_1">
                        <g id="Group">
                            <path d="M273.2,263.8 C319.5,260.5 355.7,220.9 355.7,173.5 C355.7,132.3 327.7,95.8 289.4,85.7 C281.2,36.4 238.8,0 187.9,0 C151,0 116.8,20 98.6,51.6 C95.1,50.9 91.4,50.6 87.8,50.6 C56.7,50.6 31.4,75.9 31.4,107 C31.4,111 31.8,114.9 32.6,118.7 C12.5,133.3 0.3,156.9 0.3,181.9 C0.3,224.1 34.2,261.7 74.3,263.9 L74.9,263.9 L272.6,263.9 C272.7,263.9 273,263.9 273.2,263.8 Z M75.1,244.1 C45.2,242.3 20.1,213.9 20.1,181.9 C20.1,161.2 31.2,141.9 49.1,131.5 C53.3,129.1 55.1,124 53.4,119.5 C51.9,115.6 51.2,111.4 51.2,107 C51.2,86.8 67.6,70.4 87.8,70.4 C92.1,70.4 96.3,71.1 100.3,72.6 C105.1,74.4 110.5,72.2 112.7,67.5 C126.3,38.5 155.9,19.8 188,19.8 C231.1,19.8 266.7,52.1 270.8,94.9 C271.2,99.4 274.6,103 279,103.7 C311.5,109.3 336,139.3 336,173.5 C336,209.8 307.4,241.4 272.2,244.1 L75.1,244.1 L75.1,244.1 Z" id="Shape" fill="#CAD3FF"></path>
                            <text id="API" font-family="Whitney-BoldSC, Whitney" font-size="90" font-weight="bold" fill="#6677C9">
                                <tspan x="107" y="183">API</tspan>
                            </text>
                            <path d="M178,297.3 C172.5,297.3 168.1,301.7 168.1,307.2 L168.1,423.2 C154.4,427.4 144.2,440.1 143.9,455 C143.7,464.1 147,472.8 153.3,479.4 C159.6,486 168.1,489.8 177.2,490 L178,490 L178,490 C196.4,490 211.7,475 212.1,456.7 C212.3,447.6 209,438.9 202.7,432.3 C198.6,428 193.5,424.9 187.9,423.2 L187.9,307.2 C187.9,301.7 183.5,297.3 178,297.3 Z M188.4,446 C191,448.8 192.5,452.4 192.4,456.2 C192.2,463.9 185.8,470.2 178.1,470.2 L177.7,470.2 C173.9,470.1 170.3,468.5 167.7,465.8 C165.1,463 163.6,459.4 163.7,455.6 C163.9,447.9 170.3,441.6 178,441.6 L178.4,441.6 C182.2,441.6 185.7,443.2 188.4,446 Z" id="Shape" fill="#CAD3FF"></path>
                            <path d="M114.4,307.2 L114.4,362.7 C114.4,372.3 106.6,380 97.1,380 L67.9,380 C63.6,366 50.6,355.7 35.2,355.7 C16.4,355.7 1,371 1,389.9 C1,408.8 16.3,424.1 35.2,424.1 C50.6,424.1 63.6,413.9 67.9,399.8 L97.1,399.8 C117.6,399.8 134.2,383.1 134.2,362.7 L134.2,307.2 C134.2,301.7 129.8,297.3 124.3,297.3 C118.9,297.3 114.4,301.7 114.4,307.2 Z M35.2,404.3 C27.3,404.3 20.8,397.9 20.8,389.9 C20.8,381.9 27.2,375.5 35.2,375.5 C43.1,375.5 49.6,381.9 49.6,389.9 C49.6,397.9 43.2,404.3 35.2,404.3 Z" id="Shape" fill="#CAD3FF"></path>
                            <path d="M258.9,399.9 L488.100098,399.9 C492.400098,413.9 505.400049,424.2 520.800049,424.2 C539.600049,424.2 555,408.9 555,390 C555,371.1 539.700049,355.8 520.800049,355.8 C505.400049,355.8 492.400098,366 488.100098,380.1 L258.9,380.1 C249.3,380.1 241.6,372.3 241.6,362.8 L241.6,307.3 C241.6,301.8 237.2,297.4 231.7,297.4 C226.2,297.4 221.8,301.8 221.8,307.3 L221.8,362.8 C221.8,383.2 238.4,399.9 258.9,399.9 Z M522.2,374.4 C530.1,374.4 536.6,380.8 536.6,388.8 C536.6,396.8 530.2,403.2 522.2,403.2 C514.2,403.2 507.8,396.8 507.8,388.8 C507.8,380.8 514.2,374.4 522.2,374.4 Z" id="Shape" fill="#CAD3FF"></path>
                        </g>
                    </g>
                </g>
                <g id="Cards" transform="translate(1598.000000, 437.000000)">
                    <g id="Card-1">
                        <circle id="Interaction-Shadow" fill-opacity="0.5" fill="#000000" filter="url(#filter-12)" cx="25" cy="37" r="17"></circle>
                        <circle id="Show-Interaction" fill="#50E3C2" cx="25" cy="25" r="25"></circle>
                        <g id="Hand" transform="translate(17.000000, 19.000000)" fill="#FFFFFF">
                            <path d="M13.48225,12.522 L10.01725,11.3661667 L10.01725,6.667 C10.01725,5.74783333 9.26891667,5.00033333 8.35058333,5.00033333 C7.43058333,5.00033333 6.68391667,5.74783333 6.68391667,6.667 L6.68391667,14.4995 C5.45475,12.8561667 4.65058333,12.5003333 3.76725,12.5003333 C2.60808333,12.5003333 2.40225,13.897 3.00391667,14.8145 L6.33725,19.8145 C6.41391667,19.9295 6.54391667,20.0003333 6.68391667,20.0003333 L13.3505833,20.0003333 C13.5514167,20.0003333 13.7239167,19.8561667 13.7605833,19.6578333 L14.5889167,15.0936667 C14.8189167,14.1003333 14.5680833,12.8703333 13.48225,12.522" id="Fill-1580"></path>
                            <path d="M13.3504167,0 L3.35041667,0 C1.51208333,0 0.0170833333,1.495 0.0170833333,3.33333333 L0.0170833333,7.91666667 C0.0170833333,9.755 1.51208333,11.25 3.35041667,11.25 L3.76708333,11.25 C4.22708333,11.25 4.60041667,10.8766667 4.60041667,10.4166667 C4.60041667,9.95666667 4.22708333,9.58333333 3.76708333,9.58333333 L3.35041667,9.58333333 C2.43041667,9.58333333 1.68375,8.83583333 1.68375,7.91666667 L1.68375,3.33333333 C1.68375,2.41416667 2.43041667,1.66666667 3.35041667,1.66666667 L13.3504167,1.66666667 C14.26875,1.66666667 15.0170833,2.41416667 15.0170833,3.33333333 L15.0170833,7.91666667 C15.0170833,8.83583333 14.26875,9.58333333 13.3504167,9.58333333 L12.93375,9.58333333 C12.4729167,9.58333333 12.1004167,9.95666667 12.1004167,10.4166667 C12.1004167,10.8766667 12.4729167,11.25 12.93375,11.25 L13.3504167,11.25 C15.1879167,11.25 16.68375,9.755 16.68375,7.91666667 L16.68375,3.33333333 C16.68375,1.495 15.1879167,0 13.3504167,0" id="Fill-1581"></path>
                        </g>
                    </g>
                </g>
            </g>
            <g id="Rectangle-2" opacity="0.5">
                <use fill="black" fill-opacity="1" filter="url(#filter-15)" xlink:href="#path-14"></use>
                <use fill="url(#linearGradient-13)" fill-rule="evenodd" xlink:href="#path-14"></use>
                <rect stroke="#92B8FF" stroke-width="0.1" x="1351.05" y="504.05" width="137.675689" height="143.827203" rx="5"></rect>
            </g>
            <g id="Rectangle-2">
                <use fill="black" fill-opacity="1" filter="url(#filter-18)" xlink:href="#path-17"></use>
                <use fill="url(#linearGradient-16)" fill-rule="evenodd" xlink:href="#path-17"></use>
                <rect stroke="#92B8FF" stroke-width="0.1" x="1351.05" y="665.05" width="137.675689" height="143.827203" rx="5"></rect>
            </g>
            <g id="Rectangle-2" opacity="0.5">
                <use fill="black" fill-opacity="1" filter="url(#filter-21)" xlink:href="#path-20"></use>
                <use fill="url(#linearGradient-19)" fill-rule="evenodd" xlink:href="#path-20"></use>
                <rect stroke="#92B8FF" stroke-width="0.1" x="1504.05" y="504.05" width="137.675689" height="189.9" rx="5"></rect>
            </g>
        </g>
    </g>
</svg>