<?xml version="1.0" encoding="UTF-8"?>
<svg width="573px" height="396px" viewBox="0 0 573 396" version="1.1" xmlns="http://www.w3.org/2000/svg" xmlns:xlink="http://www.w3.org/1999/xlink">
    <!-- Generator: Sketch 43.2 (39069) - http://www.bohemiancoding.com/sketch -->
    <title>Group 2</title>
    <desc>Created with Sketch.</desc>
    <defs></defs>
    <g id="Page-1" stroke="none" stroke-width="1" fill="none" fill-rule="evenodd">
        <g id="JJ-SIGN" transform="translate(-3.000000, 1.000000)" stroke="#010101" stroke-width="0.75">
            <g id="Group-2" transform="translate(3.000000, 0.000000)">
                <path d="M74.880597,106.074627 C74.880597,106.074627 103.925373,82.8731343 113.462687,74.9701493 C124.440299,65.880597 184.477612,21.4029851 193.776119,16.1343284 C199.985075,12.619403 212.91791,6.3880597 219.753731,4.35820896 C226.11194,2.47014925 239.350746,-0.141791045 245.970149,0.320895522 C250.828358,0.656716418 261.201493,3.88059701 264.313433,6.85074627 C278.619403,20.5298507 235.708955,79.6119403 235.708955,79.6119403 L114.246269,243.089552 L48.1119403,332.19403 L0.873134328,394.395522" id="Shape"></path>
                <path d="M193.835821,180.88806 C193.835821,180.88806 178.365672,200.865672 172.865672,210.126866 C170.940299,213.365672 167.537313,226.850746 172.268657,228.858209 C177.865672,231.231343 189.022388,228.298507 193.835821,224.597015 C199.08209,220.559701 212.164179,205.492537 212.164179,205.492537 L226.902985,190.119403 L211.171642,216.179104 C211.171642,216.179104 210.395522,223.171642 211.955224,224.589552 C213.119403,225.649254 218.253731,224.589552 218.253731,224.589552 L231.634328,216.179104 L271.791045,188.440299 L311.947761,156.686567 C311.947761,156.686567 354.58209,122.544776 359.313433,117.843284 C363.977612,113.208955 374.470149,98.7835821 372.574627,95.1343284 C371.485075,93.0373134 365.298507,94.2089552 363.119403,95.1343284 C330.38806,108.977612 298.485075,141.820896 282.813433,162.902985 C275.470149,172.783582 260.761194,206.925373 260.761194,206.925373 C260.761194,206.925373 256.708955,219.231343 258.402985,222.902985 C259.395522,225.059701 261.641791,226.552239 263.08209,226.373134 C270.656716,225.455224 289.813433,211.440299 289.813433,211.440299 L333.201493,182.559701 L312.731343,210.291045 C312.731343,210.291045 307.902985,218.716418 309.716418,220.149254 C312.574627,222.410448 326.910448,216.179104 326.910448,216.179104 C326.910448,216.179104 387.179104,188.313433 394.820896,185.798507 C413.246269,179.738806 411.701493,188.559701 411.701493,188.559701 C411.701493,188.559701 404.335821,179.462687 384.507463,189.492537 C379.022388,192.268657 370.552239,202.052239 367.940299,206 C366.365672,208.380597 362.843284,213.492537 362.731343,218.126866 C362.626866,222.11194 366.462687,224.037313 371.828358,224.992537 C376.208955,225.776119 398.029851,206.776119 398.029851,206.776119 L413.201493,189.440299 L405.261194,208.798507 C405.261194,208.798507 401.179104,217.246269 400.529851,219.761194 C399.343284,224.358209 402.298507,225.507463 403.626866,226.059701 C406.201493,227.141791 414.716418,219.574627 417,217.977612 C424.022388,213.059701 449.104478,192.798507 452.074627,190.537313 C462.395522,182.686567 470.88806,184.097015 469.626866,186.358209 C466.044776,192.791045 439.38806,216.731343 439.38806,216.731343 L429.514925,224.656716 C429.514925,224.656716 463.58209,201.067164 474.208955,195.58209 C478.5,193.365672 489.820896,186.529851 493.492537,189.671642 C502.19403,197.134328 465.985075,228.820896 486.58209,232.30597 C499.231343,234.447761 573.977612,201.708955 571.992537,204.134328" id="Shape"></path>
                <path d="M341.432836,165.11194 C342.365672,167.932836 352.626866,163.432836 345.164179,159.828358" id="Shape" fill="#010101" fill-rule="nonzero"></path>
            </g>
        </g>
    </g>
</svg>